SeanSans-CondensedMedium.ufo
<glyph name="quotedbl" format="1">
  <advance width="364"/>
  <unicode hex="0022"/>
  <outline>
    <contour>
      <point x="140" y="620" type="line"/>
      <point x="147" y="824" type="line"/>
      <point x="57" y="824" type="line"/>
      <point x="63" y="620" type="line"/>
    </contour>
    <contour>
      <point x="301" y="620" type="line"/>
      <point x="308" y="824" type="line"/>
      <point x="218" y="824" type="line"/>
      <point x="224" y="620" type="line"/>
    </contour>
  </outline>
</glyph>
<glyph name="numbersign" format="1">
  <advance width="535"/>
  <unicode hex="0023"/>
  <outline>
    <contour>
      <point x="39" y="231" type="curve"/>
      <point x="429" y="231" type="curve"/>
      <point x="447" y="300" type="curve"/>
      <point x="57" y="300" type="curve"/>
    </contour>
    <contour>
      <point x="89" y="458" type="curve"/>
      <point x="480" y="458" type="curve"/>
      <point x="497" y="527" type="curve"/>
      <point x="105" y="527" type="curve"/>
    </contour>
    <contour>
      <point x="332" y="39" type="curve"/>
      <point x="489" y="722" type="curve"/>
      <point x="402" y="722" type="curve"/>
      <point x="244" y="39" type="curve"/>
    </contour>
    <contour>
      <point x="136" y="46" type="curve"/>
      <point x="292" y="722" type="curve"/>
      <point x="205" y="722" type="curve"/>
      <point x="52" y="46" type="curve"/>
    </contour>
  </outline>
</glyph>
<glyph name="dollar" format="1">
  <advance width="450"/>
  <unicode hex="0024"/>
  <outline>
    <contour>
      <point x="253" y="-42" type="curve"/>
      <point x="253" y="-11"/>
      <point x="253" y="47"/>
      <point x="253" y="79" type="curve"/>
      <point x="166" y="79"/>
      <point x="253" y="79"/>
      <point x="166" y="79" type="curve"/>
      <point x="166" y="47"/>
      <point x="166" y="-11"/>
      <point x="166" y="-42" type="curve"/>
      <point x="253" y="-42"/>
      <point x="166" y="-42"/>
    </contour>
    <contour>
      <point x="261" y="650" type="curve"/>
      <point x="261" y="682"/>
      <point x="261" y="741"/>
      <point x="261" y="773" type="curve"/>
      <point x="174" y="773"/>
      <point x="261" y="773"/>
      <point x="174" y="773" type="curve"/>
      <point x="174" y="741"/>
      <point x="174" y="682"/>
      <point x="174" y="650" type="curve"/>
      <point x="261" y="650"/>
      <point x="174" y="650"/>
    </contour>
    <contour>
      <point x="48" y="95" type="curve"/>
      <point x="90" y="68"/>
      <point x="143" y="45"/>
      <point x="205" y="45" type="curve"/>
      <point x="323" y="45"/>
      <point x="409" y="110"/>
      <point x="409" y="210" type="curve"/>
      <point x="409" y="300"/>
      <point x="335" y="356"/>
      <point x="245" y="405" type="curve"/>
      <point x="184" y="440"/>
      <point x="137" y="469"/>
      <point x="137" y="531" type="curve"/>
      <point x="137" y="579"/>
      <point x="167" y="617"/>
      <point x="220" y="617" type="curve"/>
      <point x="267" y="617"/>
      <point x="298" y="601"/>
      <point x="336" y="575" type="curve"/>
      <point x="379" y="634"/>
      <point x="336" y="575"/>
      <point x="379" y="634" type="curve"/>
      <point x="329" y="667"/>
      <point x="286" y="686"/>
      <point x="223" y="686" type="curve"/>
      <point x="119" y="686"/>
      <point x="49" y="623"/>
      <point x="49" y="531" type="curve"/>
      <point x="49" y="442"/>
      <point x="107" y="390"/>
      <point x="194" y="343" type="curve"/>
      <point x="260" y="308"/>
      <point x="321" y="273"/>
      <point x="321" y="207" type="curve"/>
      <point x="321" y="151"/>
      <point x="277" y="113"/>
      <point x="213" y="113" type="curve"/>
      <point x="166" y="113"/>
      <point x="127" y="136"/>
      <point x="95" y="156" type="curve"/>
      <point x="48" y="95"/>
      <point x="95" y="156"/>
    </contour>
  </outline>
</glyph>
<glyph name="percent" format="1">
  <advance width="859"/>
  <unicode hex="0025"/>
  <outline>
    <contour>
      <point x="319" y="-62" type="line"/>
      <point x="630" y="730" type="line"/>
      <point x="547" y="730" type="line"/>
      <point x="238" y="-62" type="line"/>
    </contour>
    <contour>
      <point x="107" y="523" type="curve"/>
      <point x="107" y="604"/>
      <point x="121" y="672"/>
      <point x="192" y="672" type="curve"/>
      <point x="263" y="673"/>
      <point x="278" y="605"/>
      <point x="278" y="522" type="curve"/>
      <point x="278" y="441"/>
      <point x="267" y="370"/>
      <point x="197" y="370" type="curve"/>
      <point x="124" y="370"/>
      <point x="107" y="439"/>
      <point x="107" y="523" type="curve"/>
      <point x="80" y="523"/>
      <point x="61" y="523"/>
      <point x="33" y="523" type="curve"/>
      <point x="33" y="400"/>
      <point x="80" y="308"/>
      <point x="193" y="308" type="curve"/>
      <point x="307" y="308"/>
      <point x="355" y="401"/>
      <point x="355" y="525" type="curve"/>
      <point x="355" y="646"/>
      <point x="307" y="736"/>
      <point x="196" y="735" type="curve"/>
      <point x="82" y="735"/>
      <point x="33" y="645"/>
      <point x="33" y="523" type="curve"/>
      <point x="61" y="523"/>
      <point x="80" y="523"/>
    </contour>
    <contour>
      <point x="578" y="150" type="curve"/>
      <point x="578" y="232"/>
      <point x="592" y="300"/>
      <point x="663" y="300" type="curve"/>
      <point x="734" y="301"/>
      <point x="748" y="232"/>
      <point x="748" y="150" type="curve"/>
      <point x="748" y="68"/>
      <point x="738" y="-2"/>
      <point x="668" y="-2" type="curve"/>
      <point x="594" y="-2"/>
      <point x="578" y="67"/>
      <point x="578" y="150" type="curve"/>
      <point x="551" y="150"/>
      <point x="532" y="150"/>
      <point x="504" y="150" type="curve"/>
      <point x="504" y="27"/>
      <point x="551" y="-65"/>
      <point x="664" y="-65" type="curve"/>
      <point x="778" y="-65"/>
      <point x="826" y="28"/>
      <point x="826" y="153" type="curve"/>
      <point x="826" y="274"/>
      <point x="778" y="363"/>
      <point x="667" y="363" type="curve"/>
      <point x="553" y="363"/>
      <point x="504" y="272"/>
      <point x="504" y="150" type="curve"/>
      <point x="532" y="150"/>
      <point x="551" y="150"/>
    </contour>
  </outline>
</glyph>
<glyph name="ampersand" format="1">
  <advance width="554"/>
  <unicode hex="0026"/>
  <outline>
    <contour>
      <point x="530" y="26" type="line"/>
      <point x="453" y="132"/>
      <point x="369" y="256"/>
      <point x="288" y="364" type="curve"/>
      <point x="244" y="428"/>
      <point x="187" y="483"/>
      <point x="187" y="562" type="curve"/>
      <point x="187" y="611"/>
      <point x="201" y="658"/>
      <point x="242" y="658" type="curve"/>
      <point x="286" y="658"/>
      <point x="301" y="615"/>
      <point x="301" y="564" type="curve"/>
      <point x="301" y="493"/>
      <point x="262" y="448"/>
      <point x="204" y="405" type="curve"/>
      <point x="123" y="344"/>
      <point x="56" y="290"/>
      <point x="56" y="190" type="curve"/>
      <point x="56" y="76"/>
      <point x="125" y="-5"/>
      <point x="236" y="-5" type="curve"/>
      <point x="403" y="-5"/>
      <point x="467" y="142"/>
      <point x="509" y="315" type="curve"/>
      <point x="433" y="332"/>
      <point x="509" y="315"/>
      <point x="433" y="332" type="curve"/>
      <point x="400" y="195"/>
      <point x="366" y="65"/>
      <point x="241" y="65" type="curve"/>
      <point x="177" y="65"/>
      <point x="144" y="119"/>
      <point x="144" y="190" type="curve"/>
      <point x="144" y="261"/>
      <point x="185" y="305"/>
      <point x="243" y="349" type="curve"/>
      <point x="323" y="409"/>
      <point x="389" y="466"/>
      <point x="389" y="565" type="curve"/>
      <point x="389" y="659"/>
      <point x="336" y="727"/>
      <point x="246" y="727" type="curve"/>
      <point x="156" y="727"/>
      <point x="105" y="657"/>
      <point x="105" y="562" type="curve"/>
      <point x="105" y="465"/>
      <point x="168" y="400"/>
      <point x="226" y="323" type="curve"/>
      <point x="303" y="217"/>
      <point x="392" y="87"/>
      <point x="466" y="-15" type="curve"/>
    </contour>
  </outline>
</glyph>
<glyph name="quotesingle" format="1">
  <advance width="204"/>
  <unicode hex="0027"/>
  <outline>
    <contour>
      <point x="140" y="620" type="line"/>
      <point x="147" y="824" type="line"/>
      <point x="57" y="824" type="line"/>
      <point x="63" y="620" type="line"/>
    </contour>
  </outline>
</glyph>
<glyph name="parenleft" format="1">
  <advance width="295"/>
  <unicode hex="0028"/>
  <outline>
    <contour>
      <point x="293" y="-219" type="curve"/>
      <point x="164" y="-45"/>
      <point x="131" y="110"/>
      <point x="131" y="326" type="curve"/>
      <point x="131" y="542"/>
      <point x="165" y="697"/>
      <point x="292" y="874" type="curve"/>
      <point x="239" y="918"/>
      <point x="292" y="874"/>
      <point x="239" y="918" type="curve"/>
      <point x="98" y="728"/>
      <point x="46" y="564"/>
      <point x="46" y="326" type="curve"/>
      <point x="46" y="88"/>
      <point x="99" y="-76"/>
      <point x="240" y="-267" type="curve"/>
      <point x="293" y="-219"/>
      <point x="240" y="-267"/>
    </contour>
  </outline>
</glyph>
<glyph name="parenright" format="1">
  <advance width="303"/>
  <unicode hex="0029"/>
  <outline>
    <contour>
      <point x="53" y="-282" type="curve"/>
      <point x="195" y="-83"/>
      <point x="258" y="83"/>
      <point x="258" y="328" type="curve"/>
      <point x="258" y="567"/>
      <point x="202" y="730"/>
      <point x="56" y="919" type="curve"/>
      <point x="3" y="872"/>
      <point x="56" y="919"/>
      <point x="3" y="872" type="curve"/>
      <point x="134" y="696"/>
      <point x="171" y="542"/>
      <point x="171" y="325" type="curve"/>
      <point x="171" y="103"/>
      <point x="126" y="-53"/>
      <point x="0" y="-237" type="curve"/>
      <point x="53" y="-282"/>
      <point x="0" y="-237"/>
    </contour>
  </outline>
</glyph>
<glyph name="asterisk" format="1">
  <advance width="589"/>
  <unicode hex="002A"/>
  <outline>
    <contour>
      <point x="323" y="571" type="line"/>
      <point x="328" y="775" type="line"/>
      <point x="260" y="775" type="line"/>
      <point x="266" y="571" type="line"/>
    </contour>
    <contour>
      <point x="338" y="519" type="line"/>
      <point x="532" y="581" type="line"/>
      <point x="510" y="644" type="line"/>
      <point x="319" y="573" type="line"/>
    </contour>
    <contour>
      <point x="293" y="488" type="line"/>
      <point x="416" y="324" type="line"/>
      <point x="467" y="367" type="line"/>
      <point x="337" y="524" type="line"/>
    </contour>
    <contour>
      <point x="251" y="524" type="line"/>
      <point x="120" y="367" type="line"/>
      <point x="172" y="325" type="line"/>
      <point x="295" y="488" type="line"/>
    </contour>
    <contour>
      <point x="269" y="573" type="line"/>
      <point x="78" y="644" type="line"/>
      <point x="56" y="581" type="line"/>
      <point x="250" y="519" type="line"/>
    </contour>
  </outline>
</glyph>
<glyph name="plus" format="1">
  <advance width="582"/>
  <unicode hex="002B"/>
  <outline>
    <contour>
      <point x="39" y="275" type="curve"/>
      <point x="542" y="275" type="line"/>
      <point x="542" y="350"/>
      <point x="542" y="275"/>
      <point x="542" y="350" type="curve"/>
      <point x="39" y="350" type="line"/>
      <point x="39" y="275"/>
      <point x="39" y="350"/>
    </contour>
    <contour>
      <point x="332" y="39" type="curve"/>
      <point x="332" y="583" type="line"/>
      <point x="245" y="583"/>
      <point x="337" y="583"/>
      <point x="250" y="583" type="curve"/>
      <point x="250" y="39" type="line"/>
      <point x="337" y="39"/>
      <point x="245" y="39"/>
    </contour>
  </outline>
</glyph>
<glyph name="comma" format="1">
  <advance width="172"/>
  <unicode hex="002C"/>
  <outline>
    <contour>
      <point x="21" y="-111" type="line"/>
      <point x="84" y="-100"/>
      <point x="127" y="-50"/>
      <point x="127" y="29" type="curve"/>
      <point x="127" y="86"/>
      <point x="108" y="118"/>
      <point x="74" y="118" type="curve"/>
      <point x="45" y="118"/>
      <point x="26" y="102"/>
      <point x="26" y="71" type="curve"/>
      <point x="26" y="46"/>
      <point x="39" y="28"/>
      <point x="65" y="25" type="curve"/>
      <point x="65" y="1"/>
      <point x="59" y="-44"/>
      <point x="14" y="-62" type="curve"/>
    </contour>
  </outline>
</glyph>
<glyph name="hyphen" format="1">
  <advance width="349"/>
  <unicode hex="002D"/>
  <outline>
    <contour>
      <point x="69" y="240" type="curve"/>
      <point x="139" y="240"/>
      <point x="210" y="240"/>
      <point x="280" y="240" type="curve"/>
      <point x="280" y="316"/>
      <point x="280" y="240"/>
      <point x="280" y="316" type="curve"/>
      <point x="210" y="316"/>
      <point x="139" y="316"/>
      <point x="69" y="316" type="curve"/>
      <point x="69" y="240"/>
      <point x="69" y="316"/>
    </contour>
  </outline>
</glyph>
<glyph name="period" format="1">
  <advance width="211"/>
  <unicode hex="002E"/>
  <outline>
    <contour>
      <point x="153" y="39" type="curve"/>
      <point x="153" y="69"/>
      <point x="133" y="85"/>
      <point x="105" y="85" type="curve"/>
      <point x="77" y="85"/>
      <point x="58" y="68"/>
      <point x="58" y="39" type="curve"/>
      <point x="153" y="39"/>
      <point x="58" y="39"/>
      <point x="153" y="39" type="curve"/>
      <point x="153" y="7"/>
      <point x="134" y="-7"/>
      <point x="105" y="-7" type="curve"/>
      <point x="76" y="-7"/>
      <point x="58" y="8"/>
      <point x="58" y="39" type="curve"/>
      <point x="153" y="39"/>
      <point x="58" y="39"/>
    </contour>
  </outline>
</glyph>
<glyph name="slash" format="1">
  <advance width="444"/>
  <unicode hex="002F"/>
  <outline>
    <contour>
      <point x="111" y="-38" type="curve"/>
      <point x="214" y="245"/>
      <point x="317" y="528"/>
      <point x="421" y="811" type="curve"/>
      <point x="333" y="811"/>
      <point x="421" y="811"/>
      <point x="333" y="811" type="curve"/>
      <point x="230" y="528"/>
      <point x="127" y="245"/>
      <point x="24" y="-38" type="curve"/>
      <point x="111" y="-38"/>
      <point x="24" y="-38"/>
    </contour>
  </outline>
</glyph>
<glyph name="zero" format="1">
  <advance width="570"/>
  <unicode hex="0030"/>
  <outline>
    <contour>
      <point x="142" y="360" type="curve"/>
      <point x="142" y="520"/>
      <point x="160" y="655"/>
      <point x="282" y="655" type="curve"/>
      <point x="408" y="655"/>
      <point x="428" y="522"/>
      <point x="428" y="363" type="curve"/>
      <point x="428" y="204"/>
      <point x="410" y="67"/>
      <point x="290" y="67" type="curve"/>
      <point x="166" y="67"/>
      <point x="142" y="201"/>
      <point x="142" y="360" type="curve"/>
      <point x="57" y="360"/>
      <point x="141" y="360"/>
      <point x="56" y="360" type="curve"/>
      <point x="56" y="155"/>
      <point x="108" y="-5"/>
      <point x="285" y="-5" type="curve"/>
      <point x="463" y="-5"/>
      <point x="514" y="156"/>
      <point x="514" y="363" type="curve"/>
      <point x="514" y="567"/>
      <point x="465" y="727"/>
      <point x="291" y="727" type="curve"/>
      <point x="111" y="727"/>
      <point x="56" y="567"/>
      <point x="56" y="360" type="curve"/>
      <point x="141" y="360"/>
      <point x="57" y="360"/>
    </contour>
  </outline>
</glyph>
<glyph name="one" format="1">
  <advance width="327"/>
  <unicode hex="0031"/>
  <outline>
    <contour>
      <point x="69" y="506" type="curve"/>
      <point x="230" y="679"/>
      <point x="69" y="506"/>
      <point x="230" y="679" type="curve"/>
      <point x="165" y="722"/>
      <point x="230" y="679"/>
      <point x="165" y="722" type="curve"/>
      <point x="16" y="561"/>
      <point x="165" y="722"/>
      <point x="16" y="561" type="curve"/>
      <point x="69" y="506"/>
      <point x="16" y="561"/>
    </contour>
    <contour>
      <point x="250" y="0" type="curve"/>
      <point x="250" y="241"/>
      <point x="250" y="481"/>
      <point x="250" y="722" type="curve"/>
      <point x="165" y="722"/>
      <point x="250" y="722"/>
      <point x="165" y="722" type="curve"/>
      <point x="165" y="481"/>
      <point x="165" y="241"/>
      <point x="165" y="0" type="curve"/>
      <point x="250" y="0"/>
      <point x="165" y="0"/>
    </contour>
  </outline>
</glyph>
<glyph name="two" format="1">
  <advance width="452"/>
  <unicode hex="0032"/>
  <outline>
    <contour>
      <point x="40" y="0" type="curve"/>
      <point x="183" y="0"/>
      <point x="303" y="0"/>
      <point x="405" y="0" type="curve"/>
      <point x="405" y="69"/>
      <point x="405" y="0"/>
      <point x="405" y="69" type="curve"/>
      <point x="289" y="69"/>
      <point x="157" y="69"/>
      <point x="41" y="69" type="curve"/>
      <point x="40" y="0"/>
      <point x="41" y="69"/>
    </contour>
    <contour>
      <point x="107" y="539" type="curve"/>
      <point x="137" y="601"/>
      <point x="158" y="655"/>
      <point x="222" y="655" type="curve"/>
      <point x="291" y="655"/>
      <point x="312" y="594"/>
      <point x="312" y="513" type="curve"/>
      <point x="312" y="408"/>
      <point x="253" y="322"/>
      <point x="202" y="261" type="curve"/>
      <point x="148" y="196"/>
      <point x="97" y="134"/>
      <point x="41" y="69" type="curve"/>
      <point x="46" y="0"/>
      <point x="41" y="69"/>
      <point x="46" y="0" type="curve"/>
      <point x="141" y="63"/>
      <point x="200" y="139"/>
      <point x="258" y="210" type="curve"/>
      <point x="328" y="288"/>
      <point x="396" y="386"/>
      <point x="396" y="517" type="curve"/>
      <point x="396" y="643"/>
      <point x="343" y="727"/>
      <point x="226" y="727" type="curve"/>
      <point x="132" y="727"/>
      <point x="78" y="663"/>
      <point x="45" y="575" type="curve"/>
      <point x="107" y="539"/>
      <point x="45" y="575"/>
    </contour>
  </outline>
</glyph>
<glyph name="three" format="1">
  <advance width="445"/>
  <unicode hex="0033"/>
  <outline>
    <contour>
      <point x="43" y="58" type="curve"/>
      <point x="91" y="20"/>
      <point x="130" y="-5"/>
      <point x="192" y="-5" type="curve"/>
      <point x="320" y="-5"/>
      <point x="392" y="71"/>
      <point x="392" y="202" type="curve"/>
      <point x="392" y="326"/>
      <point x="288" y="400"/>
      <point x="129" y="400" type="curve"/>
      <point x="129" y="347"/>
      <point x="129" y="394"/>
      <point x="129" y="341" type="curve"/>
      <point x="234" y="341"/>
      <point x="307" y="285"/>
      <point x="307" y="199" type="curve"/>
      <point x="307" y="119"/>
      <point x="263" y="67"/>
      <point x="196" y="67" type="curve"/>
      <point x="153" y="67"/>
      <point x="125" y="84"/>
      <point x="91" y="110" type="curve"/>
      <point x="43" y="58"/>
      <point x="91" y="110"/>
    </contour>
    <contour>
      <point x="102" y="593" type="curve"/>
      <point x="118" y="620"/>
      <point x="148" y="655"/>
      <point x="190" y="655" type="curve"/>
      <point x="254" y="655"/>
      <point x="284" y="607"/>
      <point x="284" y="537" type="curve"/>
      <point x="284" y="462"/>
      <point x="221" y="412"/>
      <point x="129" y="412" type="curve"/>
      <point x="129" y="359"/>
      <point x="129" y="406"/>
      <point x="129" y="354" type="curve"/>
      <point x="268" y="354"/>
      <point x="367" y="422"/>
      <point x="367" y="539" type="curve"/>
      <point x="367" y="654"/>
      <point x="307" y="727"/>
      <point x="198" y="727" type="curve"/>
      <point x="129" y="727"/>
      <point x="72" y="682"/>
      <point x="45" y="636" type="curve"/>
      <point x="102" y="593"/>
      <point x="45" y="636"/>
    </contour>
  </outline>
</glyph>
<glyph name="four" format="1">
  <advance width="469"/>
  <unicode hex="0034"/>
  <outline>
    <contour>
      <point x="58" y="262" type="line"/>
      <point x="322" y="707" type="line"/>
      <point x="248" y="708" type="line"/>
      <point x="18" y="319" type="line"/>
    </contour>
    <contour>
      <point x="433" y="319" type="line"/>
      <point x="18" y="319" type="line"/>
      <point x="18" y="244" type="line"/>
      <point x="433" y="244" type="line"/>
    </contour>
    <contour>
      <point x="335" y="0" type="line"/>
      <point x="335" y="708" type="line"/>
      <point x="250" y="708" type="line"/>
      <point x="250" y="0" type="line"/>
    </contour>
  </outline>
</glyph>
<glyph name="five" format="1">
  <advance width="436"/>
  <unicode hex="0035"/>
  <outline>
    <contour>
      <point x="69" y="722" type="curve"/>
      <point x="69" y="622"/>
      <point x="69" y="517"/>
      <point x="69" y="391" type="curve"/>
      <point x="153" y="364"/>
      <point x="69" y="391"/>
      <point x="152" y="364" type="curve"/>
      <point x="152" y="459"/>
      <point x="152" y="559"/>
      <point x="152" y="653" type="curve"/>
      <point x="69" y="722"/>
      <point x="152" y="653"/>
    </contour>
    <contour>
      <point x="152" y="364" type="curve"/>
      <point x="163" y="373"/>
      <point x="186" y="385"/>
      <point x="210" y="385" type="curve"/>
      <point x="282" y="385"/>
      <point x="304" y="315"/>
      <point x="304" y="233" type="curve"/>
      <point x="304" y="146"/>
      <point x="272" y="67"/>
      <point x="196" y="67" type="curve"/>
      <point x="154" y="67"/>
      <point x="127" y="80"/>
      <point x="91" y="105" type="curve"/>
      <point x="47" y="43"/>
      <point x="91" y="105"/>
      <point x="47" y="43" type="curve"/>
      <point x="87" y="13"/>
      <point x="141" y="-5"/>
      <point x="201" y="-5" type="curve"/>
      <point x="319" y="-5"/>
      <point x="389" y="100"/>
      <point x="389" y="234" type="curve"/>
      <point x="389" y="358"/>
      <point x="336" y="459"/>
      <point x="222" y="459" type="curve"/>
      <point x="175" y="459"/>
      <point x="130" y="442"/>
      <point x="89" y="391" type="curve"/>
      <point x="154" y="369"/>
      <point x="87" y="386"/>
    </contour>
    <contour>
      <point x="366" y="722" type="curve"/>
      <point x="272" y="722"/>
      <point x="163" y="722"/>
      <point x="69" y="722" type="curve"/>
      <point x="152" y="653"/>
      <point x="69" y="722"/>
      <point x="152" y="653" type="curve"/>
      <point x="218" y="653"/>
      <point x="300" y="653"/>
      <point x="366" y="653" type="curve"/>
      <point x="366" y="722"/>
      <point x="366" y="653"/>
    </contour>
  </outline>
</glyph>
<glyph name="six" format="1">
  <advance width="483"/>
  <unicode hex="0036"/>
  <outline>
    <contour>
      <point x="124" y="219" type="curve"/>
      <point x="139" y="290"/>
      <point x="178" y="359"/>
      <point x="250" y="359" type="curve"/>
      <point x="324" y="359"/>
      <point x="349" y="297"/>
      <point x="349" y="215" type="curve"/>
      <point x="349" y="141"/>
      <point x="323" y="72"/>
      <point x="254" y="72" type="curve"/>
      <point x="167" y="72"/>
      <point x="136" y="151"/>
      <point x="136" y="252" type="curve"/>
      <point x="136" y="454"/>
      <point x="232" y="595"/>
      <point x="422" y="667" type="curve"/>
      <point x="397" y="731"/>
      <point x="422" y="667"/>
      <point x="397" y="731" type="curve"/>
      <point x="176" y="651"/>
      <point x="52" y="492"/>
      <point x="52" y="248" type="curve"/>
      <point x="52" y="99"/>
      <point x="115" y="-9"/>
      <point x="252" y="-9" type="curve"/>
      <point x="375" y="-9"/>
      <point x="437" y="84"/>
      <point x="437" y="215" type="curve"/>
      <point x="437" y="343"/>
      <point x="379" y="431"/>
      <point x="265" y="431" type="curve"/>
      <point x="152" y="431"/>
      <point x="90" y="326"/>
      <point x="80" y="239" type="curve"/>
      <point x="123" y="219"/>
      <point x="81" y="239"/>
    </contour>
  </outline>
</glyph>
<glyph name="seven" format="1">
  <advance width="425"/>
  <unicode hex="0037"/>
  <outline>
    <contour>
      <point x="42" y="653" type="curve"/>
      <point x="410" y="653" type="curve"/>
      <point x="410" y="722" type="curve"/>
      <point x="42" y="722" type="curve"/>
    </contour>
    <contour>
      <point x="353" y="722" type="curve"/>
      <point x="45" y="0" type="curve"/>
      <point x="139" y="0" type="curve"/>
      <point x="410" y="653" type="curve"/>
    </contour>
  </outline>
</glyph>
<glyph name="eight" format="1">
  <advance width="479"/>
  <unicode hex="0038"/>
  <outline>
    <contour>
      <point x="70" y="550" type="curve"/>
      <point x="70" y="450"/>
      <point x="129" y="406"/>
      <point x="214" y="353" type="curve"/>
      <point x="287" y="305"/>
      <point x="337" y="263"/>
      <point x="337" y="182" type="curve"/>
      <point x="337" y="114"/>
      <point x="306" y="67"/>
      <point x="240" y="67" type="curve"/>
      <point x="172" y="67"/>
      <point x="141" y="114"/>
      <point x="141" y="182" type="curve"/>
      <point x="141" y="265"/>
      <point x="192" y="303"/>
      <point x="267" y="352" type="curve"/>
      <point x="349" y="406"/>
      <point x="409" y="450"/>
      <point x="409" y="548" type="curve"/>
      <point x="409" y="660"/>
      <point x="351" y="727"/>
      <point x="240" y="727" type="curve"/>
      <point x="131" y="727"/>
      <point x="70" y="659"/>
      <point x="70" y="550" type="curve"/>
      <point x="155" y="550"/>
      <point x="70" y="550"/>
      <point x="155" y="550" type="curve"/>
      <point x="155" y="609"/>
      <point x="179" y="655"/>
      <point x="237" y="655" type="curve"/>
      <point x="298" y="655"/>
      <point x="324" y="611"/>
      <point x="324" y="548" type="curve"/>
      <point x="324" y="478"/>
      <point x="277" y="443"/>
      <point x="213" y="402" type="curve"/>
      <point x="120" y="342"/>
      <point x="56" y="292"/>
      <point x="56" y="182" type="curve"/>
      <point x="56" y="66"/>
      <point x="119" y="-5"/>
      <point x="235" y="-5" type="curve"/>
      <point x="354" y="-5"/>
      <point x="423" y="64"/>
      <point x="423" y="182" type="curve"/>
      <point x="423" y="291"/>
      <point x="359" y="344"/>
      <point x="267" y="403" type="curve"/>
      <point x="203" y="445"/>
      <point x="155" y="478"/>
      <point x="155" y="550" type="curve"/>
      <point x="70" y="550"/>
      <point x="155" y="550"/>
    </contour>
  </outline>
</glyph>
<glyph name="nine" format="1">
  <advance width="482"/>
  <unicode hex="0039"/>
  <outline>
    <contour>
      <point x="364" y="482" type="curve"/>
      <point x="341" y="414"/>
      <point x="307" y="363"/>
      <point x="234" y="363" type="curve"/>
      <point x="159" y="363"/>
      <point x="130" y="427"/>
      <point x="130" y="510" type="curve"/>
      <point x="130" y="587"/>
      <point x="158" y="650"/>
      <point x="226" y="650" type="curve"/>
      <point x="315" y="650"/>
      <point x="345" y="570"/>
      <point x="345" y="470" type="curve"/>
      <point x="345" y="268"/>
      <point x="257" y="130"/>
      <point x="68" y="54" type="curve"/>
      <point x="102" y="-15"/>
      <point x="68" y="54"/>
      <point x="102" y="-15" type="curve"/>
      <point x="310" y="68"/>
      <point x="429" y="230"/>
      <point x="429" y="474" type="curve"/>
      <point x="429" y="623"/>
      <point x="367" y="731"/>
      <point x="229" y="731" type="curve"/>
      <point x="105" y="731"/>
      <point x="45" y="638"/>
      <point x="45" y="507" type="curve"/>
      <point x="45" y="379"/>
      <point x="105" y="291"/>
      <point x="226" y="291" type="curve"/>
      <point x="330" y="291"/>
      <point x="380" y="380"/>
      <point x="407" y="463" type="curve"/>
      <point x="364" y="482"/>
      <point x="407" y="463"/>
    </contour>
  </outline>
</glyph>
<glyph name="colon" format="1">
  <advance width="228"/>
  <unicode hex="003A"/>
  <outline>
    <contour>
      <point x="159" y="390" type="curve"/>
      <point x="159" y="421"/>
      <point x="139" y="436"/>
      <point x="111" y="436" type="curve"/>
      <point x="83" y="436"/>
      <point x="64" y="419"/>
      <point x="64" y="390" type="curve"/>
      <point x="159" y="390"/>
      <point x="64" y="390"/>
      <point x="159" y="390" type="curve"/>
      <point x="159" y="359"/>
      <point x="140" y="344"/>
      <point x="111" y="344" type="curve"/>
      <point x="82" y="344"/>
      <point x="64" y="360"/>
      <point x="64" y="390" type="curve"/>
      <point x="159" y="390"/>
      <point x="64" y="390"/>
    </contour>
    <contour>
      <point x="159" y="41" type="curve"/>
      <point x="159" y="72"/>
      <point x="139" y="87"/>
      <point x="111" y="87" type="curve"/>
      <point x="83" y="87"/>
      <point x="64" y="70"/>
      <point x="64" y="41" type="curve"/>
      <point x="159" y="41"/>
      <point x="64" y="41"/>
      <point x="159" y="41" type="curve"/>
      <point x="159" y="10"/>
      <point x="140" y="-5"/>
      <point x="111" y="-5" type="curve"/>
      <point x="82" y="-5"/>
      <point x="64" y="11"/>
      <point x="64" y="41" type="curve"/>
      <point x="159" y="41"/>
      <point x="64" y="41"/>
    </contour>
  </outline>
</glyph>
<glyph name="semicolon" format="1">
  <advance width="193"/>
  <unicode hex="003B"/>
  <outline>
    <contour>
      <point x="29" y="-163" type="line"/>
      <point x="96" y="-151"/>
      <point x="142" y="-102"/>
      <point x="142" y="-23" type="curve"/>
      <point x="142" y="34"/>
      <point x="121" y="67"/>
      <point x="85" y="67" type="curve"/>
      <point x="54" y="67"/>
      <point x="33" y="50"/>
      <point x="33" y="20" type="curve"/>
      <point x="33" y="-5"/>
      <point x="47" y="-24"/>
      <point x="75" y="-26" type="curve"/>
      <point x="75" y="-50"/>
      <point x="70" y="-96"/>
      <point x="21" y="-113" type="curve"/>
    </contour>
    <contour>
      <point x="133" y="400" type="curve"/>
      <point x="133" y="431"/>
      <point x="113" y="447"/>
      <point x="85" y="447" type="curve"/>
      <point x="56" y="447"/>
      <point x="38" y="429"/>
      <point x="38" y="400" type="curve"/>
      <point x="133" y="400"/>
      <point x="38" y="400"/>
      <point x="133" y="400" type="curve"/>
      <point x="133" y="369"/>
      <point x="113" y="355"/>
      <point x="85" y="355" type="curve"/>
      <point x="56" y="355"/>
      <point x="38" y="370"/>
      <point x="38" y="400" type="curve"/>
      <point x="133" y="400"/>
      <point x="38" y="400"/>
    </contour>
  </outline>
</glyph>
<glyph name="less" format="1">
  <advance width="532"/>
  <unicode hex="003C"/>
  <outline>
    <contour>
      <point x="474" y="608" type="curve"/>
      <point x="327" y="518"/>
      <point x="180" y="428"/>
      <point x="32" y="338" type="curve"/>
      <point x="32" y="262"/>
      <point x="32" y="338"/>
      <point x="32" y="262" type="curve"/>
      <point x="180" y="352"/>
      <point x="327" y="442"/>
      <point x="474" y="532" type="curve"/>
      <point x="474" y="608"/>
      <point x="474" y="532"/>
    </contour>
    <contour>
      <point x="482" y="74" type="curve"/>
      <point x="332" y="162"/>
      <point x="182" y="250"/>
      <point x="32" y="338" type="curve"/>
      <point x="32" y="262"/>
      <point x="32" y="338"/>
      <point x="32" y="262" type="curve"/>
      <point x="182" y="174"/>
      <point x="332" y="86"/>
      <point x="482" y="-2" type="curve"/>
      <point x="482" y="74"/>
      <point x="482" y="-2"/>
    </contour>
  </outline>
</glyph>
<glyph name="greater" format="1">
  <advance width="533"/>
  <unicode hex="003E"/>
  <outline>
    <contour>
      <point x="57" y="-2" type="curve"/>
      <point x="204" y="88"/>
      <point x="352" y="178"/>
      <point x="499" y="268" type="curve"/>
      <point x="499" y="344"/>
      <point x="499" y="268"/>
      <point x="499" y="344" type="curve"/>
      <point x="352" y="254"/>
      <point x="204" y="164"/>
      <point x="57" y="74" type="curve"/>
      <point x="57" y="-2"/>
      <point x="57" y="74"/>
    </contour>
    <contour>
      <point x="50" y="532" type="curve"/>
      <point x="199" y="444"/>
      <point x="350" y="356"/>
      <point x="499" y="268" type="curve"/>
      <point x="499" y="344"/>
      <point x="499" y="268"/>
      <point x="499" y="344" type="curve"/>
      <point x="350" y="432"/>
      <point x="199" y="520"/>
      <point x="50" y="608" type="curve"/>
      <point x="50" y="532"/>
      <point x="50" y="608"/>
    </contour>
  </outline>
</glyph>
<glyph name="question" format="1">
  <advance width="436"/>
  <unicode hex="003F"/>
  <outline>
    <contour>
      <point x="169" y="358" type="curve"/>
      <point x="169" y="321"/>
      <point x="169" y="258"/>
      <point x="169" y="221" type="curve"/>
      <point x="249" y="221"/>
      <point x="169" y="221"/>
      <point x="249" y="221" type="curve"/>
      <point x="249" y="258"/>
      <point x="249" y="321"/>
      <point x="249" y="358" type="curve"/>
      <point x="169" y="358"/>
      <point x="249" y="358"/>
    </contour>
    <contour>
      <point x="95" y="600" type="line"/>
      <point x="121" y="635"/>
      <point x="151" y="659"/>
      <point x="198" y="659" type="curve"/>
      <point x="273" y="659"/>
      <point x="307" y="598"/>
      <point x="307" y="518" type="curve"/>
      <point x="307" y="428"/>
      <point x="264" y="358"/>
      <point x="178" y="358" type="curve"/>
      <point x="178" y="327"/>
      <point x="178" y="323"/>
      <point x="178" y="291" type="curve"/>
      <point x="313" y="291"/>
      <point x="391" y="384"/>
      <point x="391" y="518" type="curve"/>
      <point x="391" y="645"/>
      <point x="320" y="732"/>
      <point x="202" y="732" type="curve"/>
      <point x="130" y="732"/>
      <point x="81" y="703"/>
      <point x="47" y="654" type="curve"/>
    </contour>
    <contour>
      <point x="257" y="39" type="curve"/>
      <point x="257" y="69"/>
      <point x="236" y="85"/>
      <point x="208" y="85" type="curve"/>
      <point x="180" y="85"/>
      <point x="162" y="68"/>
      <point x="162" y="39" type="curve"/>
      <point x="257" y="39"/>
      <point x="162" y="39"/>
      <point x="257" y="39" type="curve"/>
      <point x="257" y="7"/>
      <point x="237" y="-7"/>
      <point x="208" y="-7" type="curve"/>
      <point x="179" y="-7"/>
      <point x="162" y="8"/>
      <point x="162" y="39" type="curve"/>
      <point x="257" y="39"/>
      <point x="162" y="39"/>
    </contour>
  </outline>
</glyph>
<glyph name="at" format="1">
  <advance width="671"/>
  <unicode hex="0040"/>
  <outline>
    <contour>
      <point x="446" y="-51" type="curve"/>
      <point x="414" y="-74"/>
      <point x="388" y="-82"/>
      <point x="348" y="-82" type="curve"/>
      <point x="198" y="-82"/>
      <point x="129" y="38"/>
      <point x="129" y="202" type="curve"/>
      <point x="129" y="361"/>
      <point x="196" y="479"/>
      <point x="340" y="479" type="curve"/>
      <point x="478" y="479"/>
      <point x="541" y="363"/>
      <point x="541" y="211" type="curve"/>
      <point x="541" y="146"/>
      <point x="541" y="88"/>
      <point x="508" y="88" type="curve"/>
      <point x="473" y="88"/>
      <point x="473" y="143"/>
      <point x="473" y="207" type="curve"/>
      <point x="473" y="312"/>
      <point x="432" y="391"/>
      <point x="335" y="391" type="curve"/>
      <point x="231" y="391"/>
      <point x="192" y="315"/>
      <point x="192" y="205" type="curve"/>
      <point x="192" y="92"/>
      <point x="226" y="10"/>
      <point x="328" y="10" type="curve"/>
      <point x="421" y="10"/>
      <point x="450" y="89"/>
      <point x="461" y="191" type="curve"/>
      <point x="406" y="204"/>
      <point x="461" y="191"/>
      <point x="406" y="204" type="curve"/>
      <point x="395" y="142"/>
      <point x="392" y="79"/>
      <point x="337" y="79" type="curve"/>
      <point x="281" y="79"/>
      <point x="270" y="137"/>
      <point x="270" y="209" type="curve"/>
      <point x="270" y="271"/>
      <point x="279" y="322"/>
      <point x="330" y="322" type="curve"/>
      <point x="388" y="322"/>
      <point x="394" y="268"/>
      <point x="394" y="203" type="curve"/>
      <point x="394" y="103"/>
      <point x="413" y="22"/>
      <point x="502" y="22" type="curve"/>
      <point x="595" y="22"/>
      <point x="616" y="106"/>
      <point x="616" y="214" type="curve"/>
      <point x="616" y="412"/>
      <point x="529" y="551"/>
      <point x="343" y="551" type="curve"/>
      <point x="145" y="551"/>
      <point x="50" y="408"/>
      <point x="50" y="199" type="curve"/>
      <point x="50" y="-9"/>
      <point x="148" y="-152"/>
      <point x="343" y="-152" type="curve"/>
      <point x="400" y="-152"/>
      <point x="434" y="-142"/>
      <point x="480" y="-110" type="curve"/>
      <point x="446" y="-51"/>
      <point x="480" y="-110"/>
    </contour>
  </outline>
</glyph>
<glyph name="B" format="1">
  <advance width="520"/>
  <unicode hex="0042"/>
  <outline>
    <contour>
      <point x="131" y="653" type="curve"/>
      <point x="179" y="653"/>
      <point x="210" y="653"/>
      <point x="257" y="653" type="curve"/>
      <point x="322" y="653"/>
      <point x="352" y="609"/>
      <point x="352" y="545" type="curve"/>
      <point x="352" y="484"/>
      <point x="322" y="441"/>
      <point x="262" y="441" type="curve"/>
      <point x="213" y="441"/>
      <point x="181" y="441"/>
      <point x="131" y="441" type="curve"/>
      <point x="131" y="415"/>
      <point x="131" y="398"/>
      <point x="131" y="372" type="curve"/>
      <point x="169" y="372"/>
      <point x="195" y="372"/>
      <point x="233" y="372" type="curve"/>
      <point x="341" y="372"/>
      <point x="438" y="426"/>
      <point x="438" y="542" type="curve"/>
      <point x="438" y="654"/>
      <point x="374" y="722"/>
      <point x="262" y="722" type="curve"/>
      <point x="213" y="722"/>
      <point x="181" y="722"/>
      <point x="131" y="722" type="curve"/>
      <point x="131" y="696"/>
      <point x="131" y="679"/>
    </contour>
    <contour>
      <point x="185" y="0" type="curve"/>
      <point x="185" y="241"/>
      <point x="185" y="481"/>
      <point x="185" y="722" type="curve"/>
      <point x="94" y="722"/>
      <point x="185" y="722"/>
      <point x="94" y="722" type="curve"/>
      <point x="94" y="481"/>
      <point x="94" y="241"/>
      <point x="94" y="0" type="curve"/>
      <point x="185" y="0"/>
      <point x="94" y="0"/>
    </contour>
    <contour>
      <point x="131" y="372" type="curve"/>
      <point x="181" y="372"/>
      <point x="213" y="372"/>
      <point x="262" y="372" type="curve"/>
      <point x="349" y="372"/>
      <point x="386" y="307"/>
      <point x="386" y="217" type="curve"/>
      <point x="386" y="129"/>
      <point x="345" y="69"/>
      <point x="260" y="69" type="curve"/>
      <point x="211" y="69"/>
      <point x="180" y="69"/>
      <point x="131" y="69" type="curve"/>
      <point x="131" y="43"/>
      <point x="131" y="26"/>
      <point x="131" y="0" type="curve"/>
      <point x="182" y="0"/>
      <point x="215" y="0"/>
      <point x="265" y="0" type="curve"/>
      <point x="397" y="0"/>
      <point x="473" y="82"/>
      <point x="473" y="215" type="curve"/>
      <point x="473" y="360"/>
      <point x="375" y="441"/>
      <point x="234" y="441" type="curve"/>
      <point x="196" y="441"/>
      <point x="169" y="441"/>
      <point x="131" y="441" type="curve"/>
      <point x="131" y="415"/>
      <point x="131" y="398"/>
    </contour>
  </outline>
</glyph>
<glyph name="C" format="1">
  <advance width="538"/>
  <unicode hex="0043"/>
  <outline>
    <contour>
      <point x="505" y="654" type="curve"/>
      <point x="453" y="696"/>
      <point x="392" y="727"/>
      <point x="319" y="727" type="curve"/>
      <point x="125" y="727"/>
      <point x="53" y="565"/>
      <point x="53" y="345" type="curve"/>
      <point x="53" y="143"/>
      <point x="123" y="-5"/>
      <point x="305" y="-5" type="curve"/>
      <point x="399" y="-5"/>
      <point x="460" y="31"/>
      <point x="518" y="98" type="curve"/>
      <point x="466" y="149"/>
      <point x="517" y="98"/>
      <point x="465" y="149" type="curve"/>
      <point x="420" y="100"/>
      <point x="378" y="68"/>
      <point x="309" y="68" type="curve"/>
      <point x="174" y="68"/>
      <point x="140" y="192"/>
      <point x="140" y="348" type="curve"/>
      <point x="140" y="518"/>
      <point x="174" y="655"/>
      <point x="316" y="655" type="curve"/>
      <point x="371" y="655"/>
      <point x="419" y="631"/>
      <point x="457" y="600" type="curve"/>
      <point x="505" y="654"/>
      <point x="457" y="600"/>
    </contour>
    <contour>
      <point x="314" y="801" type="move" name="top"/>
    </contour>
    <contour>
      <point x="327" y="0" type="move" name="bottom"/>
    </contour>
  </outline>
</glyph>
<glyph name="D" format="1">
  <advance width="602"/>
  <unicode hex="0044"/>
  <outline>
    <contour>
      <point x="94" y="722" type="curve"/>
      <point x="94" y="481"/>
      <point x="94" y="241"/>
      <point x="94" y="0" type="curve"/>
      <point x="181" y="0"/>
      <point x="94" y="0"/>
      <point x="181" y="0" type="curve"/>
      <point x="181" y="241"/>
      <point x="181" y="481"/>
      <point x="181" y="722" type="curve"/>
      <point x="94" y="722"/>
      <point x="181" y="722"/>
    </contour>
    <contour>
      <point x="139" y="0" type="curve"/>
      <point x="185" y="0"/>
      <point x="224" y="0"/>
      <point x="271" y="0" type="curve"/>
      <point x="468" y="0"/>
      <point x="548" y="143"/>
      <point x="548" y="355" type="curve"/>
      <point x="548" y="574"/>
      <point x="467" y="722"/>
      <point x="266" y="722" type="curve"/>
      <point x="222" y="722"/>
      <point x="184" y="722"/>
      <point x="139" y="722" type="curve"/>
      <point x="139" y="660"/>
      <point x="139" y="715"/>
      <point x="139" y="653" type="curve"/>
      <point x="183" y="653"/>
      <point x="219" y="653"/>
      <point x="262" y="653" type="curve"/>
      <point x="416" y="653"/>
      <point x="461" y="526"/>
      <point x="461" y="353" type="curve"/>
      <point x="461" y="191"/>
      <point x="422" y="69"/>
      <point x="279" y="69" type="curve"/>
      <point x="230" y="69"/>
      <point x="188" y="69"/>
      <point x="139" y="69" type="curve"/>
      <point x="139" y="7"/>
      <point x="139" y="62"/>
    </contour>
    <contour>
      <point x="245" y="801" type="move" name="top"/>
    </contour>
  </outline>
</glyph>
<glyph name="F" format="1">
  <advance width="449"/>
  <unicode hex="0046"/>
  <outline>
    <contour>
      <point x="140" y="339" type="curve"/>
      <point x="219" y="339"/>
      <point x="296" y="339"/>
      <point x="374" y="339" type="curve"/>
      <point x="374" y="408"/>
      <point x="374" y="339"/>
      <point x="374" y="408" type="curve"/>
      <point x="296" y="408"/>
      <point x="219" y="408"/>
      <point x="140" y="408" type="curve"/>
      <point x="140" y="339"/>
      <point x="140" y="408"/>
    </contour>
    <contour>
      <point x="181" y="0" type="curve"/>
      <point x="181" y="722" type="line"/>
      <point x="94" y="722"/>
      <point x="181" y="722"/>
      <point x="94" y="722" type="curve"/>
      <point x="94" y="481"/>
      <point x="94" y="241"/>
      <point x="94" y="0" type="curve"/>
      <point x="181" y="0"/>
      <point x="94" y="0"/>
    </contour>
    <contour>
      <point x="129" y="653" type="curve"/>
      <point x="229" y="653"/>
      <point x="328" y="653"/>
      <point x="428" y="653" type="curve"/>
      <point x="428" y="722"/>
      <point x="428" y="653"/>
      <point x="428" y="722" type="curve"/>
      <point x="328" y="722"/>
      <point x="229" y="722"/>
      <point x="129" y="722" type="curve"/>
      <point x="129" y="653"/>
      <point x="129" y="722"/>
    </contour>
  </outline>
</glyph>
<glyph name="G" format="1">
  <advance width="615"/>
  <unicode hex="0047"/>
  <outline>
    <contour>
      <point x="534" y="346" type="curve"/>
      <point x="480" y="346"/>
      <point x="427" y="346"/>
      <point x="374" y="346" type="curve"/>
      <point x="374" y="277"/>
      <point x="374" y="346"/>
      <point x="374" y="277" type="curve"/>
      <point x="427" y="277"/>
      <point x="480" y="277"/>
      <point x="534" y="277" type="curve"/>
      <point x="534" y="346"/>
      <point x="534" y="277"/>
    </contour>
    <contour>
      <point x="557" y="78" type="curve"/>
      <point x="557" y="168"/>
      <point x="557" y="257"/>
      <point x="557" y="346" type="curve"/>
      <point x="478" y="346"/>
      <point x="557" y="346"/>
      <point x="478" y="346" type="curve"/>
      <point x="478" y="257"/>
      <point x="478" y="168"/>
      <point x="478" y="78" type="curve"/>
      <point x="557" y="78"/>
      <point x="478" y="78"/>
    </contour>
    <contour>
      <point x="545" y="644" type="curve"/>
      <point x="478" y="699"/>
      <point x="413" y="727"/>
      <point x="326" y="727" type="curve"/>
      <point x="133" y="727"/>
      <point x="52" y="575"/>
      <point x="52" y="362" type="curve"/>
      <point x="52" y="146"/>
      <point x="137" y="-5"/>
      <point x="334" y="-5" type="curve"/>
      <point x="426" y="-5"/>
      <point x="483" y="24"/>
      <point x="557" y="78" type="curve"/>
      <point x="512" y="132"/>
      <point x="557" y="78"/>
      <point x="512" y="132" type="curve"/>
      <point x="461" y="92"/>
      <point x="406" y="68"/>
      <point x="334" y="68" type="curve"/>
      <point x="184" y="68"/>
      <point x="140" y="198"/>
      <point x="140" y="369" type="curve"/>
      <point x="140" y="530"/>
      <point x="185" y="655"/>
      <point x="326" y="655" type="curve"/>
      <point x="395" y="655"/>
      <point x="448" y="630"/>
      <point x="501" y="585" type="curve"/>
      <point x="545" y="644"/>
      <point x="501" y="585"/>
    </contour>
    <contour>
      <point x="323" y="801" type="move" name="top"/>
    </contour>
    <contour>
      <point x="354" y="-37" type="move" name="bottom"/>
    </contour>
  </outline>
</glyph>
<glyph name="H" format="1">
  <advance width="637"/>
  <unicode hex="0048"/>
  <outline>
    <contour>
      <point x="181" y="0" type="curve"/>
      <point x="181" y="722" type="line"/>
      <point x="94" y="722"/>
      <point x="181" y="722"/>
      <point x="94" y="722" type="curve"/>
      <point x="94" y="481"/>
      <point x="94" y="241"/>
      <point x="94" y="0" type="curve"/>
      <point x="181" y="0"/>
      <point x="94" y="0"/>
    </contour>
    <contour>
      <point x="498" y="397" type="curve"/>
      <point x="377" y="397"/>
      <point x="258" y="397"/>
      <point x="137" y="397" type="curve"/>
      <point x="137" y="328"/>
      <point x="137" y="397"/>
      <point x="137" y="328" type="curve"/>
      <point x="258" y="328"/>
      <point x="377" y="328"/>
      <point x="498" y="328" type="curve"/>
      <point x="498" y="397"/>
      <point x="498" y="328"/>
    </contour>
    <contour>
      <point x="543" y="0" type="curve"/>
      <point x="543" y="224"/>
      <point x="543" y="498"/>
      <point x="543" y="722" type="curve"/>
      <point x="455" y="722"/>
      <point x="543" y="722"/>
      <point x="455" y="722" type="curve"/>
      <point x="455" y="0" type="line"/>
      <point x="543" y="0"/>
      <point x="455" y="0"/>
    </contour>
  </outline>
</glyph>
<glyph name="J" format="1">
  <advance width="366"/>
  <unicode hex="004A"/>
  <outline>
    <contour>
      <point x="6" y="42" type="curve"/>
      <point x="32" y="19"/>
      <point x="66" y="-4"/>
      <point x="111" y="-4" type="curve"/>
      <point x="234" y="-4"/>
      <point x="278" y="84"/>
      <point x="278" y="231" type="curve"/>
      <point x="278" y="404"/>
      <point x="278" y="548"/>
      <point x="278" y="722" type="curve"/>
      <point x="198" y="722"/>
      <point x="271" y="722"/>
      <point x="191" y="722" type="curve"/>
      <point x="191" y="548"/>
      <point x="191" y="404"/>
      <point x="191" y="231" type="curve"/>
      <point x="191" y="141"/>
      <point x="186" y="66"/>
      <point x="111" y="66" type="curve"/>
      <point x="83" y="66"/>
      <point x="66" y="81"/>
      <point x="47" y="96" type="curve"/>
      <point x="10" y="47"/>
      <point x="43" y="91"/>
    </contour>
  </outline>
</glyph>
<glyph name="K" format="1">
  <advance width="533"/>
  <unicode hex="004B"/>
  <outline>
    <contour>
      <point x="408" y="722" type="curve"/>
      <point x="166" y="380" type="line"/>
      <point x="263" y="380"/>
      <point x="172" y="380"/>
      <point x="269" y="380" type="curve"/>
      <point x="510" y="722" type="line"/>
      <point x="440" y="722"/>
      <point x="479" y="722"/>
    </contour>
    <contour>
      <point x="181" y="0" type="curve"/>
      <point x="181" y="722" type="line"/>
      <point x="94" y="722"/>
      <point x="181" y="722"/>
      <point x="94" y="722" type="curve"/>
      <point x="94" y="481"/>
      <point x="94" y="241"/>
      <point x="94" y="0" type="curve"/>
      <point x="181" y="0"/>
      <point x="94" y="0"/>
    </contour>
    <contour>
      <point x="526" y="0" type="curve"/>
      <point x="269" y="380" type="line"/>
      <point x="172" y="380"/>
      <point x="263" y="380"/>
      <point x="166" y="380" type="curve"/>
      <point x="425" y="0" type="line"/>
      <point x="502" y="0"/>
      <point x="449" y="0"/>
    </contour>
    <contour>
      <point x="307" y="-37" type="move" name="bottom"/>
    </contour>
  </outline>
</glyph>
<glyph name="L" format="1">
  <advance width="455"/>
  <unicode hex="004C"/>
  <outline>
    <contour>
      <point x="181" y="0" type="curve"/>
      <point x="181" y="241"/>
      <point x="181" y="481"/>
      <point x="181" y="722" type="curve"/>
      <point x="94" y="722"/>
      <point x="181" y="722"/>
      <point x="94" y="722" type="curve"/>
      <point x="94" y="481"/>
      <point x="94" y="241"/>
      <point x="94" y="0" type="curve"/>
      <point x="181" y="0"/>
      <point x="94" y="0"/>
    </contour>
    <contour>
      <point x="137" y="0" type="curve"/>
      <point x="239" y="0"/>
      <point x="341" y="0"/>
      <point x="444" y="0" type="curve"/>
      <point x="444" y="69"/>
      <point x="444" y="0"/>
      <point x="444" y="69" type="curve"/>
      <point x="341" y="69"/>
      <point x="239" y="69"/>
      <point x="137" y="69" type="curve"/>
      <point x="137" y="0"/>
      <point x="137" y="69"/>
    </contour>
    <contour>
      <point x="138" y="801" type="move" name="top"/>
    </contour>
    <contour>
      <point x="268" y="-35" type="move" name="bottom"/>
    </contour>
  </outline>
</glyph>
<glyph name="M" format="1">
  <advance width="717"/>
  <unicode hex="004D"/>
  <outline>
    <contour>
      <point x="653" y="0" type="curve"/>
      <point x="638" y="241"/>
      <point x="620" y="481"/>
      <point x="605" y="722" type="curve"/>
      <point x="526" y="722"/>
      <point x="605" y="722"/>
      <point x="526" y="722" type="curve"/>
      <point x="540" y="481"/>
      <point x="551" y="241"/>
      <point x="566" y="0" type="curve"/>
      <point x="653" y="0"/>
      <point x="566" y="0"/>
    </contour>
    <contour>
      <point x="143" y="0" type="curve"/>
      <point x="156" y="241"/>
      <point x="170" y="481"/>
      <point x="183" y="722" type="curve"/>
      <point x="109" y="722"/>
      <point x="183" y="722"/>
      <point x="109" y="722" type="curve"/>
      <point x="95" y="481"/>
      <point x="81" y="241"/>
      <point x="66" y="0" type="curve"/>
      <point x="143" y="0"/>
      <point x="66" y="0"/>
    </contour>
    <contour>
      <point x="390" y="0" type="curve"/>
      <point x="322" y="241"/>
      <point x="253" y="481"/>
      <point x="185" y="722" type="curve"/>
      <point x="111" y="722"/>
      <point x="185" y="722"/>
      <point x="111" y="722" type="curve"/>
      <point x="179" y="481"/>
      <point x="246" y="241"/>
      <point x="314" y="0" type="curve"/>
      <point x="390" y="0"/>
      <point x="314" y="0"/>
    </contour>
    <contour>
      <point x="397" y="0" type="curve"/>
      <point x="463" y="241"/>
      <point x="530" y="481"/>
      <point x="596" y="722" type="curve"/>
      <point x="522" y="722"/>
      <point x="596" y="722"/>
      <point x="522" y="722" type="curve"/>
      <point x="455" y="481"/>
      <point x="387" y="241"/>
      <point x="320" y="0" type="curve"/>
      <point x="397" y="0"/>
      <point x="320" y="0"/>
    </contour>
  </outline>
</glyph>
<glyph name="P" format="1">
  <advance width="484"/>
  <unicode hex="0050"/>
  <outline>
    <contour>
      <point x="126" y="311" type="curve"/>
      <point x="167" y="283"/>
      <point x="212" y="265"/>
      <point x="265" y="265" type="curve"/>
      <point x="380" y="267"/>
      <point x="445" y="352"/>
      <point x="445" y="484" type="curve"/>
      <point x="445" y="622"/>
      <point x="370" y="722"/>
      <point x="238" y="722" type="curve"/>
      <point x="206" y="722"/>
      <point x="173" y="722"/>
      <point x="141" y="722" type="curve"/>
      <point x="141" y="653"/>
      <point x="141" y="722"/>
      <point x="141" y="653" type="curve"/>
      <point x="169" y="653"/>
      <point x="198" y="653"/>
      <point x="227" y="653" type="curve"/>
      <point x="315" y="653"/>
      <point x="358" y="580"/>
      <point x="358" y="486" type="curve"/>
      <point x="358" y="401"/>
      <point x="329" y="332"/>
      <point x="255" y="332" type="curve"/>
      <point x="214" y="332"/>
      <point x="187" y="346"/>
      <point x="153" y="369" type="curve"/>
      <point x="126" y="313"/>
      <point x="153" y="368"/>
    </contour>
    <contour>
      <point x="181" y="0" type="curve"/>
      <point x="181" y="241"/>
      <point x="181" y="481"/>
      <point x="181" y="722" type="curve"/>
      <point x="94" y="722"/>
      <point x="181" y="722"/>
      <point x="94" y="722" type="curve"/>
      <point x="94" y="481"/>
      <point x="94" y="241"/>
      <point x="94" y="0" type="curve"/>
      <point x="181" y="0"/>
      <point x="94" y="0"/>
    </contour>
  </outline>
</glyph>
<glyph name="Q" format="1">
  <advance width="646"/>
  <unicode hex="0051"/>
  <outline>
    <contour>
      <point x="276" y="16" type="curve"/>
      <point x="345" y="-146"/>
      <point x="438" y="-225"/>
      <point x="602" y="-225" type="curve"/>
      <point x="602" y="-152"/>
      <point x="602" y="-225"/>
      <point x="602" y="-152" type="curve"/>
      <point x="473" y="-152"/>
      <point x="407" y="-79"/>
      <point x="351" y="51" type="curve"/>
      <point x="276" y="16"/>
      <point x="351" y="51"/>
    </contour>
    <contour>
      <point x="140" y="360" type="curve"/>
      <point x="140" y="516"/>
      <point x="169" y="651"/>
      <point x="305" y="651" type="curve"/>
      <point x="440" y="651"/>
      <point x="474" y="518"/>
      <point x="474" y="361" type="curve"/>
      <point x="474" y="204"/>
      <point x="446" y="67"/>
      <point x="311" y="67" type="curve"/>
      <point x="173" y="68"/>
      <point x="140" y="202"/>
      <point x="140" y="360" type="curve"/>
      <point x="53" y="360"/>
      <point x="140" y="360"/>
      <point x="53" y="360" type="curve"/>
      <point x="53" y="156"/>
      <point x="124" y="-5"/>
      <point x="307" y="-5" type="curve"/>
      <point x="492" y="-5"/>
      <point x="562" y="159"/>
      <point x="562" y="365" type="curve"/>
      <point x="562" y="568"/>
      <point x="494" y="730"/>
      <point x="311" y="730" type="curve"/>
      <point x="126" y="730"/>
      <point x="53" y="565"/>
      <point x="53" y="360" type="curve"/>
      <point x="140" y="360"/>
      <point x="53" y="360"/>
    </contour>
  </outline>
</glyph>
<glyph name="S" format="1">
  <advance width="446"/>
  <unicode hex="0053"/>
  <outline>
    <contour>
      <point x="44" y="55" type="curve"/>
      <point x="90" y="18"/>
      <point x="140" y="-5"/>
      <point x="206" y="-5" type="curve"/>
      <point x="325" y="-5"/>
      <point x="405" y="64"/>
      <point x="405" y="182" type="curve"/>
      <point x="405" y="289"/>
      <point x="340" y="347"/>
      <point x="248" y="404" type="curve"/>
      <point x="184" y="444"/>
      <point x="134" y="486"/>
      <point x="134" y="550" type="curve"/>
      <point x="132" y="609"/>
      <point x="163" y="655"/>
      <point x="218" y="655" type="curve"/>
      <point x="263" y="655"/>
      <point x="304" y="628"/>
      <point x="329" y="607" type="curve"/>
      <point x="366" y="657"/>
      <point x="333" y="612"/>
      <point x="370" y="662" type="curve"/>
      <point x="325" y="700"/>
      <point x="281" y="721"/>
      <point x="220" y="721" type="curve"/>
      <point x="113" y="721"/>
      <point x="46" y="654"/>
      <point x="46" y="547" type="curve"/>
      <point x="46" y="447"/>
      <point x="108" y="392"/>
      <point x="193" y="340" type="curve"/>
      <point x="263" y="296"/>
      <point x="318" y="251"/>
      <point x="318" y="182" type="curve"/>
      <point x="318" y="121"/>
      <point x="274" y="67"/>
      <point x="210" y="67" type="curve"/>
      <point x="161" y="67"/>
      <point x="126" y="93"/>
      <point x="92" y="121" type="curve"/>
      <point x="48" y="61"/>
      <point x="88" y="115"/>
    </contour>
    <contour>
      <point x="221" y="801" type="move" name="top"/>
    </contour>
    <contour>
      <point x="240" y="-34" type="move" name="bottom"/>
    </contour>
  </outline>
</glyph>
<glyph name="T" format="1">
  <advance width="473"/>
  <unicode hex="0054"/>
  <outline>
    <contour>
      <point x="280" y="0" type="curve"/>
      <point x="280" y="237"/>
      <point x="280" y="473"/>
      <point x="280" y="710" type="curve"/>
      <point x="193" y="710"/>
      <point x="280" y="710"/>
      <point x="193" y="710" type="curve"/>
      <point x="192" y="473"/>
      <point x="193" y="237"/>
      <point x="193" y="0" type="curve"/>
      <point x="280" y="0"/>
      <point x="193" y="0"/>
    </contour>
    <contour>
      <point x="11" y="649" type="curve"/>
      <point x="161" y="649"/>
      <point x="312" y="649"/>
      <point x="462" y="649" type="curve"/>
      <point x="462" y="725"/>
      <point x="462" y="646"/>
      <point x="462" y="722" type="curve"/>
      <point x="312" y="722"/>
      <point x="161" y="722"/>
      <point x="11" y="722" type="curve"/>
      <point x="11" y="646"/>
      <point x="11" y="725"/>
    </contour>
    <contour>
      <point x="236" y="801" type="move" name="top"/>
    </contour>
    <contour>
      <point x="270" y="-37" type="move" name="bottom"/>
    </contour>
  </outline>
</glyph>
<glyph name="V" format="1">
  <advance width="521"/>
  <unicode hex="0056"/>
  <outline>
    <contour>
      <point x="421" y="722" type="curve"/>
      <point x="355" y="480"/>
      <point x="291" y="242"/>
      <point x="227" y="0" type="curve"/>
      <point x="317" y="0"/>
      <point x="218" y="0"/>
      <point x="308" y="0" type="curve"/>
      <point x="376" y="241"/>
      <point x="442" y="481"/>
      <point x="510" y="722" type="curve"/>
      <point x="421" y="722"/>
      <point x="510" y="722"/>
    </contour>
    <contour>
      <point x="9" y="722" type="curve"/>
      <point x="77" y="481"/>
      <point x="145" y="241"/>
      <point x="214" y="0" type="curve"/>
      <point x="304" y="0"/>
      <point x="207" y="0"/>
      <point x="297" y="0" type="curve"/>
      <point x="231" y="242"/>
      <point x="166" y="482"/>
      <point x="99" y="722" type="curve"/>
      <point x="9" y="722"/>
      <point x="99" y="722"/>
    </contour>
  </outline>
</glyph>
<glyph name="W" format="1">
  <advance width="680"/>
  <unicode hex="0057"/>
  <outline>
    <contour>
      <point x="235" y="0" type="curve"/>
      <point x="284" y="241"/>
      <point x="332" y="481"/>
      <point x="380" y="722" type="curve"/>
      <point x="306" y="722"/>
      <point x="381" y="722"/>
      <point x="306" y="722" type="curve"/>
      <point x="261" y="482"/>
      <point x="215" y="242"/>
      <point x="169" y="0" type="curve"/>
      <point x="239" y="0"/>
      <point x="164" y="0"/>
    </contour>
    <contour>
      <point x="312" y="722" type="curve"/>
      <point x="356" y="481"/>
      <point x="399" y="241"/>
      <point x="444" y="0" type="curve"/>
      <point x="514" y="0"/>
      <point x="437" y="0"/>
      <point x="507" y="0" type="curve"/>
      <point x="466" y="243"/>
      <point x="426" y="481"/>
      <point x="386" y="722" type="curve"/>
      <point x="311" y="722"/>
      <point x="386" y="722"/>
    </contour>
    <contour>
      <point x="27" y="722" type="curve"/>
      <point x="71" y="481"/>
      <point x="116" y="241"/>
      <point x="160" y="0" type="curve"/>
      <point x="231" y="0"/>
      <point x="160" y="0"/>
      <point x="231" y="0" type="curve"/>
      <point x="188" y="241"/>
      <point x="146" y="481"/>
      <point x="104" y="722" type="curve"/>
      <point x="27" y="722"/>
      <point x="104" y="722"/>
    </contour>
    <contour>
      <point x="580" y="722" type="curve"/>
      <point x="536" y="481"/>
      <point x="491" y="241"/>
      <point x="447" y="0" type="curve"/>
      <point x="518" y="0"/>
      <point x="448" y="0"/>
      <point x="518" y="0" type="curve"/>
      <point x="564" y="241"/>
      <point x="610" y="481"/>
      <point x="657" y="722" type="curve"/>
      <point x="580" y="722"/>
      <point x="657" y="722"/>
    </contour>
  </outline>
</glyph>
<glyph name="X" format="1">
  <advance width="477"/>
  <unicode hex="0058"/>
  <outline>
    <contour>
      <point x="368" y="722" type="curve"/>
      <point x="247" y="481"/>
      <point x="126" y="241"/>
      <point x="5" y="0" type="curve"/>
      <point x="94" y="0"/>
      <point x="5" y="0"/>
      <point x="94" y="0" type="curve"/>
      <point x="214" y="241"/>
      <point x="334" y="481"/>
      <point x="454" y="722" type="curve"/>
      <point x="368" y="722"/>
      <point x="454" y="722"/>
    </contour>
    <contour>
      <point x="24" y="722" type="curve"/>
      <point x="143" y="481"/>
      <point x="262" y="241"/>
      <point x="381" y="0" type="curve"/>
      <point x="469" y="0"/>
      <point x="381" y="0"/>
      <point x="469" y="0" type="curve"/>
      <point x="350" y="241"/>
      <point x="230" y="481"/>
      <point x="110" y="722" type="curve"/>
      <point x="24" y="722"/>
      <point x="110" y="722"/>
    </contour>
  </outline>
</glyph>
<glyph name="Y" format="1">
  <advance width="464"/>
  <unicode hex="0059"/>
  <outline>
    <contour>
      <point x="16" y="722" type="curve"/>
      <point x="74" y="594"/>
      <point x="129" y="467"/>
      <point x="185" y="337" type="curve"/>
      <point x="274" y="337"/>
      <point x="173" y="337"/>
      <point x="262" y="337" type="curve"/>
      <point x="210" y="468"/>
      <point x="160" y="592"/>
      <point x="106" y="722" type="curve"/>
      <point x="16" y="722"/>
      <point x="106" y="722"/>
    </contour>
    <contour>
      <point x="368" y="722" type="curve"/>
      <point x="310" y="591"/>
      <point x="256" y="467"/>
      <point x="197" y="337" type="curve"/>
      <point x="286" y="337"/>
      <point x="190" y="337"/>
      <point x="280" y="337" type="curve"/>
      <point x="339" y="467"/>
      <point x="397" y="594"/>
      <point x="458" y="722" type="curve"/>
      <point x="368" y="722"/>
      <point x="458" y="722"/>
    </contour>
    <contour>
      <point x="280" y="0" type="curve"/>
      <point x="280" y="115"/>
      <point x="280" y="226"/>
      <point x="280" y="341" type="curve"/>
      <point x="185" y="341"/>
      <point x="280" y="341"/>
      <point x="185" y="341" type="curve"/>
      <point x="185" y="226"/>
      <point x="185" y="115"/>
      <point x="185" y="0" type="curve"/>
      <point x="280" y="0"/>
      <point x="185" y="0"/>
    </contour>
    <contour>
      <point x="236" y="801" type="move" name="top"/>
    </contour>
  </outline>
</glyph>
<glyph name="bracketleft" format="1">
  <advance width="258"/>
  <unicode hex="005B"/>
  <outline>
    <contour>
      <point x="224" y="770" type="curve"/>
      <point x="187" y="770"/>
      <point x="150" y="770"/>
      <point x="113" y="770" type="curve"/>
      <point x="104" y="770"/>
      <point x="83" y="770"/>
      <point x="74" y="770" type="curve"/>
      <point x="74" y="760"/>
      <point x="74" y="748"/>
      <point x="74" y="738" type="curve"/>
      <point x="74" y="463"/>
      <point x="74" y="188"/>
      <point x="74" y="-88" type="curve"/>
      <point x="74" y="-98"/>
      <point x="74" y="-105"/>
      <point x="74" y="-118" type="curve"/>
      <point x="83" y="-118"/>
      <point x="103" y="-118"/>
      <point x="112" y="-118" type="curve"/>
      <point x="149" y="-118"/>
      <point x="187" y="-118"/>
      <point x="224" y="-118" type="curve"/>
      <point x="224" y="-42"/>
      <point x="224" y="-118"/>
      <point x="224" y="-42" type="curve"/>
      <point x="187" y="-42"/>
      <point x="149" y="-42"/>
      <point x="112" y="-42" type="curve"/>
      <point x="161" y="-42"/>
      <point x="112" y="-42"/>
      <point x="161" y="-42" type="curve"/>
      <point x="161" y="-88"/>
      <point x="161" y="-42"/>
      <point x="161" y="-88" type="curve"/>
      <point x="161" y="188"/>
      <point x="161" y="463"/>
      <point x="161" y="738" type="curve"/>
      <point x="161" y="694"/>
      <point x="161" y="738"/>
      <point x="161" y="694" type="curve"/>
      <point x="113" y="694"/>
      <point x="161" y="694"/>
      <point x="113" y="694" type="curve"/>
      <point x="150" y="694"/>
      <point x="187" y="694"/>
      <point x="224" y="694" type="curve"/>
      <point x="224" y="770"/>
      <point x="224" y="694"/>
    </contour>
  </outline>
</glyph>
<glyph name="backslash" format="1">
  <advance width="427"/>
  <unicode hex="005C"/>
  <outline>
    <contour>
      <point x="402" y="-68" type="curve"/>
      <point x="307" y="236"/>
      <point x="212" y="540"/>
      <point x="117" y="844" type="curve"/>
      <point x="26" y="844"/>
      <point x="117" y="844"/>
      <point x="26" y="844" type="curve"/>
      <point x="121" y="540"/>
      <point x="215" y="236"/>
      <point x="311" y="-68" type="curve"/>
      <point x="402" y="-68"/>
      <point x="311" y="-68"/>
    </contour>
  </outline>
</glyph>
<glyph name="bracketright" format="1">
  <advance width="258"/>
  <unicode hex="005D"/>
  <outline>
    <contour>
      <point x="34" y="694" type="curve"/>
      <point x="72" y="694"/>
      <point x="109" y="694"/>
      <point x="146" y="694" type="curve"/>
      <point x="138" y="702"/>
      <point x="125" y="704"/>
      <point x="118" y="712" type="curve"/>
      <point x="111" y="720"/>
      <point x="104" y="730"/>
      <point x="97" y="738" type="curve"/>
      <point x="97" y="463"/>
      <point x="96" y="188"/>
      <point x="97" y="-88" type="curve"/>
      <point x="104" y="-78"/>
      <point x="113" y="-70"/>
      <point x="121" y="-62" type="curve"/>
      <point x="127" y="-53"/>
      <point x="139" y="-51"/>
      <point x="146" y="-42" type="curve"/>
      <point x="109" y="-42"/>
      <point x="72" y="-42"/>
      <point x="34" y="-42" type="curve"/>
      <point x="34" y="-118"/>
      <point x="34" y="-42"/>
      <point x="34" y="-118" type="curve"/>
      <point x="72" y="-118"/>
      <point x="109" y="-118"/>
      <point x="146" y="-118" type="curve"/>
      <point x="185" y="-118"/>
      <point x="146" y="-118"/>
      <point x="185" y="-118" type="curve"/>
      <point x="185" y="-88"/>
      <point x="185" y="-118"/>
      <point x="185" y="-88" type="curve"/>
      <point x="184" y="188"/>
      <point x="185" y="463"/>
      <point x="185" y="738" type="curve"/>
      <point x="185" y="770"/>
      <point x="185" y="738"/>
      <point x="185" y="770" type="curve"/>
      <point x="146" y="770"/>
      <point x="185" y="770"/>
      <point x="146" y="770" type="curve"/>
      <point x="109" y="770"/>
      <point x="72" y="770"/>
      <point x="34" y="770" type="curve"/>
      <point x="34" y="694"/>
      <point x="34" y="770"/>
    </contour>
  </outline>
</glyph>
<glyph name="asciicircum" format="1">
  <advance width="430"/>
  <unicode hex="005E"/>
  <outline>
    <contour>
      <point x="131" y="459" type="curve"/>
      <point x="173" y="567"/>
      <point x="216" y="673"/>
      <point x="258" y="780" type="curve"/>
      <point x="171" y="780"/>
      <point x="258" y="780"/>
      <point x="171" y="780" type="curve"/>
      <point x="128" y="673"/>
      <point x="86" y="567"/>
      <point x="44" y="459" type="curve"/>
      <point x="131" y="459"/>
      <point x="44" y="459"/>
    </contour>
    <contour>
      <point x="386" y="459" type="curve"/>
      <point x="344" y="564"/>
      <point x="300" y="675"/>
      <point x="258" y="780" type="curve"/>
      <point x="171" y="780"/>
      <point x="258" y="780"/>
      <point x="171" y="780" type="curve"/>
      <point x="212" y="675"/>
      <point x="257" y="564"/>
      <point x="298" y="459" type="curve"/>
      <point x="386" y="459"/>
      <point x="298" y="459"/>
    </contour>
  </outline>
</glyph>
<glyph name="grave" format="1">
  <advance width="313"/>
  <unicode hex="0060"/>
  <outline>
    <contour>
      <point x="249" y="591" type="line"/>
      <point x="174" y="757" type="line"/>
      <point x="66" y="757" type="line"/>
      <point x="166" y="591" type="line"/>
    </contour>
    <contour>
      <point x="207" y="590" type="move" name="_top"/>
    </contour>
  </outline>
</glyph>
<glyph name="b" format="1">
  <advance width="521"/>
  <unicode hex="0062"/>
  <outline>
    <contour>
      <point x="147" y="375" type="curve"/>
      <point x="166" y="413"/>
      <point x="211" y="467"/>
      <point x="274" y="467" type="curve"/>
      <point x="362" y="467"/>
      <point x="386" y="371"/>
      <point x="386" y="265" type="curve"/>
      <point x="386" y="163"/>
      <point x="358" y="66"/>
      <point x="275" y="66" type="curve"/>
      <point x="222" y="66"/>
      <point x="181" y="102"/>
      <point x="152" y="151" type="curve"/>
      <point x="106" y="119"/>
      <point x="154" y="149"/>
      <point x="108" y="117" type="curve"/>
      <point x="146" y="48"/>
      <point x="199" y="-5"/>
      <point x="283" y="-5" type="curve"/>
      <point x="414" y="-5"/>
      <point x="473" y="117"/>
      <point x="473" y="268" type="curve"/>
      <point x="473" y="417"/>
      <point x="416" y="538"/>
      <point x="284" y="538" type="curve"/>
      <point x="196" y="538"/>
      <point x="138" y="471"/>
      <point x="109" y="411" type="curve"/>
      <point x="147" y="378"/>
      <point x="109" y="408"/>
    </contour>
    <contour>
      <point x="167" y="0" type="curve"/>
      <point x="167" y="267"/>
      <point x="167" y="533"/>
      <point x="167" y="800" type="curve"/>
      <point x="79" y="800"/>
      <point x="167" y="800"/>
      <point x="79" y="800" type="curve"/>
      <point x="79" y="533"/>
      <point x="79" y="267"/>
      <point x="79" y="0" type="curve"/>
      <point x="167" y="0"/>
      <point x="79" y="0"/>
    </contour>
  </outline>
</glyph>
<glyph name="f" format="1">
  <advance width="338"/>
  <unicode hex="0066"/>
  <outline>
    <contour>
      <point x="22" y="464" type="curve"/>
      <point x="315" y="464" type="line"/>
      <point x="315" y="533"/>
      <point x="315" y="464"/>
      <point x="315" y="533" type="curve"/>
      <point x="22" y="533" type="line"/>
      <point x="22" y="464"/>
      <point x="22" y="533"/>
    </contour>
    <contour>
      <point x="201" y="0" type="curve"/>
      <point x="201" y="621" type="line"/>
      <point x="201" y="683"/>
      <point x="208" y="739"/>
      <point x="262" y="739" type="curve"/>
      <point x="283" y="739"/>
      <point x="301" y="729"/>
      <point x="319" y="718" type="curve"/>
      <point x="354" y="773"/>
      <point x="319" y="718"/>
      <point x="354" y="773" type="curve"/>
      <point x="327" y="791"/>
      <point x="295" y="805"/>
      <point x="262" y="805" type="curve"/>
      <point x="162" y="805"/>
      <point x="112" y="726"/>
      <point x="113" y="621" type="curve"/>
      <point x="113" y="0" type="line"/>
      <point x="201" y="0"/>
      <point x="113" y="0"/>
    </contour>
  </outline>
</glyph>
<glyph name="g" format="1">
  <advance width="435"/>
  <unicode hex="0067"/>
  <outline>
    <contour>
      <point x="305" y="461" type="curve"/>
      <point x="413" y="528" type="line"/>
      <point x="406" y="537"/>
      <point x="382" y="582"/>
      <point x="375" y="591" type="curve"/>
      <point x="257" y="515" type="line"/>
      <point x="305" y="461"/>
      <point x="257" y="515"/>
    </contour>
    <contour>
      <point x="133" y="346" type="curve"/>
      <point x="133" y="411"/>
      <point x="158" y="469"/>
      <point x="217" y="469" type="curve"/>
      <point x="277" y="469"/>
      <point x="298" y="412"/>
      <point x="298" y="347" type="curve"/>
      <point x="298" y="286"/>
      <point x="275" y="231"/>
      <point x="217" y="231" type="curve"/>
      <point x="161" y="231"/>
      <point x="133" y="283"/>
      <point x="133" y="346" type="curve"/>
      <point x="46" y="343"/>
      <point x="133" y="346"/>
      <point x="46" y="343" type="curve"/>
      <point x="46" y="238"/>
      <point x="110" y="163"/>
      <point x="213" y="163" type="curve"/>
      <point x="319" y="163"/>
      <point x="385" y="240"/>
      <point x="385" y="350" type="curve"/>
      <point x="385" y="458"/>
      <point x="322" y="537"/>
      <point x="217" y="537" type="curve"/>
      <point x="109" y="537"/>
      <point x="46" y="455"/>
      <point x="46" y="343" type="curve"/>
      <point x="133" y="346"/>
      <point x="46" y="343"/>
    </contour>
    <contour>
      <point x="123" y="238" type="curve"/>
      <point x="77" y="205"/>
      <point x="49" y="167"/>
      <point x="49" y="111" type="curve"/>
      <point x="49" y="27"/>
      <point x="117" y="-15"/>
      <point x="205" y="-24" type="curve"/>
      <point x="280" y="-32"/>
      <point x="342" y="-59"/>
      <point x="342" y="-131" type="curve"/>
      <point x="342" y="-199"/>
      <point x="287" y="-236"/>
      <point x="215" y="-236" type="curve"/>
      <point x="147" y="-236"/>
      <point x="101" y="-188"/>
      <point x="101" y="-118" type="curve"/>
      <point x="101" y="-64"/>
      <point x="118" y="-18"/>
      <point x="164" y="7" type="curve"/>
      <point x="121" y="49"/>
      <point x="164" y="7"/>
      <point x="121" y="49" type="curve"/>
      <point x="53" y="13"/>
      <point x="14" y="-42"/>
      <point x="14" y="-121" type="curve"/>
      <point x="14" y="-235"/>
      <point x="96" y="-305"/>
      <point x="212" y="-305" type="curve"/>
      <point x="331" y="-305"/>
      <point x="423" y="-239"/>
      <point x="422" y="-124" type="curve"/>
      <point x="422" y="-18"/>
      <point x="332" y="30"/>
      <point x="221" y="42" type="curve"/>
      <point x="173" y="46"/>
      <point x="136" y="71"/>
      <point x="136" y="118" type="curve"/>
      <point x="136" y="150"/>
      <point x="144" y="172"/>
      <point x="169" y="193" type="curve"/>
      <point x="123" y="238"/>
      <point x="169" y="193"/>
    </contour>
    <contour>
      <point x="216" y="639" type="move" name="top"/>
    </contour>
  </outline>
</glyph>
<glyph name="h" format="1">
  <advance width="510"/>
  <unicode hex="0068"/>
  <outline>
    <contour>
      <point x="147" y="325" type="curve"/>
      <point x="163" y="392"/>
      <point x="204" y="467"/>
      <point x="270" y="467" type="curve"/>
      <point x="341" y="467"/>
      <point x="350" y="402"/>
      <point x="350" y="323" type="curve"/>
      <point x="350" y="216"/>
      <point x="350" y="108"/>
      <point x="350" y="0" type="curve"/>
      <point x="437" y="0"/>
      <point x="350" y="0"/>
      <point x="437" y="0" type="curve"/>
      <point x="437" y="110"/>
      <point x="437" y="220"/>
      <point x="437" y="331" type="curve"/>
      <point x="437" y="449"/>
      <point x="406" y="535"/>
      <point x="294" y="535" type="curve"/>
      <point x="206" y="535"/>
      <point x="139" y="454"/>
      <point x="122" y="363" type="curve"/>
      <point x="148" y="327"/>
      <point x="121" y="361"/>
    </contour>
    <contour>
      <point x="167" y="0" type="curve"/>
      <point x="167" y="267"/>
      <point x="167" y="533"/>
      <point x="167" y="800" type="curve"/>
      <point x="79" y="800"/>
      <point x="167" y="800"/>
      <point x="79" y="800" type="curve"/>
      <point x="79" y="533"/>
      <point x="79" y="267"/>
      <point x="79" y="0" type="curve"/>
      <point x="167" y="0"/>
      <point x="79" y="0"/>
    </contour>
  </outline>
</glyph>
<glyph name="i" format="1">
  <advance width="246"/>
  <unicode hex="0069"/>
  <outline>
    <contour>
      <point x="169" y="0" type="curve"/>
      <point x="169" y="178"/>
      <point x="169" y="355"/>
      <point x="169" y="533" type="curve"/>
      <point x="77" y="533"/>
      <point x="169" y="533"/>
      <point x="77" y="533" type="curve"/>
      <point x="77" y="355"/>
      <point x="77" y="178"/>
      <point x="77" y="0" type="curve"/>
      <point x="169" y="0"/>
      <point x="77" y="0"/>
    </contour>
    <contour>
      <point x="169" y="682" type="curve"/>
      <point x="169" y="713"/>
      <point x="148" y="729"/>
      <point x="120" y="729" type="curve"/>
      <point x="91" y="729"/>
      <point x="72" y="712"/>
      <point x="72" y="682" type="curve"/>
      <point x="169" y="682"/>
      <point x="72" y="682"/>
      <point x="169" y="682" type="curve"/>
      <point x="169" y="651"/>
      <point x="149" y="636"/>
      <point x="120" y="636" type="curve"/>
      <point x="90" y="636"/>
      <point x="72" y="652"/>
      <point x="72" y="682" type="curve"/>
      <point x="169" y="682"/>
      <point x="72" y="682"/>
    </contour>
    <contour>
      <point x="120" y="639" type="move" name="top"/>
    </contour>
    <contour>
      <point x="163" y="2" type="move" name="bottom"/>
    </contour>
  </outline>
</glyph>
<glyph name="j" format="1">
  <advance width="224"/>
  <unicode hex="006A"/>
  <outline>
    <contour>
      <point x="-16" y="-303" type="curve"/>
      <point x="-9" y="-304"/>
      <point x="1" y="-305"/>
      <point x="10" y="-305" type="curve"/>
      <point x="104" y="-305"/>
      <point x="162" y="-229"/>
      <point x="162" y="-130" type="curve"/>
      <point x="162" y="91"/>
      <point x="162" y="312"/>
      <point x="162" y="534" type="curve"/>
      <point x="75" y="534"/>
      <point x="162" y="534"/>
      <point x="75" y="534" type="curve"/>
      <point x="75" y="312"/>
      <point x="75" y="91"/>
      <point x="75" y="-130" type="curve"/>
      <point x="75" y="-182"/>
      <point x="60" y="-237"/>
      <point x="13" y="-237" type="curve"/>
      <point x="8" y="-237"/>
      <point x="3" y="-236"/>
      <point x="-3" y="-235" type="curve"/>
      <point x="-15" y="-301"/>
      <point x="-3" y="-237"/>
    </contour>
    <contour>
      <point x="166" y="678" type="curve"/>
      <point x="166" y="710"/>
      <point x="145" y="726"/>
      <point x="117" y="726" type="curve"/>
      <point x="88" y="726"/>
      <point x="70" y="708"/>
      <point x="70" y="678" type="curve"/>
      <point x="166" y="678"/>
      <point x="70" y="678"/>
      <point x="166" y="678" type="curve"/>
      <point x="166" y="647"/>
      <point x="146" y="632"/>
      <point x="117" y="632" type="curve"/>
      <point x="87" y="632"/>
      <point x="70" y="648"/>
      <point x="70" y="678" type="curve"/>
      <point x="166" y="678"/>
      <point x="70" y="678"/>
    </contour>
  </outline>
</glyph>
<glyph name="k" format="1">
  <advance width="472"/>
  <unicode hex="006B"/>
  <outline>
    <contour>
      <point x="167" y="0" type="curve"/>
      <point x="167" y="800" type="line"/>
      <point x="79" y="800"/>
      <point x="167" y="800"/>
      <point x="79" y="800" type="curve"/>
      <point x="79" y="533"/>
      <point x="79" y="267"/>
      <point x="79" y="0" type="curve"/>
      <point x="167" y="0"/>
      <point x="79" y="0"/>
    </contour>
    <contour>
      <point x="332" y="533" type="curve"/>
      <point x="148" y="275" type="line"/>
      <point x="237" y="275"/>
      <point x="156" y="275"/>
      <point x="245" y="275" type="curve"/>
      <point x="433" y="533" type="line"/>
      <point x="355" y="533"/>
      <point x="410" y="533"/>
    </contour>
    <contour>
      <point x="451" y="0" type="curve"/>
      <point x="245" y="275" type="line"/>
      <point x="156" y="275"/>
      <point x="237" y="275"/>
      <point x="148" y="275" type="curve"/>
      <point x="351" y="0" type="line"/>
      <point x="423" y="0"/>
      <point x="379" y="0"/>
    </contour>
    <contour>
      <point x="305" y="-37" type="move" name="bottom"/>
    </contour>
  </outline>
</glyph>
<glyph name="m" format="1">
  <advance width="723"/>
  <unicode hex="006D"/>
  <outline>
    <contour>
      <point x="388" y="310" type="curve"/>
      <point x="408" y="386"/>
      <point x="432" y="467"/>
      <point x="495" y="467" type="curve"/>
      <point x="567" y="467"/>
      <point x="562" y="406"/>
      <point x="562" y="323" type="curve"/>
      <point x="562" y="216"/>
      <point x="562" y="108"/>
      <point x="562" y="0" type="curve"/>
      <point x="649" y="0"/>
      <point x="562" y="0"/>
      <point x="649" y="0" type="curve"/>
      <point x="649" y="110"/>
      <point x="649" y="220"/>
      <point x="649" y="331" type="curve"/>
      <point x="649" y="454"/>
      <point x="639" y="538"/>
      <point x="525" y="538" type="curve"/>
      <point x="434" y="538"/>
      <point x="386" y="454"/>
      <point x="363" y="350" type="curve"/>
      <point x="391" y="311"/>
      <point x="361" y="348"/>
    </contour>
    <contour>
      <point x="147" y="310" type="curve"/>
      <point x="164" y="384"/>
      <point x="188" y="467"/>
      <point x="254" y="467" type="curve"/>
      <point x="325" y="467"/>
      <point x="321" y="406"/>
      <point x="321" y="323" type="curve"/>
      <point x="321" y="216"/>
      <point x="321" y="108"/>
      <point x="321" y="0" type="curve"/>
      <point x="408" y="0"/>
      <point x="321" y="0"/>
      <point x="408" y="0" type="curve"/>
      <point x="408" y="110"/>
      <point x="408" y="220"/>
      <point x="408" y="331" type="curve"/>
      <point x="408" y="454"/>
      <point x="398" y="538"/>
      <point x="284" y="538" type="curve"/>
      <point x="191" y="538"/>
      <point x="145" y="455"/>
      <point x="122" y="350" type="curve"/>
      <point x="150" y="311"/>
      <point x="120" y="348"/>
    </contour>
    <contour>
      <point x="167" y="0" type="curve"/>
      <point x="167" y="178"/>
      <point x="167" y="355"/>
      <point x="167" y="533" type="curve"/>
      <point x="79" y="533"/>
      <point x="167" y="533"/>
      <point x="79" y="533" type="curve"/>
      <point x="79" y="355"/>
      <point x="79" y="178"/>
      <point x="79" y="0" type="curve"/>
      <point x="167" y="0"/>
      <point x="79" y="0"/>
    </contour>
  </outline>
</glyph>
<glyph name="n" format="1">
  <advance width="510"/>
  <unicode hex="006E"/>
  <outline>
    <contour>
      <point x="149" y="299" type="curve"/>
      <point x="160" y="387"/>
      <point x="206" y="467"/>
      <point x="268" y="467" type="curve"/>
      <point x="336" y="467"/>
      <point x="349" y="403"/>
      <point x="349" y="323" type="curve"/>
      <point x="349" y="216"/>
      <point x="349" y="108"/>
      <point x="349" y="0" type="curve"/>
      <point x="437" y="0"/>
      <point x="349" y="0"/>
      <point x="437" y="0" type="curve"/>
      <point x="437" y="110"/>
      <point x="437" y="220"/>
      <point x="437" y="331" type="curve"/>
      <point x="437" y="449"/>
      <point x="408" y="538"/>
      <point x="298" y="538" type="curve"/>
      <point x="208" y="538"/>
      <point x="139" y="461"/>
      <point x="122" y="341" type="curve"/>
      <point x="150" y="301"/>
      <point x="120" y="338"/>
    </contour>
    <contour>
      <point x="167" y="0" type="curve"/>
      <point x="167" y="178"/>
      <point x="167" y="355"/>
      <point x="167" y="533" type="curve"/>
      <point x="79" y="533"/>
      <point x="167" y="533"/>
      <point x="79" y="533" type="curve"/>
      <point x="79" y="355"/>
      <point x="79" y="178"/>
      <point x="79" y="0" type="curve"/>
      <point x="167" y="0"/>
      <point x="79" y="0"/>
    </contour>
    <contour>
      <point x="262" y="639" type="move" name="top"/>
    </contour>
    <contour>
      <point x="294" y="-35" type="move" name="bottom"/>
    </contour>
  </outline>
</glyph>
<glyph name="p" format="1">
  <advance width="525"/>
  <unicode hex="0070"/>
  <outline>
    <contour>
      <point x="148" y="347" type="curve"/>
      <point x="164" y="402"/>
      <point x="213" y="468"/>
      <point x="272" y="468" type="curve"/>
      <point x="371" y="468"/>
      <point x="390" y="373"/>
      <point x="390" y="268" type="curve"/>
      <point x="392" y="160"/>
      <point x="369" y="64"/>
      <point x="274" y="64" type="curve"/>
      <point x="218" y="64"/>
      <point x="181" y="97"/>
      <point x="151" y="143" type="curve"/>
      <point x="117" y="106"/>
      <point x="151" y="143"/>
      <point x="117" y="106" type="curve"/>
      <point x="160" y="37"/>
      <point x="212" y="-5"/>
      <point x="290" y="-5" type="curve"/>
      <point x="434" y="-5"/>
      <point x="477" y="123"/>
      <point x="477" y="272" type="curve"/>
      <point x="477" y="415"/>
      <point x="432" y="539"/>
      <point x="291" y="539" type="curve"/>
      <point x="210" y="539"/>
      <point x="150" y="471"/>
      <point x="122" y="406" type="curve"/>
      <point x="148" y="348"/>
      <point x="122" y="405"/>
    </contour>
    <contour>
      <point x="167" y="-300" type="curve"/>
      <point x="167" y="-22"/>
      <point x="167" y="255"/>
      <point x="167" y="533" type="curve"/>
      <point x="79" y="533"/>
      <point x="167" y="533"/>
      <point x="79" y="533" type="curve"/>
      <point x="79" y="255"/>
      <point x="79" y="-22"/>
      <point x="79" y="-300" type="curve"/>
      <point x="167" y="-300"/>
      <point x="79" y="-300"/>
    </contour>
  </outline>
</glyph>
<glyph name="q" format="1">
  <advance width="527"/>
  <unicode hex="0071"/>
  <outline>
    <contour>
      <point x="406" y="413" type="curve"/>
      <point x="372" y="491"/>
      <point x="307" y="538"/>
      <point x="235" y="538" type="curve"/>
      <point x="92" y="538"/>
      <point x="47" y="412"/>
      <point x="48" y="265" type="curve"/>
      <point x="48" y="117"/>
      <point x="98" y="-5"/>
      <point x="239" y="-5" type="curve"/>
      <point x="313" y="-5"/>
      <point x="373" y="54"/>
      <point x="405" y="123" type="curve"/>
      <point x="376" y="161"/>
      <point x="405" y="125"/>
      <point x="376" y="163" type="curve"/>
      <point x="352" y="110"/>
      <point x="307" y="63"/>
      <point x="252" y="63" type="curve"/>
      <point x="158" y="63"/>
      <point x="136" y="161"/>
      <point x="136" y="268" type="curve"/>
      <point x="136" y="372"/>
      <point x="158" y="467"/>
      <point x="249" y="467" type="curve"/>
      <point x="300" y="467"/>
      <point x="345" y="439"/>
      <point x="380" y="372" type="curve"/>
      <point x="401" y="413"/>
      <point x="385" y="372"/>
    </contour>
    <contour>
      <point x="447" y="-300" type="curve"/>
      <point x="447" y="-22"/>
      <point x="447" y="255"/>
      <point x="447" y="533" type="curve"/>
      <point x="356" y="533"/>
      <point x="447" y="533"/>
      <point x="356" y="533" type="curve"/>
      <point x="356" y="255"/>
      <point x="356" y="-22"/>
      <point x="356" y="-300" type="curve"/>
      <point x="447" y="-300"/>
      <point x="356" y="-300"/>
    </contour>
  </outline>
</glyph>
<glyph name="r" format="1">
  <advance width="321"/>
  <unicode hex="0072"/>
  <outline>
    <contour>
      <point x="167" y="0" type="curve"/>
      <point x="167" y="178"/>
      <point x="167" y="355"/>
      <point x="167" y="533" type="curve"/>
      <point x="79" y="533"/>
      <point x="167" y="533"/>
      <point x="79" y="533" type="curve"/>
      <point x="79" y="355"/>
      <point x="79" y="178"/>
      <point x="79" y="0" type="curve"/>
      <point x="167" y="0"/>
      <point x="79" y="0"/>
    </contour>
    <contour>
      <point x="148" y="325" type="curve"/>
      <point x="172" y="426"/>
      <point x="237" y="467"/>
      <point x="310" y="467" type="curve"/>
      <point x="310" y="540"/>
      <point x="310" y="464"/>
      <point x="310" y="538" type="curve"/>
      <point x="217" y="538"/>
      <point x="144" y="464"/>
      <point x="115" y="363" type="curve"/>
      <point x="147" y="328"/>
      <point x="118" y="358"/>
    </contour>
    <contour>
      <point x="130" y="639" type="move" name="top"/>
    </contour>
    <contour>
      <point x="158" y="-36" type="move" name="bottom"/>
    </contour>
  </outline>
</glyph>
<glyph name="s" format="1">
  <advance width="387"/>
  <unicode hex="0073"/>
  <outline>
    <contour>
      <point x="38" y="48" type="curve"/>
      <point x="87" y="16"/>
      <point x="137" y="-5"/>
      <point x="193" y="-5" type="curve"/>
      <point x="292" y="-5"/>
      <point x="351" y="51"/>
      <point x="351" y="147" type="curve"/>
      <point x="350" y="238"/>
      <point x="290" y="276"/>
      <point x="204" y="309" type="curve" smooth="yes"/>
      <point x="158" y="328"/>
      <point x="130" y="356"/>
      <point x="130" y="403" type="curve"/>
      <point x="130" y="438"/>
      <point x="150" y="467"/>
      <point x="188" y="467" type="curve"/>
      <point x="221" y="467"/>
      <point x="253" y="451"/>
      <point x="277" y="430" type="curve"/>
      <point x="313" y="487"/>
      <point x="280" y="436"/>
      <point x="316" y="493" type="curve"/>
      <point x="284" y="518"/>
      <point x="237" y="538"/>
      <point x="190" y="538" type="curve"/>
      <point x="104" y="538"/>
      <point x="51" y="487"/>
      <point x="51" y="403" type="curve"/>
      <point x="51" y="319"/>
      <point x="97" y="275"/>
      <point x="176" y="244" type="curve" smooth="yes"/>
      <point x="228" y="223"/>
      <point x="267" y="198"/>
      <point x="266" y="143" type="curve"/>
      <point x="266" y="99"/>
      <point x="241" y="69"/>
      <point x="199" y="69" type="curve"/>
      <point x="155" y="69"/>
      <point x="119" y="85"/>
      <point x="82" y="109" type="curve"/>
      <point x="38" y="48"/>
      <point x="82" y="109"/>
    </contour>
    <contour>
      <point x="194" y="639" type="move" name="top"/>
    </contour>
    <contour>
      <point x="220" y="-36" type="move" name="bottom"/>
    </contour>
  </outline>
</glyph>
<glyph name="t" format="1">
  <advance width="319"/>
  <unicode hex="0074"/>
  <outline>
    <contour>
      <point x="22" y="463" type="curve"/>
      <point x="306" y="463" type="line"/>
      <point x="306" y="532"/>
      <point x="306" y="463"/>
      <point x="306" y="532" type="curve"/>
      <point x="22" y="532" type="line"/>
      <point x="22" y="463"/>
      <point x="22" y="532"/>
    </contour>
    <contour>
      <point x="274" y="88" type="curve"/>
      <point x="258" y="75"/>
      <point x="245" y="67"/>
      <point x="225" y="67" type="curve"/>
      <point x="182" y="67"/>
      <point x="177" y="108"/>
      <point x="177" y="161" type="curve"/>
      <point x="177" y="680" type="line"/>
      <point x="101" y="633"/>
      <point x="166" y="669"/>
      <point x="90" y="621" type="curve"/>
      <point x="90" y="157" type="line"/>
      <point x="90" y="58"/>
      <point x="125" y="-6"/>
      <point x="213" y="-6" type="curve"/>
      <point x="251" y="-6"/>
      <point x="278" y="7"/>
      <point x="311" y="28" type="curve"/>
      <point x="274" y="88"/>
      <point x="311" y="28"/>
    </contour>
    <contour>
      <point x="239" y="-34" type="move" name="bottom"/>
    </contour>
  </outline>
</glyph>
<glyph name="v" format="1">
  <advance width="450"/>
  <unicode hex="0076"/>
  <outline>
    <contour>
      <point x="22" y="533" type="curve"/>
      <point x="72" y="355"/>
      <point x="123" y="178"/>
      <point x="173" y="0" type="curve"/>
      <point x="255" y="0"/>
      <point x="173" y="0"/>
      <point x="255" y="0" type="curve"/>
      <point x="205" y="177"/>
      <point x="161" y="356"/>
      <point x="112" y="533" type="curve"/>
      <point x="22" y="533"/>
      <point x="112" y="533"/>
    </contour>
    <contour>
      <point x="345" y="533" type="curve"/>
      <point x="192" y="0" type="line"/>
      <point x="275" y="0"/>
      <point x="192" y="0"/>
      <point x="275" y="0" type="curve"/>
      <point x="328" y="178"/>
      <point x="381" y="355"/>
      <point x="434" y="533" type="curve"/>
      <point x="345" y="533"/>
      <point x="434" y="533"/>
    </contour>
  </outline>
</glyph>
<glyph name="w" format="1">
  <advance width="673"/>
  <unicode hex="0077"/>
  <outline>
    <contour>
      <point x="232" y="0" type="curve"/>
      <point x="281" y="178"/>
      <point x="330" y="355"/>
      <point x="379" y="533" type="curve"/>
      <point x="301" y="533"/>
      <point x="379" y="533"/>
      <point x="301" y="533" type="curve"/>
      <point x="253" y="355"/>
      <point x="205" y="178"/>
      <point x="156" y="0" type="curve"/>
      <point x="232" y="0"/>
      <point x="156" y="0"/>
    </contour>
    <contour>
      <point x="575" y="533" type="curve"/>
      <point x="530" y="355"/>
      <point x="485" y="178"/>
      <point x="440" y="0" type="curve"/>
      <point x="515" y="0"/>
      <point x="440" y="0"/>
      <point x="515" y="0" type="curve"/>
      <point x="561" y="178"/>
      <point x="607" y="355"/>
      <point x="654" y="533" type="curve"/>
      <point x="575" y="533"/>
      <point x="654" y="533"/>
    </contour>
    <contour>
      <point x="306" y="533" type="curve"/>
      <point x="350" y="355"/>
      <point x="395" y="178"/>
      <point x="439" y="0" type="curve"/>
      <point x="514" y="0"/>
      <point x="439" y="0"/>
      <point x="514" y="0" type="curve"/>
      <point x="471" y="178"/>
      <point x="427" y="355"/>
      <point x="383" y="533" type="curve"/>
      <point x="306" y="533"/>
      <point x="383" y="533"/>
    </contour>
    <contour>
      <point x="23" y="533" type="curve"/>
      <point x="67" y="355"/>
      <point x="112" y="178"/>
      <point x="156" y="0" type="curve"/>
      <point x="231" y="0"/>
      <point x="156" y="0"/>
      <point x="231" y="0" type="curve"/>
      <point x="187" y="178"/>
      <point x="144" y="355"/>
      <point x="100" y="533" type="curve"/>
      <point x="23" y="533"/>
      <point x="100" y="533"/>
    </contour>
  </outline>
</glyph>
<glyph name="x" format="1">
  <advance width="445"/>
  <unicode hex="0078"/>
  <outline>
    <contour>
      <point x="432" y="0" type="curve"/>
      <point x="386" y="83"/>
      <point x="155" y="450"/>
      <point x="109" y="533" type="curve"/>
      <point x="18" y="533"/>
      <point x="109" y="533"/>
      <point x="18" y="533" type="curve"/>
      <point x="64" y="450"/>
      <point x="294" y="83"/>
      <point x="339" y="0" type="curve"/>
      <point x="432" y="0"/>
      <point x="339" y="0"/>
    </contour>
    <contour>
      <point x="339" y="533" type="curve"/>
      <point x="293" y="450"/>
      <point x="59" y="83"/>
      <point x="13" y="0" type="curve"/>
      <point x="104" y="0"/>
      <point x="13" y="0"/>
      <point x="104" y="0" type="curve"/>
      <point x="150" y="83"/>
      <point x="382" y="450"/>
      <point x="428" y="533" type="curve"/>
      <point x="339" y="533"/>
      <point x="428" y="533"/>
    </contour>
  </outline>
</glyph>
<glyph name="y" format="1">
  <advance width="473"/>
  <unicode hex="0079"/>
  <outline>
    <contour>
      <point x="277" y="-9" type="curve"/>
      <point x="245" y="89"/>
      <point x="139" y="434"/>
      <point x="107" y="533" type="curve"/>
      <point x="16" y="533"/>
      <point x="107" y="533"/>
      <point x="16" y="533" type="curve"/>
      <point x="51" y="435"/>
      <point x="161" y="85"/>
      <point x="196" y="-13" type="curve"/>
      <point x="277" y="-13"/>
      <point x="196" y="-9"/>
    </contour>
    <contour>
      <point x="179" y="-300" type="curve"/>
      <point x="233" y="-152"/>
      <point x="411" y="385"/>
      <point x="465" y="533" type="curve"/>
      <point x="375" y="533"/>
      <point x="465" y="533"/>
      <point x="375" y="533" type="curve"/>
      <point x="321" y="385"/>
      <point x="142" y="-152"/>
      <point x="89" y="-300" type="curve"/>
      <point x="179" y="-300"/>
      <point x="89" y="-300"/>
    </contour>
    <contour>
      <point x="247" y="639" type="move" name="top"/>
    </contour>
  </outline>
</glyph>
<glyph name="z" format="1">
  <advance width="418"/>
  <unicode hex="007A"/>
  <outline>
    <contour>
      <point x="46" y="464" type="curve"/>
      <point x="145" y="464"/>
      <point x="240" y="464"/>
      <point x="339" y="464" type="curve"/>
      <point x="332" y="471"/>
      <point x="320" y="471"/>
      <point x="313" y="478" type="curve"/>
      <point x="307" y="483"/>
      <point x="308" y="494"/>
      <point x="301" y="500" type="curve"/>
      <point x="296" y="492"/>
      <point x="285" y="496"/>
      <point x="280" y="490" type="curve"/>
      <point x="33" y="69" type="line"/>
      <point x="33" y="33"/>
      <point x="33" y="69"/>
      <point x="33" y="33" type="curve"/>
      <point x="33" y="0"/>
      <point x="33" y="33"/>
      <point x="33" y="0" type="curve"/>
      <point x="64" y="0"/>
      <point x="33" y="0"/>
      <point x="64" y="0" type="curve"/>
      <point x="385" y="0"/>
      <point x="277" y="0"/>
      <point x="384" y="0" type="curve"/>
      <point x="384" y="69"/>
      <point x="384" y="0"/>
      <point x="384" y="69" type="curve"/>
      <point x="277" y="69"/>
      <point x="171" y="69"/>
      <point x="64" y="69" type="curve"/>
      <point x="71" y="64"/>
      <point x="81" y="63"/>
      <point x="87" y="58" type="curve"/>
      <point x="94" y="52"/>
      <point x="94" y="40"/>
      <point x="101" y="33" type="curve"/>
      <point x="106" y="40"/>
      <point x="109" y="37"/>
      <point x="114" y="43" type="curve"/>
      <point x="365" y="464" type="line"/>
      <point x="365" y="500"/>
      <point x="365" y="464"/>
      <point x="365" y="500" type="curve"/>
      <point x="365" y="533"/>
      <point x="365" y="500"/>
      <point x="365" y="533" type="curve"/>
      <point x="339" y="533"/>
      <point x="365" y="533"/>
      <point x="339" y="533" type="curve"/>
      <point x="240" y="533"/>
      <point x="145" y="533"/>
      <point x="46" y="533" type="curve"/>
      <point x="46" y="464"/>
      <point x="46" y="533"/>
    </contour>
    <contour>
      <point x="212" y="639" type="move" name="top"/>
    </contour>
  </outline>
</glyph>
<glyph name="braceleft" format="1">
  <advance width="227"/>
  <unicode hex="007B"/>
  <outline>
    <contour>
      <point x="192" y="-47" type="curve"/>
      <point x="149" y="-47"/>
      <point x="148" y="-2"/>
      <point x="148" y="47" type="curve"/>
      <point x="148" y="102"/>
      <point x="148" y="157"/>
      <point x="148" y="212" type="curve"/>
      <point x="148" y="304"/>
      <point x="110" y="376"/>
      <point x="24" y="376" type="curve"/>
      <point x="24" y="304"/>
      <point x="24" y="376"/>
      <point x="24" y="304" type="curve"/>
      <point x="63" y="304"/>
      <point x="68" y="264"/>
      <point x="68" y="218" type="curve"/>
      <point x="68" y="162"/>
      <point x="68" y="106"/>
      <point x="68" y="51" type="curve"/>
      <point x="68" y="-44"/>
      <point x="105" y="-115"/>
      <point x="192" y="-115" type="curve"/>
      <point x="192" y="-47"/>
      <point x="192" y="-115"/>
    </contour>
    <contour>
      <point x="192" y="795" type="curve"/>
      <point x="105" y="795"/>
      <point x="68" y="725"/>
      <point x="68" y="631" type="curve"/>
      <point x="68" y="574"/>
      <point x="68" y="516"/>
      <point x="68" y="459" type="curve"/>
      <point x="68" y="414"/>
      <point x="63" y="376"/>
      <point x="24" y="376" type="curve"/>
      <point x="24" y="304"/>
      <point x="24" y="376"/>
      <point x="24" y="304" type="curve"/>
      <point x="110" y="304"/>
      <point x="148" y="374"/>
      <point x="148" y="469" type="curve"/>
      <point x="148" y="523"/>
      <point x="148" y="577"/>
      <point x="148" y="631" type="curve"/>
      <point x="148" y="681"/>
      <point x="148" y="725"/>
      <point x="192" y="725" type="curve"/>
      <point x="192" y="795"/>
      <point x="192" y="725"/>
    </contour>
  </outline>
</glyph>
<glyph name="braceright" format="1">
  <advance width="228"/>
  <unicode hex="007D"/>
  <outline>
    <contour>
      <point x="34" y="-115" type="curve"/>
      <point x="121" y="-115"/>
      <point x="158" y="-44"/>
      <point x="158" y="51" type="curve"/>
      <point x="158" y="106"/>
      <point x="158" y="162"/>
      <point x="158" y="218" type="curve"/>
      <point x="158" y="264"/>
      <point x="163" y="304"/>
      <point x="202" y="304" type="curve"/>
      <point x="202" y="376"/>
      <point x="202" y="304"/>
      <point x="202" y="376" type="curve"/>
      <point x="117" y="376"/>
      <point x="79" y="304"/>
      <point x="79" y="212" type="curve"/>
      <point x="79" y="157"/>
      <point x="79" y="102"/>
      <point x="79" y="47" type="curve"/>
      <point x="79" y="-2"/>
      <point x="78" y="-47"/>
      <point x="34" y="-47" type="curve"/>
      <point x="34" y="-115"/>
      <point x="34" y="-47"/>
    </contour>
    <contour>
      <point x="34" y="725" type="curve"/>
      <point x="78" y="725"/>
      <point x="79" y="681"/>
      <point x="79" y="631" type="curve"/>
      <point x="79" y="577"/>
      <point x="79" y="523"/>
      <point x="79" y="469" type="curve"/>
      <point x="79" y="374"/>
      <point x="116" y="304"/>
      <point x="202" y="304" type="curve"/>
      <point x="202" y="376"/>
      <point x="202" y="304"/>
      <point x="202" y="376" type="curve"/>
      <point x="164" y="376"/>
      <point x="158" y="414"/>
      <point x="158" y="459" type="curve"/>
      <point x="158" y="516"/>
      <point x="158" y="574"/>
      <point x="158" y="631" type="curve"/>
      <point x="158" y="725"/>
      <point x="121" y="795"/>
      <point x="34" y="795" type="curve"/>
      <point x="34" y="725"/>
      <point x="34" y="795"/>
    </contour>
  </outline>
</glyph>
<glyph name="asciitilde" format="1">
  <advance width="555"/>
  <unicode hex="007E"/>
  <outline>
    <contour>
      <point x="419" y="363" type="curve"/>
      <point x="409" y="323"/>
      <point x="398" y="278"/>
      <point x="364" y="278" type="curve"/>
      <point x="338" y="278"/>
      <point x="323" y="291"/>
      <point x="306" y="311" type="curve"/>
      <point x="272" y="348"/>
      <point x="246" y="371"/>
      <point x="196" y="371" type="curve"/>
      <point x="114" y="371"/>
      <point x="83" y="316"/>
      <point x="66" y="234" type="curve"/>
      <point x="99" y="223"/>
      <point x="103" y="221"/>
      <point x="136" y="210" type="curve"/>
      <point x="145" y="255"/>
      <point x="157" y="297"/>
      <point x="194" y="297" type="curve"/>
      <point x="219" y="297"/>
      <point x="231" y="285"/>
      <point x="248" y="266" type="curve"/>
      <point x="284" y="228"/>
      <point x="312" y="206"/>
      <point x="364" y="205" type="curve"/>
      <point x="444" y="205"/>
      <point x="468" y="264"/>
      <point x="489" y="342" type="curve"/>
      <point x="456" y="351"/>
      <point x="452" y="354"/>
    </contour>
  </outline>
</glyph>
<glyph name="exclamdown" format="1">
  <advance width="245"/>
  <unicode hex="00A1"/>
  <outline>
    <contour>
      <point x="80" y="298" type="line"/>
      <point x="72" y="-195" type="line"/>
      <point x="174" y="-195" type="line"/>
      <point x="168" y="298" type="line"/>
    </contour>
    <contour>
      <point x="77" y="489" type="curve"/>
      <point x="77" y="458"/>
      <point x="97" y="442"/>
      <point x="125" y="442" type="curve"/>
      <point x="153" y="442"/>
      <point x="172" y="459"/>
      <point x="172" y="488" type="curve"/>
      <point x="77" y="489"/>
      <point x="172" y="488"/>
      <point x="77" y="489" type="curve"/>
      <point x="77" y="520"/>
      <point x="97" y="534"/>
      <point x="125" y="534" type="curve"/>
      <point x="154" y="534"/>
      <point x="172" y="518"/>
      <point x="172" y="488" type="curve"/>
      <point x="77" y="489"/>
      <point x="172" y="488"/>
    </contour>
  </outline>
</glyph>
<glyph name="cent" format="1">
  <advance width="509"/>
  <unicode hex="00A2"/>
  <outline>
    <contour>
      <point x="315" y="-53" type="curve"/>
      <point x="315" y="-13"/>
      <point x="315" y="27"/>
      <point x="315" y="67" type="curve"/>
      <point x="227" y="67"/>
      <point x="315" y="67"/>
      <point x="227" y="67" type="curve"/>
      <point x="227" y="27"/>
      <point x="227" y="-13"/>
      <point x="227" y="-53" type="curve"/>
      <point x="315" y="-53"/>
      <point x="227" y="-53"/>
    </contour>
    <contour>
      <point x="242" y="778" type="curve"/>
      <point x="242" y="742"/>
      <point x="242" y="706"/>
      <point x="242" y="670" type="curve"/>
      <point x="330" y="670"/>
      <point x="242" y="670"/>
      <point x="330" y="670" type="curve"/>
      <point x="330" y="706"/>
      <point x="330" y="742"/>
      <point x="330" y="778" type="curve"/>
      <point x="242" y="778"/>
      <point x="330" y="778"/>
    </contour>
    <contour>
      <point x="465" y="607" type="curve"/>
      <point x="411" y="661"/>
      <point x="363" y="683"/>
      <point x="292" y="683" type="curve"/>
      <point x="124" y="683"/>
      <point x="45" y="547"/>
      <point x="45" y="364" type="curve"/>
      <point x="45" y="187"/>
      <point x="106" y="49"/>
      <point x="267" y="49" type="curve"/>
      <point x="350" y="49"/>
      <point x="407" y="79"/>
      <point x="463" y="147" type="curve"/>
      <point x="409" y="198"/>
      <point x="463" y="147"/>
      <point x="409" y="198" type="curve"/>
      <point x="369" y="154"/>
      <point x="334" y="121"/>
      <point x="274" y="121" type="curve"/>
      <point x="163" y="121"/>
      <point x="132" y="234"/>
      <point x="132" y="368" type="curve"/>
      <point x="132" y="502"/>
      <point x="175" y="611"/>
      <point x="284" y="611" type="curve"/>
      <point x="339" y="611"/>
      <point x="376" y="590"/>
      <point x="415" y="552" type="curve"/>
      <point x="465" y="607"/>
      <point x="415" y="552"/>
    </contour>
  </outline>
</glyph>
<glyph name="sterling" format="1">
  <advance width="402"/>
  <unicode hex="00A3"/>
  <outline>
    <contour>
      <point x="338" y="69" type="curve"/>
      <point x="239" y="69"/>
      <point x="138" y="69"/>
      <point x="41" y="69" type="curve"/>
      <point x="41" y="0"/>
      <point x="41" y="69"/>
      <point x="41" y="0" type="curve"/>
      <point x="138" y="0"/>
      <point x="240" y="0"/>
      <point x="338" y="0" type="curve"/>
      <point x="338" y="69"/>
      <point x="338" y="0"/>
    </contour>
    <contour>
      <point x="300" y="410" type="curve"/>
      <point x="221" y="410"/>
      <point x="138" y="410"/>
      <point x="61" y="410" type="curve"/>
      <point x="61" y="342"/>
      <point x="61" y="410"/>
      <point x="61" y="342" type="curve"/>
      <point x="138" y="342"/>
      <point x="221" y="342"/>
      <point x="300" y="342" type="curve"/>
      <point x="300" y="410"/>
      <point x="300" y="342"/>
    </contour>
    <contour>
      <point x="359" y="668" type="curve"/>
      <point x="324" y="707"/>
      <point x="292" y="723"/>
      <point x="245" y="723" type="curve"/>
      <point x="93" y="723"/>
      <point x="78" y="559"/>
      <point x="109" y="368" type="curve"/>
      <point x="133" y="215"/>
      <point x="145" y="69"/>
      <point x="41" y="69" type="curve"/>
      <point x="41" y="0"/>
      <point x="41" y="69"/>
      <point x="41" y="0" type="curve"/>
      <point x="210" y="0"/>
      <point x="218" y="179"/>
      <point x="187" y="383" type="curve"/>
      <point x="166" y="523"/>
      <point x="154" y="656"/>
      <point x="241" y="656" type="curve"/>
      <point x="273" y="656"/>
      <point x="292" y="639"/>
      <point x="314" y="618" type="curve"/>
      <point x="359" y="668"/>
      <point x="314" y="618"/>
    </contour>
  </outline>
</glyph>
<glyph name="currency" format="1">
  <advance width="571"/>
  <unicode hex="00A4"/>
  <outline>
    <contour>
      <point x="218" y="314" type="curve"/>
      <point x="218" y="374"/>
      <point x="231" y="427"/>
      <point x="284" y="427" type="curve"/>
      <point x="339" y="427"/>
      <point x="351" y="377"/>
      <point x="351" y="314" type="curve"/>
      <point x="351" y="252"/>
      <point x="341" y="194"/>
      <point x="287" y="194" type="curve"/>
      <point x="230" y="194"/>
      <point x="218" y="249"/>
      <point x="218" y="314" type="curve"/>
      <point x="131" y="314"/>
      <point x="223" y="314"/>
      <point x="135" y="314" type="curve"/>
      <point x="135" y="205"/>
      <point x="185" y="126"/>
      <point x="287" y="126" type="curve"/>
      <point x="388" y="126"/>
      <point x="436" y="208"/>
      <point x="436" y="316" type="curve"/>
      <point x="436" y="419"/>
      <point x="388" y="496"/>
      <point x="292" y="496" type="curve"/>
      <point x="189" y="496"/>
      <point x="135" y="420"/>
      <point x="135" y="314" type="curve"/>
      <point x="223" y="314"/>
      <point x="131" y="314"/>
    </contour>
    <contour>
      <point x="366" y="381" type="line"/>
      <point x="514" y="521" type="line"/>
      <point x="451" y="584" type="line"/>
      <point x="311" y="435" type="line"/>
    </contour>
    <contour>
      <point x="315" y="194" type="line"/>
      <point x="455" y="45" type="line"/>
      <point x="519" y="109" type="line"/>
      <point x="370" y="248" type="line"/>
    </contour>
    <contour>
      <point x="202" y="248" type="line"/>
      <point x="53" y="108" type="line"/>
      <point x="116" y="45" type="line"/>
      <point x="256" y="194" type="line"/>
    </contour>
    <contour>
      <point x="262" y="436" type="line"/>
      <point x="123" y="585" type="line"/>
      <point x="59" y="522" type="line"/>
      <point x="208" y="382" type="line"/>
    </contour>
  </outline>
</glyph>
<glyph name="yen" format="1">
  <advance width="509"/>
  <unicode hex="00A5"/>
  <outline>
    <contour>
      <point x="417" y="397" type="curve"/>
      <point x="366" y="397"/>
      <point x="315" y="397"/>
      <point x="264" y="397" type="curve"/>
      <point x="264" y="321"/>
      <point x="264" y="397"/>
      <point x="264" y="321" type="curve"/>
      <point x="315" y="321"/>
      <point x="366" y="321"/>
      <point x="417" y="321" type="curve"/>
      <point x="417" y="397"/>
      <point x="417" y="321"/>
    </contour>
    <contour>
      <point x="243" y="397" type="curve"/>
      <point x="192" y="397"/>
      <point x="142" y="397"/>
      <point x="93" y="397" type="curve"/>
      <point x="93" y="321"/>
      <point x="93" y="397"/>
      <point x="93" y="321" type="curve"/>
      <point x="142" y="321"/>
      <point x="192" y="321"/>
      <point x="243" y="321" type="curve"/>
      <point x="243" y="397"/>
      <point x="243" y="321"/>
    </contour>
    <contour>
      <point x="417" y="265" type="curve"/>
      <point x="309" y="265"/>
      <point x="200" y="265"/>
      <point x="93" y="265" type="curve"/>
      <point x="93" y="189"/>
      <point x="93" y="265"/>
      <point x="93" y="189" type="curve"/>
      <point x="200" y="189"/>
      <point x="309" y="189"/>
      <point x="417" y="189" type="curve"/>
      <point x="417" y="265"/>
      <point x="417" y="189"/>
    </contour>
    <contour>
      <point x="37" y="722" type="curve"/>
      <point x="94" y="594"/>
      <point x="149" y="467"/>
      <point x="205" y="337" type="curve"/>
      <point x="294" y="337"/>
      <point x="193" y="337"/>
      <point x="282" y="337" type="curve"/>
      <point x="230" y="468"/>
      <point x="180" y="592"/>
      <point x="126" y="722" type="curve"/>
      <point x="37" y="722"/>
      <point x="126" y="722"/>
    </contour>
    <contour>
      <point x="388" y="722" type="curve"/>
      <point x="330" y="591"/>
      <point x="276" y="467"/>
      <point x="217" y="337" type="curve"/>
      <point x="306" y="337"/>
      <point x="211" y="337"/>
      <point x="300" y="337" type="curve"/>
      <point x="359" y="467"/>
      <point x="417" y="594"/>
      <point x="478" y="722" type="curve"/>
      <point x="388" y="722"/>
      <point x="478" y="722"/>
    </contour>
    <contour>
      <point x="300" y="0" type="curve"/>
      <point x="300" y="115"/>
      <point x="300" y="226"/>
      <point x="300" y="341" type="curve"/>
      <point x="205" y="341"/>
      <point x="300" y="341"/>
      <point x="205" y="341" type="curve"/>
      <point x="205" y="226"/>
      <point x="205" y="115"/>
      <point x="205" y="0" type="curve"/>
      <point x="300" y="0"/>
      <point x="205" y="0"/>
    </contour>
  </outline>
</glyph>
<glyph name="section" format="1">
  <advance width="419"/>
  <unicode hex="00A7"/>
  <outline>
    <contour>
      <point x="334" y="703" type="curve"/>
      <point x="293" y="734"/>
      <point x="261" y="750"/>
      <point x="213" y="750" type="curve"/>
      <point x="125" y="750"/>
      <point x="73" y="694"/>
      <point x="73" y="609" type="curve"/>
      <point x="73" y="534"/>
      <point x="111" y="485"/>
      <point x="181" y="454" type="curve"/>
      <point x="234" y="429"/>
      <point x="286" y="414"/>
      <point x="286" y="361" type="curve"/>
      <point x="286" y="307"/>
      <point x="262" y="270"/>
      <point x="210" y="257" type="curve"/>
      <point x="262" y="201"/>
      <point x="210" y="257"/>
      <point x="262" y="201" type="curve"/>
      <point x="339" y="224"/>
      <point x="374" y="281"/>
      <point x="374" y="361" type="curve"/>
      <point x="373" y="448"/>
      <point x="307" y="485"/>
      <point x="224" y="519" type="curve"/>
      <point x="184" y="537"/>
      <point x="156" y="565"/>
      <point x="156" y="609" type="curve"/>
      <point x="156" y="648"/>
      <point x="173" y="681"/>
      <point x="213" y="681" type="curve"/>
      <point x="248" y="681"/>
      <point x="266" y="668"/>
      <point x="292" y="649" type="curve"/>
      <point x="334" y="703"/>
      <point x="292" y="649"/>
    </contour>
    <contour>
      <point x="157" y="521" type="curve"/>
      <point x="86" y="492"/>
      <point x="48" y="443"/>
      <point x="48" y="366" type="curve"/>
      <point x="48" y="283"/>
      <point x="103" y="239"/>
      <point x="182" y="206" type="curve"/>
      <point x="228" y="186"/>
      <point x="268" y="166"/>
      <point x="268" y="118" type="curve"/>
      <point x="268" y="75"/>
      <point x="249" y="41"/>
      <point x="210" y="41" type="curve"/>
      <point x="170" y="41"/>
      <point x="149" y="58"/>
      <point x="119" y="85" type="curve"/>
      <point x="70" y="36"/>
      <point x="119" y="85"/>
      <point x="70" y="36" type="curve"/>
      <point x="113" y="-8"/>
      <point x="152" y="-28"/>
      <point x="209" y="-28" type="curve"/>
      <point x="297" y="-28"/>
      <point x="353" y="28"/>
      <point x="353" y="118" type="curve"/>
      <point x="352" y="194"/>
      <point x="310" y="242"/>
      <point x="238" y="271" type="curve"/>
      <point x="185" y="295"/>
      <point x="136" y="314"/>
      <point x="136" y="366" type="curve"/>
      <point x="136" y="416"/>
      <point x="155" y="451"/>
      <point x="201" y="469" type="curve"/>
      <point x="157" y="521"/>
      <point x="201" y="469"/>
    </contour>
  </outline>
</glyph>
<glyph name="dieresis" format="1">
  <advance width="378"/>
  <unicode hex="00A8"/>
  <outline>
    <contour>
      <point x="156" y="670" type="curve"/>
      <point x="156" y="700"/>
      <point x="136" y="716"/>
      <point x="108" y="716" type="curve"/>
      <point x="79" y="716"/>
      <point x="61" y="699"/>
      <point x="61" y="670" type="curve"/>
      <point x="156" y="670"/>
      <point x="61" y="670"/>
      <point x="156" y="670" type="curve"/>
      <point x="156" y="638"/>
      <point x="136" y="624"/>
      <point x="108" y="624" type="curve"/>
      <point x="79" y="624"/>
      <point x="61" y="639"/>
      <point x="61" y="670" type="curve"/>
      <point x="156" y="670"/>
      <point x="61" y="670"/>
    </contour>
    <contour>
      <point x="302" y="670" type="curve"/>
      <point x="302" y="700"/>
      <point x="281" y="716"/>
      <point x="253" y="716" type="curve"/>
      <point x="225" y="716"/>
      <point x="207" y="699"/>
      <point x="207" y="670" type="curve"/>
      <point x="302" y="670"/>
      <point x="207" y="670"/>
      <point x="302" y="670" type="curve"/>
      <point x="302" y="638"/>
      <point x="282" y="624"/>
      <point x="253" y="624" type="curve"/>
      <point x="224" y="624"/>
      <point x="207" y="639"/>
      <point x="207" y="670" type="curve"/>
      <point x="302" y="670"/>
      <point x="207" y="670"/>
    </contour>
    <contour>
      <point x="181" y="628" type="move" name="_top"/>
    </contour>
  </outline>
</glyph>
<glyph name="copyright" format="1">
  <advance width="619"/>
  <unicode hex="00A9"/>
  <outline>
    <contour>
      <point x="124" y="322" type="curve"/>
      <point x="124" y="467"/>
      <point x="181" y="588"/>
      <point x="311" y="588" type="curve"/>
      <point x="439" y="588"/>
      <point x="495" y="465"/>
      <point x="495" y="320" type="curve"/>
      <point x="495" y="180"/>
      <point x="442" y="58"/>
      <point x="317" y="58" type="curve"/>
      <point x="188" y="58"/>
      <point x="124" y="177"/>
      <point x="124" y="322" type="curve"/>
      <point x="51" y="322"/>
      <point x="125" y="322"/>
      <point x="53" y="322" type="curve"/>
      <point x="53" y="143"/>
      <point x="146" y="1"/>
      <point x="314" y="1" type="curve"/>
      <point x="479" y="1"/>
      <point x="564" y="144"/>
      <point x="564" y="323" type="curve"/>
      <point x="564" y="502"/>
      <point x="477" y="645"/>
      <point x="311" y="645" type="curve"/>
      <point x="144" y="645"/>
      <point x="53" y="502"/>
      <point x="53" y="322" type="curve"/>
      <point x="125" y="322"/>
      <point x="51" y="322"/>
    </contour>
    <contour>
      <point x="423" y="449" type="curve"/>
      <point x="393" y="490"/>
      <point x="360" y="505"/>
      <point x="317" y="505" type="curve"/>
      <point x="218" y="505"/>
      <point x="174" y="427"/>
      <point x="174" y="321" type="curve"/>
      <point x="174" y="218"/>
      <point x="211" y="142"/>
      <point x="305" y="142" type="curve"/>
      <point x="355" y="142"/>
      <point x="390" y="154"/>
      <point x="424" y="200" type="curve"/>
      <point x="378" y="234"/>
      <point x="424" y="200"/>
      <point x="378" y="234" type="curve"/>
      <point x="358" y="212"/>
      <point x="339" y="199"/>
      <point x="309" y="199" type="curve"/>
      <point x="251" y="199"/>
      <point x="242" y="257"/>
      <point x="242" y="324" type="curve"/>
      <point x="242" y="391"/>
      <point x="255" y="448"/>
      <point x="314" y="448" type="curve"/>
      <point x="337" y="448"/>
      <point x="356" y="440"/>
      <point x="373" y="421" type="curve"/>
      <point x="427" y="450"/>
      <point x="369" y="420"/>
    </contour>
  </outline>
</glyph>
<glyph name="ordfeminine" format="1">
  <advance width="342"/>
  <unicode hex="00AA"/>
  <outline>
    <contour>
      <point x="273" y="427" type="curve"/>
      <point x="273" y="512"/>
      <point x="273" y="586"/>
      <point x="273" y="671" type="curve"/>
      <point x="273" y="736"/>
      <point x="231" y="768"/>
      <point x="168" y="768" type="curve"/>
      <point x="122" y="768"/>
      <point x="91" y="748"/>
      <point x="65" y="720" type="curve"/>
      <point x="86" y="685"/>
      <point x="70" y="714"/>
      <point x="90" y="679" type="curve"/>
      <point x="107" y="698"/>
      <point x="127" y="718"/>
      <point x="160" y="718" type="curve"/>
      <point x="194" y="718"/>
      <point x="213" y="697"/>
      <point x="213" y="662" type="curve"/>
      <point x="213" y="579"/>
      <point x="213" y="509"/>
      <point x="213" y="427" type="curve"/>
      <point x="266" y="427"/>
      <point x="220" y="427"/>
    </contour>
    <contour>
      <point x="242" y="641" type="curve"/>
      <point x="207" y="636"/>
      <point x="185" y="633"/>
      <point x="151" y="627" type="curve"/>
      <point x="90" y="617"/>
      <point x="50" y="586"/>
      <point x="50" y="525" type="curve"/>
      <point x="50" y="464"/>
      <point x="83" y="425"/>
      <point x="144" y="425" type="curve"/>
      <point x="203" y="425"/>
      <point x="227" y="471"/>
      <point x="258" y="516" type="curve"/>
      <point x="232" y="539"/>
      <point x="254" y="520"/>
      <point x="228" y="542" type="curve"/>
      <point x="211" y="505"/>
      <point x="196" y="473"/>
      <point x="158" y="473" type="curve"/>
      <point x="124" y="473"/>
      <point x="108" y="495"/>
      <point x="108" y="528" type="curve"/>
      <point x="108" y="558"/>
      <point x="127" y="579"/>
      <point x="152" y="584" type="curve"/>
      <point x="189" y="590"/>
      <point x="208" y="594"/>
      <point x="244" y="600" type="curve"/>
      <point x="242" y="635"/>
      <point x="244" y="606"/>
    </contour>
  </outline>
</glyph>
<glyph name="guillemotleft" format="1">
  <advance width="452"/>
  <unicode hex="00AB"/>
  <outline>
    <contour>
      <point x="212" y="447" type="curve"/>
      <point x="190" y="429"/>
      <point x="65" y="344"/>
      <point x="42" y="325" type="curve"/>
      <point x="42" y="249"/>
      <point x="42" y="315"/>
      <point x="42" y="238" type="curve"/>
      <point x="65" y="257"/>
      <point x="190" y="348"/>
      <point x="212" y="366" type="curve"/>
      <point x="212" y="442"/>
      <point x="212" y="372"/>
    </contour>
    <contour>
      <point x="213" y="199" type="curve"/>
      <point x="190" y="217"/>
      <point x="65" y="307"/>
      <point x="42" y="325" type="curve"/>
      <point x="42" y="249"/>
      <point x="42" y="315"/>
      <point x="42" y="238" type="curve"/>
      <point x="65" y="220"/>
      <point x="190" y="137"/>
      <point x="213" y="118" type="curve"/>
      <point x="213" y="194"/>
      <point x="213" y="124"/>
    </contour>
    <contour>
      <point x="383" y="447" type="curve"/>
      <point x="361" y="429"/>
      <point x="237" y="344"/>
      <point x="214" y="325" type="curve"/>
      <point x="214" y="249"/>
      <point x="214" y="315"/>
      <point x="214" y="238" type="curve"/>
      <point x="237" y="257"/>
      <point x="361" y="348"/>
      <point x="383" y="366" type="curve"/>
      <point x="383" y="442"/>
      <point x="383" y="372"/>
    </contour>
    <contour>
      <point x="384" y="199" type="curve"/>
      <point x="361" y="217"/>
      <point x="237" y="307"/>
      <point x="214" y="325" type="curve"/>
      <point x="214" y="249"/>
      <point x="214" y="315"/>
      <point x="214" y="238" type="curve"/>
      <point x="237" y="220"/>
      <point x="361" y="137"/>
      <point x="384" y="118" type="curve"/>
      <point x="384" y="194"/>
      <point x="384" y="124"/>
    </contour>
  </outline>
</glyph>
<glyph name="registered" format="1">
  <advance width="632"/>
  <unicode hex="00AE"/>
  <outline>
    <contour>
      <point x="117" y="321" type="curve"/>
      <point x="117" y="473"/>
      <point x="180" y="593"/>
      <point x="319" y="593" type="curve"/>
      <point x="456" y="593"/>
      <point x="516" y="471"/>
      <point x="516" y="319" type="curve"/>
      <point x="516" y="171"/>
      <point x="459" y="52"/>
      <point x="325" y="52" type="curve"/>
      <point x="185" y="52"/>
      <point x="117" y="168"/>
      <point x="117" y="321" type="curve"/>
      <point x="87" y="321"/>
      <point x="85" y="321"/>
      <point x="55" y="321" type="curve"/>
      <point x="55" y="137"/>
      <point x="148" y="0"/>
      <point x="322" y="0" type="curve"/>
      <point x="493" y="0"/>
      <point x="577" y="139"/>
      <point x="577" y="322" type="curve"/>
      <point x="577" y="506"/>
      <point x="491" y="644"/>
      <point x="319" y="644" type="curve"/>
      <point x="145" y="644"/>
      <point x="55" y="506"/>
      <point x="55" y="321" type="curve"/>
      <point x="85" y="321"/>
      <point x="87" y="321"/>
    </contour>
    <contour>
      <point x="302" y="315" type="curve"/>
      <point x="312" y="290"/>
      <point x="363" y="170"/>
      <point x="372" y="145" type="curve"/>
      <point x="408" y="145"/>
      <point x="398" y="145"/>
      <point x="435" y="145" type="curve"/>
      <point x="425" y="169"/>
      <point x="374" y="286"/>
      <point x="364" y="312" type="curve"/>
      <point x="284" y="311"/>
      <point x="381" y="316"/>
    </contour>
    <contour>
      <point x="293" y="145" type="curve"/>
      <point x="293" y="248"/>
      <point x="293" y="397"/>
      <point x="293" y="500" type="curve"/>
      <point x="250" y="500"/>
      <point x="273" y="501"/>
      <point x="227" y="501" type="curve"/>
      <point x="227" y="398"/>
      <point x="227" y="247"/>
      <point x="227" y="145" type="curve"/>
      <point x="272" y="145"/>
      <point x="242" y="145"/>
    </contour>
    <contour>
      <point x="265" y="281" type="curve"/>
      <point x="278" y="281"/>
      <point x="293" y="281"/>
      <point x="306" y="281" type="curve"/>
      <point x="378" y="281"/>
      <point x="421" y="318"/>
      <point x="421" y="392" type="curve"/>
      <point x="421" y="457"/>
      <point x="384" y="501"/>
      <point x="321" y="501" type="curve"/>
      <point x="314" y="501"/>
      <point x="246" y="501"/>
      <point x="239" y="501" type="curve"/>
      <point x="228" y="464"/>
      <point x="299" y="501"/>
      <point x="227" y="443" type="curve"/>
      <point x="254" y="443"/>
      <point x="281" y="443"/>
      <point x="308" y="443" type="curve"/>
      <point x="339" y="443"/>
      <point x="357" y="422"/>
      <point x="357" y="389" type="curve"/>
      <point x="357" y="358"/>
      <point x="344" y="338"/>
      <point x="317" y="338" type="curve"/>
      <point x="299" y="338"/>
      <point x="282" y="338"/>
      <point x="265" y="338" type="curve"/>
      <point x="265" y="281"/>
      <point x="265" y="338"/>
    </contour>
  </outline>
</glyph>
<glyph name="macron" format="1">
  <advance width="273"/>
  <unicode hex="00AF"/>
  <outline>
    <contour>
      <point x="195" y="683" type="curve"/>
      <point x="141" y="683"/>
      <point x="86" y="683"/>
      <point x="32" y="683" type="curve"/>
      <point x="32" y="614"/>
      <point x="32" y="683"/>
      <point x="32" y="614" type="curve"/>
      <point x="86" y="614"/>
      <point x="141" y="614"/>
      <point x="195" y="614" type="curve"/>
      <point x="195" y="683"/>
      <point x="195" y="614"/>
    </contour>
    <contour>
      <point x="115" y="614" type="move" name="_top"/>
    </contour>
  </outline>
</glyph>
<glyph name="degree" format="1">
  <advance width="388"/>
  <unicode hex="00B0"/>
  <outline>
    <contour>
      <point x="338" y="534" type="curve"/>
      <point x="338" y="641"/>
      <point x="293" y="720"/>
      <point x="193" y="720" type="curve"/>
      <point x="94" y="720"/>
      <point x="51" y="641"/>
      <point x="51" y="535" type="curve"/>
      <point x="85" y="535"/>
      <point x="89" y="535"/>
      <point x="123" y="535" type="curve"/>
      <point x="123" y="601"/>
      <point x="134" y="657"/>
      <point x="192" y="657" type="curve"/>
      <point x="249" y="657"/>
      <point x="263" y="601"/>
      <point x="263" y="534" type="curve"/>
      <point x="263" y="466"/>
      <point x="253" y="408"/>
      <point x="194" y="408" type="curve"/>
      <point x="134" y="408"/>
      <point x="123" y="467"/>
      <point x="123" y="535" type="curve"/>
      <point x="89" y="535"/>
      <point x="85" y="535"/>
      <point x="51" y="535" type="curve"/>
      <point x="51" y="426"/>
      <point x="93" y="345"/>
      <point x="194" y="345" type="curve"/>
      <point x="295" y="345"/>
      <point x="338" y="425"/>
    </contour>
  </outline>
</glyph>
<glyph name="plusminus" format="1">
  <advance width="617"/>
  <unicode hex="00B1"/>
  <outline>
    <contour>
      <point x="57" y="38" type="line"/>
      <point x="560" y="38" type="line"/>
      <point x="560" y="114" type="line"/>
      <point x="57" y="114" type="line"/>
    </contour>
    <contour>
      <point x="57" y="275" type="curve"/>
      <point x="560" y="275" type="line"/>
      <point x="560" y="350"/>
      <point x="560" y="275"/>
      <point x="560" y="350" type="curve"/>
      <point x="57" y="350" type="line"/>
      <point x="57" y="275"/>
      <point x="57" y="350"/>
    </contour>
    <contour>
      <point x="349" y="39" type="curve"/>
      <point x="349" y="583" type="line"/>
      <point x="262" y="583"/>
      <point x="355" y="583"/>
      <point x="267" y="583" type="curve"/>
      <point x="267" y="39" type="line"/>
      <point x="355" y="39"/>
      <point x="262" y="39"/>
    </contour>
  </outline>
</glyph>
<glyph name="twosuperior" format="1">
  <advance width="374"/>
  <unicode hex="00B2"/>
  <outline>
    <contour>
      <point x="50" y="343" type="curve"/>
      <point x="137" y="343"/>
      <point x="237" y="343"/>
      <point x="317" y="343" type="curve"/>
      <point x="317" y="373"/>
      <point x="317" y="367"/>
      <point x="317" y="400" type="curve"/>
      <point x="233" y="400"/>
      <point x="133" y="400"/>
      <point x="50" y="400" type="curve"/>
      <point x="50" y="343"/>
      <point x="50" y="400"/>
    </contour>
    <contour>
      <point x="122" y="647" type="curve"/>
      <point x="133" y="681"/>
      <point x="147" y="710"/>
      <point x="183" y="710" type="curve"/>
      <point x="220" y="710"/>
      <point x="235" y="677"/>
      <point x="235" y="636" type="curve"/>
      <point x="235" y="595"/>
      <point x="214" y="571"/>
      <point x="187" y="540" type="curve"/>
      <point x="141" y="493"/>
      <point x="95" y="447"/>
      <point x="50" y="400" type="curve"/>
      <point x="55" y="343"/>
      <point x="50" y="400"/>
      <point x="55" y="343" type="curve"/>
      <point x="112" y="394"/>
      <point x="183" y="444"/>
      <point x="233" y="494" type="curve"/>
      <point x="274" y="541"/>
      <point x="304" y="577"/>
      <point x="304" y="639" type="curve"/>
      <point x="304" y="715"/>
      <point x="260" y="767"/>
      <point x="186" y="767" type="curve"/>
      <point x="126" y="767"/>
      <point x="88" y="738"/>
      <point x="69" y="667" type="curve"/>
      <point x="122" y="647"/>
      <point x="69" y="667"/>
    </contour>
    <contour>
      <point x="195" y="767" type="move" name="_top"/>
    </contour>
    <contour>
      <point x="176" y="343" type="move" name="_bottom"/>
    </contour>
  </outline>
</glyph>
<glyph name="threesuperior" format="1">
  <advance width="335"/>
  <unicode hex="00B3"/>
  <outline>
    <contour>
      <point x="95" y="673" type="curve"/>
      <point x="108" y="690"/>
      <point x="124" y="708"/>
      <point x="148" y="708" type="curve"/>
      <point x="183" y="708"/>
      <point x="201" y="682"/>
      <point x="201" y="644" type="curve"/>
      <point x="201" y="604"/>
      <point x="163" y="583"/>
      <point x="118" y="579" type="curve"/>
      <point x="118" y="530"/>
      <point x="118" y="579"/>
      <point x="118" y="530" type="curve"/>
      <point x="205" y="533"/>
      <point x="273" y="570"/>
      <point x="273" y="650" type="curve"/>
      <point x="273" y="722"/>
      <point x="228" y="765"/>
      <point x="155" y="765" type="curve"/>
      <point x="112" y="765"/>
      <point x="74" y="742"/>
      <point x="51" y="709" type="curve"/>
      <point x="95" y="673"/>
      <point x="51" y="709"/>
    </contour>
    <contour>
      <point x="49" y="372" type="curve"/>
      <point x="77" y="350"/>
      <point x="107" y="337"/>
      <point x="142" y="337" type="curve"/>
      <point x="228" y="335"/>
      <point x="285" y="378"/>
      <point x="285" y="461" type="curve"/>
      <point x="285" y="542"/>
      <point x="209" y="567"/>
      <point x="118" y="571" type="curve"/>
      <point x="118" y="528"/>
      <point x="118" y="571"/>
      <point x="118" y="528" type="curve"/>
      <point x="172" y="524"/>
      <point x="212" y="502"/>
      <point x="212" y="458" type="curve"/>
      <point x="212" y="418"/>
      <point x="188" y="392"/>
      <point x="149" y="393" type="curve"/>
      <point x="125" y="393"/>
      <point x="104" y="401"/>
      <point x="85" y="415" type="curve"/>
      <point x="49" y="372"/>
      <point x="85" y="415"/>
    </contour>
    <contour>
      <point x="170" y="765" type="move" name="_top"/>
    </contour>
    <contour>
      <point x="162" y="337" type="move" name="_bottom"/>
    </contour>
  </outline>
</glyph>
<glyph name="paragraph" format="1">
  <advance width="632"/>
  <unicode hex="00B6"/>
  <outline>
    <contour>
      <point x="342" y="653" type="curve"/>
      <point x="477" y="653"/>
      <point x="342" y="653"/>
      <point x="477" y="653" type="curve"/>
      <point x="477" y="722"/>
      <point x="477" y="653"/>
      <point x="477" y="722" type="curve"/>
      <point x="432" y="722"/>
      <point x="387" y="722"/>
      <point x="342" y="722" type="curve"/>
      <point x="342" y="653"/>
      <point x="342" y="722"/>
    </contour>
    <contour>
      <point x="327" y="369" type="curve"/>
      <point x="293" y="346"/>
      <point x="267" y="332"/>
      <point x="225" y="332" type="curve"/>
      <point x="152" y="332"/>
      <point x="123" y="399"/>
      <point x="123" y="483" type="curve"/>
      <point x="123" y="578"/>
      <point x="166" y="653"/>
      <point x="254" y="653" type="curve"/>
      <point x="283" y="653"/>
      <point x="311" y="653"/>
      <point x="340" y="653" type="curve"/>
      <point x="340" y="722"/>
      <point x="340" y="653"/>
      <point x="340" y="722" type="curve"/>
      <point x="308" y="722"/>
      <point x="275" y="722"/>
      <point x="242" y="722" type="curve"/>
      <point x="111" y="722"/>
      <point x="36" y="623"/>
      <point x="36" y="486" type="curve"/>
      <point x="36" y="353"/>
      <point x="107" y="267"/>
      <point x="233" y="265" type="curve"/>
      <point x="279" y="265"/>
      <point x="318" y="286"/>
      <point x="355" y="311" type="curve"/>
      <point x="327" y="368"/>
      <point x="354" y="313"/>
    </contour>
    <contour>
      <point x="387" y="0" type="curve"/>
      <point x="387" y="241"/>
      <point x="387" y="481"/>
      <point x="387" y="722" type="curve"/>
      <point x="299" y="722"/>
      <point x="387" y="722"/>
      <point x="299" y="722" type="curve"/>
      <point x="299" y="481"/>
      <point x="299" y="241"/>
      <point x="299" y="0" type="curve"/>
      <point x="387" y="0"/>
      <point x="299" y="0"/>
    </contour>
    <contour>
      <point x="554" y="0" type="curve"/>
      <point x="554" y="241"/>
      <point x="554" y="481"/>
      <point x="554" y="722" type="curve"/>
      <point x="467" y="722"/>
      <point x="554" y="722"/>
      <point x="467" y="722" type="curve"/>
      <point x="467" y="481"/>
      <point x="467" y="241"/>
      <point x="467" y="0" type="curve"/>
      <point x="554" y="0"/>
      <point x="467" y="0"/>
    </contour>
  </outline>
</glyph>
<glyph name="periodcentered" format="1">
  <advance width="214"/>
  <unicode hex="00B7"/>
  <outline>
    <contour>
      <point x="154" y="440" type="curve"/>
      <point x="154" y="471"/>
      <point x="134" y="486"/>
      <point x="106" y="486" type="curve"/>
      <point x="77" y="486"/>
      <point x="59" y="469"/>
      <point x="59" y="440" type="curve"/>
      <point x="154" y="440"/>
      <point x="59" y="440"/>
      <point x="154" y="440" type="curve"/>
      <point x="154" y="409"/>
      <point x="135" y="394"/>
      <point x="106" y="394" type="curve"/>
      <point x="77" y="394"/>
      <point x="59" y="410"/>
      <point x="59" y="440" type="curve"/>
      <point x="154" y="440"/>
      <point x="59" y="440"/>
    </contour>
  </outline>
</glyph>
<glyph name="cedilla" format="1">
  <advance width="276"/>
  <unicode hex="00B8"/>
  <outline>
    <contour>
      <point x="124" y="96" type="curve"/>
      <point x="113" y="72"/>
      <point x="87" y="9"/>
      <point x="77" y="-15" type="curve"/>
      <point x="137" y="-70"/>
      <point x="77" y="-15"/>
      <point x="137" y="-70" type="curve"/>
      <point x="148" y="-43"/>
      <point x="180" y="22"/>
      <point x="191" y="48" type="curve"/>
      <point x="124" y="96"/>
      <point x="191" y="48"/>
    </contour>
    <contour>
      <point x="137" y="-70" type="curve"/>
      <point x="144" y="-64"/>
      <point x="150" y="-60"/>
      <point x="159" y="-60" type="curve"/>
      <point x="175" y="-60"/>
      <point x="181" y="-74"/>
      <point x="181" y="-93" type="curve"/>
      <point x="181" y="-115"/>
      <point x="168" y="-128"/>
      <point x="146" y="-128" type="curve"/>
      <point x="128" y="-128"/>
      <point x="113" y="-124"/>
      <point x="98" y="-112" type="curve"/>
      <point x="65" y="-163"/>
      <point x="98" y="-112"/>
      <point x="65" y="-163" type="curve"/>
      <point x="89" y="-181"/>
      <point x="112" y="-188"/>
      <point x="142" y="-188" type="curve"/>
      <point x="200" y="-188"/>
      <point x="238" y="-152"/>
      <point x="238" y="-92" type="curve"/>
      <point x="238" y="-34"/>
      <point x="206" y="6"/>
      <point x="151" y="6" type="curve"/>
      <point x="123" y="6"/>
      <point x="102" y="0"/>
      <point x="77" y="-15" type="curve"/>
      <point x="137" y="-70"/>
      <point x="77" y="-15"/>
    </contour>
    <contour>
      <point x="186" y="48" type="move" name="_bottom"/>
    </contour>
  </outline>
</glyph>
<glyph name="onesuperior" format="1">
  <advance width="257"/>
  <unicode hex="00B9"/>
  <outline>
    <contour>
      <point x="62" y="617" type="line"/>
      <point x="182" y="753" type="line"/>
      <point x="111" y="757" type="line"/>
      <point x="19" y="659" type="line"/>
    </contour>
    <contour>
      <point x="183" y="343" type="curve"/>
      <point x="183" y="757" type="line"/>
      <point x="111" y="757" type="line"/>
      <point x="111" y="343" type="line"/>
      <point x="157" y="343"/>
      <point x="130" y="343"/>
    </contour>
    <contour>
      <point x="141" y="756" type="move" name="_top"/>
    </contour>
    <contour>
      <point x="148" y="345" type="move" name="_bottom"/>
    </contour>
  </outline>
</glyph>
<glyph name="guillemotright" format="1">
  <advance width="458"/>
  <unicode hex="00BB"/>
  <outline>
    <contour>
      <point x="244" y="447" type="curve"/>
      <point x="266" y="429"/>
      <point x="391" y="344"/>
      <point x="413" y="325" type="curve"/>
      <point x="413" y="249"/>
      <point x="413" y="315"/>
      <point x="413" y="238" type="curve"/>
      <point x="391" y="257"/>
      <point x="266" y="348"/>
      <point x="244" y="366" type="curve"/>
      <point x="244" y="442"/>
      <point x="244" y="372"/>
    </contour>
    <contour>
      <point x="243" y="199" type="curve"/>
      <point x="266" y="217"/>
      <point x="391" y="307"/>
      <point x="413" y="325" type="curve"/>
      <point x="413" y="249"/>
      <point x="413" y="315"/>
      <point x="413" y="238" type="curve"/>
      <point x="391" y="220"/>
      <point x="266" y="137"/>
      <point x="243" y="118" type="curve"/>
      <point x="243" y="194"/>
      <point x="243" y="124"/>
    </contour>
    <contour>
      <point x="72" y="447" type="curve"/>
      <point x="95" y="429"/>
      <point x="219" y="344"/>
      <point x="242" y="325" type="curve"/>
      <point x="242" y="249"/>
      <point x="242" y="315"/>
      <point x="242" y="238" type="curve"/>
      <point x="219" y="257"/>
      <point x="95" y="348"/>
      <point x="72" y="366" type="curve"/>
      <point x="72" y="442"/>
      <point x="72" y="372"/>
    </contour>
    <contour>
      <point x="72" y="199" type="curve"/>
      <point x="94" y="217"/>
      <point x="219" y="307"/>
      <point x="242" y="325" type="curve"/>
      <point x="242" y="249"/>
      <point x="242" y="315"/>
      <point x="242" y="238" type="curve"/>
      <point x="219" y="220"/>
      <point x="94" y="137"/>
      <point x="72" y="118" type="curve"/>
      <point x="72" y="194"/>
      <point x="72" y="124"/>
    </contour>
  </outline>
</glyph>
<glyph name="onequarter" format="1">
  <advance width="765"/>
  <unicode hex="00BC"/>
  <outline>
    <contour>
      <point x="262" y="-62" type="line"/>
      <point x="573" y="730" type="line"/>
      <point x="490" y="730" type="line"/>
      <point x="181" y="-62" type="line"/>
    </contour>
    <contour>
      <point x="70" y="592" type="line"/>
      <point x="191" y="728" type="line"/>
      <point x="120" y="732" type="line"/>
      <point x="28" y="634" type="line"/>
    </contour>
    <contour>
      <point x="192" y="318" type="curve"/>
      <point x="192" y="732" type="line"/>
      <point x="120" y="732" type="line"/>
      <point x="120" y="318" type="line"/>
      <point x="165" y="318"/>
      <point x="139" y="318"/>
    </contour>
    <contour>
      <point x="731" y="109" type="line"/>
      <point x="433" y="109" type="line"/>
      <point x="433" y="53" type="line"/>
      <point x="731" y="53" type="line"/>
    </contour>
    <contour>
      <point x="463" y="56" type="line"/>
      <point x="645" y="359" type="line"/>
      <point x="591" y="372" type="line"/>
      <point x="433" y="109" type="line"/>
    </contour>
    <contour>
      <point x="663" y="-58" type="line"/>
      <point x="663" y="372" type="line"/>
      <point x="591" y="372" type="line"/>
      <point x="591" y="-58" type="line"/>
    </contour>
  </outline>
</glyph>
<glyph name="onehalf" format="1">
  <advance width="826"/>
  <unicode hex="00BD"/>
  <outline>
    <contour>
      <point x="290" y="-62" type="line"/>
      <point x="601" y="730" type="line"/>
      <point x="518" y="730" type="line"/>
      <point x="209" y="-62" type="line"/>
    </contour>
    <contour>
      <point x="70" y="592" type="line"/>
      <point x="191" y="728" type="line"/>
      <point x="120" y="732" type="line"/>
      <point x="28" y="634" type="line"/>
    </contour>
    <contour>
      <point x="192" y="318" type="curve"/>
      <point x="192" y="732" type="line"/>
      <point x="120" y="732" type="line"/>
      <point x="120" y="318" type="line"/>
      <point x="165" y="318"/>
      <point x="139" y="318"/>
    </contour>
    <contour>
      <point x="520" y="-59" type="curve"/>
      <point x="607" y="-59"/>
      <point x="707" y="-59"/>
      <point x="787" y="-59" type="curve"/>
      <point x="787" y="-29"/>
      <point x="787" y="-35"/>
      <point x="787" y="-2" type="curve"/>
      <point x="703" y="-2"/>
      <point x="604" y="-2"/>
      <point x="520" y="-2" type="curve"/>
      <point x="520" y="-59"/>
      <point x="520" y="-2"/>
    </contour>
    <contour>
      <point x="593" y="245" type="curve"/>
      <point x="604" y="278"/>
      <point x="618" y="307"/>
      <point x="653" y="307" type="curve"/>
      <point x="690" y="307"/>
      <point x="705" y="275"/>
      <point x="705" y="233" type="curve"/>
      <point x="705" y="192"/>
      <point x="684" y="168"/>
      <point x="657" y="137" type="curve"/>
      <point x="612" y="91"/>
      <point x="566" y="44"/>
      <point x="520" y="-2" type="curve"/>
      <point x="525" y="-59"/>
      <point x="520" y="-2"/>
      <point x="525" y="-59" type="curve"/>
      <point x="582" y="-9"/>
      <point x="653" y="41"/>
      <point x="704" y="92" type="curve"/>
      <point x="744" y="138"/>
      <point x="774" y="174"/>
      <point x="774" y="236" type="curve"/>
      <point x="774" y="313"/>
      <point x="730" y="364"/>
      <point x="656" y="364" type="curve"/>
      <point x="597" y="364"/>
      <point x="558" y="335"/>
      <point x="540" y="265" type="curve"/>
      <point x="593" y="245"/>
      <point x="540" y="265"/>
    </contour>
  </outline>
</glyph>
<glyph name="threequarters" format="1">
  <advance width="801"/>
  <unicode hex="00BE"/>
  <outline>
    <contour>
      <point x="302" y="-62" type="line"/>
      <point x="613" y="730" type="line"/>
      <point x="530" y="730" type="line"/>
      <point x="221" y="-62" type="line"/>
    </contour>
    <contour>
      <point x="87" y="639" type="curve"/>
      <point x="101" y="656"/>
      <point x="116" y="674"/>
      <point x="140" y="674" type="curve"/>
      <point x="175" y="674"/>
      <point x="193" y="648"/>
      <point x="193" y="610" type="curve"/>
      <point x="193" y="570"/>
      <point x="155" y="549"/>
      <point x="110" y="545" type="curve"/>
      <point x="110" y="496"/>
      <point x="110" y="545"/>
      <point x="110" y="496" type="curve"/>
      <point x="197" y="499"/>
      <point x="265" y="536"/>
      <point x="265" y="616" type="curve"/>
      <point x="265" y="688"/>
      <point x="220" y="731"/>
      <point x="147" y="731" type="curve"/>
      <point x="104" y="731"/>
      <point x="66" y="708"/>
      <point x="43" y="675" type="curve"/>
      <point x="87" y="639"/>
      <point x="43" y="675"/>
    </contour>
    <contour>
      <point x="41" y="338" type="curve"/>
      <point x="69" y="316"/>
      <point x="99" y="303"/>
      <point x="134" y="303" type="curve"/>
      <point x="220" y="301"/>
      <point x="277" y="344"/>
      <point x="277" y="427" type="curve"/>
      <point x="277" y="508"/>
      <point x="201" y="533"/>
      <point x="110" y="537" type="curve"/>
      <point x="110" y="494"/>
      <point x="110" y="537"/>
      <point x="110" y="494" type="curve"/>
      <point x="164" y="490"/>
      <point x="204" y="468"/>
      <point x="204" y="424" type="curve"/>
      <point x="204" y="384"/>
      <point x="180" y="358"/>
      <point x="141" y="359" type="curve"/>
      <point x="117" y="359"/>
      <point x="96" y="367"/>
      <point x="77" y="381" type="curve"/>
      <point x="41" y="338"/>
      <point x="77" y="381"/>
    </contour>
    <contour>
      <point x="771" y="109" type="line"/>
      <point x="473" y="109" type="line"/>
      <point x="473" y="53" type="line"/>
      <point x="771" y="53" type="line"/>
    </contour>
    <contour>
      <point x="503" y="56" type="line"/>
      <point x="684" y="359" type="line"/>
      <point x="631" y="372" type="line"/>
      <point x="473" y="109" type="line"/>
    </contour>
    <contour>
      <point x="703" y="-58" type="line"/>
      <point x="703" y="372" type="line"/>
      <point x="631" y="372" type="line"/>
      <point x="631" y="-58" type="line"/>
    </contour>
  </outline>
</glyph>
<glyph name="questiondown" format="1">
  <advance width="435"/>
  <unicode hex="00BF"/>
  <outline>
    <contour>
      <point x="266" y="369" type="curve"/>
      <point x="266" y="406"/>
      <point x="266" y="470"/>
      <point x="266" y="507" type="curve"/>
      <point x="186" y="507"/>
      <point x="266" y="507"/>
      <point x="186" y="507" type="curve"/>
      <point x="186" y="470"/>
      <point x="186" y="406"/>
      <point x="186" y="369" type="curve"/>
      <point x="266" y="369"/>
      <point x="186" y="369"/>
    </contour>
    <contour>
      <point x="340" y="128" type="line"/>
      <point x="314" y="93"/>
      <point x="284" y="69"/>
      <point x="237" y="69" type="curve"/>
      <point x="162" y="69"/>
      <point x="128" y="130"/>
      <point x="128" y="209" type="curve"/>
      <point x="128" y="300"/>
      <point x="171" y="369"/>
      <point x="257" y="369" type="curve"/>
      <point x="257" y="401"/>
      <point x="257" y="405"/>
      <point x="257" y="436" type="curve"/>
      <point x="122" y="436"/>
      <point x="44" y="343"/>
      <point x="44" y="209" type="curve"/>
      <point x="44" y="82"/>
      <point x="115" y="-5"/>
      <point x="233" y="-5" type="curve"/>
      <point x="305" y="-5"/>
      <point x="354" y="25"/>
      <point x="388" y="74" type="curve"/>
    </contour>
    <contour>
      <point x="178" y="689" type="curve"/>
      <point x="178" y="658"/>
      <point x="199" y="643"/>
      <point x="227" y="643" type="curve"/>
      <point x="255" y="643"/>
      <point x="273" y="660"/>
      <point x="273" y="689" type="curve"/>
      <point x="178" y="689"/>
      <point x="273" y="689"/>
      <point x="178" y="689" type="curve"/>
      <point x="178" y="720"/>
      <point x="198" y="735"/>
      <point x="227" y="735" type="curve"/>
      <point x="256" y="735"/>
      <point x="273" y="719"/>
      <point x="273" y="689" type="curve"/>
      <point x="178" y="689"/>
      <point x="273" y="689"/>
    </contour>
  </outline>
</glyph>
<glyph name="Aacute" format="1">
  <advance width="524"/>
  <unicode hex="00C1"/>
  <outline>
    <contour>
      <point x="376" y="286" type="curve"/>
      <point x="300" y="286"/>
      <point x="224" y="286"/>
      <point x="148" y="286" type="curve"/>
      <point x="112" y="213"/>
      <point x="148" y="286"/>
      <point x="112" y="213" type="curve"/>
      <point x="209" y="213"/>
      <point x="307" y="213"/>
      <point x="405" y="213" type="curve"/>
      <point x="376" y="286"/>
      <point x="405" y="213"/>
    </contour>
    <contour>
      <point x="507" y="0" type="curve"/>
      <point x="441" y="241"/>
      <point x="372" y="481"/>
      <point x="306" y="722" type="curve"/>
      <point x="227" y="722"/>
      <point x="306" y="722"/>
      <point x="227" y="722" type="curve"/>
      <point x="291" y="482"/>
      <point x="351" y="240"/>
      <point x="416" y="0" type="curve"/>
      <point x="507" y="0"/>
      <point x="416" y="0"/>
    </contour>
    <contour>
      <point x="95" y="0" type="curve"/>
      <point x="167" y="240"/>
      <point x="233" y="482"/>
      <point x="305" y="722" type="curve"/>
      <point x="225" y="722"/>
      <point x="305" y="722"/>
      <point x="225" y="722" type="curve"/>
      <point x="152" y="480"/>
      <point x="73" y="242"/>
      <point x="0" y="0" type="curve"/>
      <point x="95" y="0"/>
      <point x="0" y="0"/>
    </contour>
    <contour>
      <point x="303" y="801" type="line"/>
      <point x="403" y="967" type="line"/>
      <point x="296" y="967" type="line"/>
      <point x="220" y="801" type="line"/>
    </contour>
  </outline>
</glyph>
<glyph name="Atilde" format="1">
  <advance width="524"/>
  <unicode hex="00C3"/>
  <outline>
    <contour>
      <point x="376" y="286" type="curve"/>
      <point x="300" y="286"/>
      <point x="224" y="286"/>
      <point x="148" y="286" type="curve"/>
      <point x="112" y="213"/>
      <point x="148" y="286"/>
      <point x="112" y="213" type="curve"/>
      <point x="209" y="213"/>
      <point x="307" y="213"/>
      <point x="405" y="213" type="curve"/>
      <point x="376" y="286"/>
      <point x="405" y="213"/>
    </contour>
    <contour>
      <point x="507" y="0" type="curve"/>
      <point x="441" y="241"/>
      <point x="372" y="481"/>
      <point x="306" y="722" type="curve"/>
      <point x="227" y="722"/>
      <point x="306" y="722"/>
      <point x="227" y="722" type="curve"/>
      <point x="291" y="482"/>
      <point x="351" y="240"/>
      <point x="416" y="0" type="curve"/>
      <point x="507" y="0"/>
      <point x="416" y="0"/>
    </contour>
    <contour>
      <point x="95" y="0" type="curve"/>
      <point x="167" y="240"/>
      <point x="233" y="482"/>
      <point x="305" y="722" type="curve"/>
      <point x="225" y="722"/>
      <point x="305" y="722"/>
      <point x="225" y="722" type="curve"/>
      <point x="152" y="480"/>
      <point x="73" y="242"/>
      <point x="0" y="0" type="curve"/>
      <point x="95" y="0"/>
      <point x="0" y="0"/>
    </contour>
    <contour>
      <point x="369" y="961" type="curve"/>
      <point x="356" y="919"/>
      <point x="347" y="891"/>
      <point x="324" y="891" type="curve"/>
      <point x="296" y="891"/>
      <point x="284" y="905"/>
      <point x="267" y="925" type="curve"/>
      <point x="244" y="949"/>
      <point x="230" y="965"/>
      <point x="198" y="965" type="curve"/>
      <point x="135" y="965"/>
      <point x="112" y="903"/>
      <point x="97" y="839" type="curve"/>
      <point x="162" y="804"/>
      <point x="97" y="840"/>
      <point x="162" y="804" type="curve"/>
      <point x="176" y="850"/>
      <point x="187" y="876"/>
      <point x="216" y="876" type="curve"/>
      <point x="239" y="876"/>
      <point x="249" y="862"/>
      <point x="263" y="845" type="curve"/>
      <point x="288" y="817"/>
      <point x="305" y="800"/>
      <point x="341" y="800" type="curve"/>
      <point x="405" y="800"/>
      <point x="420" y="862"/>
      <point x="439" y="928" type="curve"/>
      <point x="369" y="961"/>
      <point x="439" y="927"/>
    </contour>
  </outline>
</glyph>
<glyph name="Adieresis" format="1">
  <advance width="524"/>
  <unicode hex="00C4"/>
  <outline>
    <contour>
      <point x="376" y="286" type="curve"/>
      <point x="300" y="286"/>
      <point x="224" y="286"/>
      <point x="148" y="286" type="curve"/>
      <point x="112" y="213"/>
      <point x="148" y="286"/>
      <point x="112" y="213" type="curve"/>
      <point x="209" y="213"/>
      <point x="307" y="213"/>
      <point x="405" y="213" type="curve"/>
      <point x="376" y="286"/>
      <point x="405" y="213"/>
    </contour>
    <contour>
      <point x="507" y="0" type="curve"/>
      <point x="441" y="241"/>
      <point x="372" y="481"/>
      <point x="306" y="722" type="curve"/>
      <point x="227" y="722"/>
      <point x="306" y="722"/>
      <point x="227" y="722" type="curve"/>
      <point x="291" y="482"/>
      <point x="351" y="240"/>
      <point x="416" y="0" type="curve"/>
      <point x="507" y="0"/>
      <point x="416" y="0"/>
    </contour>
    <contour>
      <point x="95" y="0" type="curve"/>
      <point x="167" y="240"/>
      <point x="233" y="482"/>
      <point x="305" y="722" type="curve"/>
      <point x="225" y="722"/>
      <point x="305" y="722"/>
      <point x="225" y="722" type="curve"/>
      <point x="152" y="480"/>
      <point x="73" y="242"/>
      <point x="0" y="0" type="curve"/>
      <point x="95" y="0"/>
      <point x="0" y="0"/>
    </contour>
    <contour>
      <point x="239" y="842" type="curve"/>
      <point x="239" y="873"/>
      <point x="219" y="888"/>
      <point x="191" y="888" type="curve"/>
      <point x="162" y="888"/>
      <point x="144" y="871"/>
      <point x="144" y="842" type="curve"/>
      <point x="239" y="842"/>
      <point x="144" y="842"/>
      <point x="239" y="842" type="curve"/>
      <point x="239" y="811"/>
      <point x="219" y="796"/>
      <point x="191" y="796" type="curve"/>
      <point x="162" y="796"/>
      <point x="144" y="812"/>
      <point x="144" y="842" type="curve"/>
      <point x="239" y="842"/>
      <point x="144" y="842"/>
    </contour>
    <contour>
      <point x="385" y="842" type="curve"/>
      <point x="385" y="873"/>
      <point x="364" y="888"/>
      <point x="336" y="888" type="curve"/>
      <point x="308" y="888"/>
      <point x="290" y="871"/>
      <point x="290" y="842" type="curve"/>
      <point x="385" y="842"/>
      <point x="290" y="842"/>
      <point x="385" y="842" type="curve"/>
      <point x="385" y="811"/>
      <point x="365" y="796"/>
      <point x="336" y="796" type="curve"/>
      <point x="307" y="796"/>
      <point x="290" y="812"/>
      <point x="290" y="842" type="curve"/>
      <point x="385" y="842"/>
      <point x="290" y="842"/>
    </contour>
  </outline>
</glyph>
<glyph name="Aring" format="1">
  <advance width="524"/>
  <unicode hex="00C5"/>
  <outline>
    <contour>
      <point x="376" y="286" type="curve"/>
      <point x="300" y="286"/>
      <point x="224" y="286"/>
      <point x="148" y="286" type="curve"/>
      <point x="112" y="213"/>
      <point x="148" y="286"/>
      <point x="112" y="213" type="curve"/>
      <point x="209" y="213"/>
      <point x="307" y="213"/>
      <point x="405" y="213" type="curve"/>
      <point x="376" y="286"/>
      <point x="405" y="213"/>
    </contour>
    <contour>
      <point x="507" y="0" type="curve"/>
      <point x="441" y="241"/>
      <point x="372" y="481"/>
      <point x="306" y="722" type="curve"/>
      <point x="227" y="722"/>
      <point x="306" y="722"/>
      <point x="227" y="722" type="curve"/>
      <point x="291" y="482"/>
      <point x="351" y="240"/>
      <point x="416" y="0" type="curve"/>
      <point x="507" y="0"/>
      <point x="416" y="0"/>
    </contour>
    <contour>
      <point x="95" y="0" type="curve"/>
      <point x="167" y="240"/>
      <point x="233" y="482"/>
      <point x="305" y="722" type="curve"/>
      <point x="225" y="722"/>
      <point x="305" y="722"/>
      <point x="225" y="722" type="curve"/>
      <point x="152" y="480"/>
      <point x="73" y="242"/>
      <point x="0" y="0" type="curve"/>
      <point x="95" y="0"/>
      <point x="0" y="0"/>
    </contour>
    <contour>
      <point x="148" y="933" type="curve"/>
      <point x="148" y="854"/>
      <point x="189" y="800"/>
      <point x="264" y="800" type="curve"/>
      <point x="339" y="800"/>
      <point x="381" y="853"/>
      <point x="381" y="933" type="curve"/>
      <point x="381" y="1011"/>
      <point x="338" y="1066"/>
      <point x="262" y="1066" type="curve"/>
      <point x="187" y="1066"/>
      <point x="148" y="1011"/>
      <point x="148" y="933" type="curve"/>
      <point x="225" y="933"/>
      <point x="142" y="933"/>
      <point x="219" y="933" type="curve"/>
      <point x="219" y="969"/>
      <point x="226" y="1002"/>
      <point x="262" y="1002" type="curve"/>
      <point x="297" y="1002"/>
      <point x="306" y="970"/>
      <point x="306" y="933" type="curve"/>
      <point x="306" y="896"/>
      <point x="299" y="863"/>
      <point x="264" y="863" type="curve"/>
      <point x="228" y="863"/>
      <point x="219" y="896"/>
      <point x="219" y="933" type="curve"/>
      <point x="142" y="933"/>
      <point x="225" y="933"/>
    </contour>
  </outline>
</glyph>
<glyph name="AE" format="1">
  <advance width="727"/>
  <unicode hex="00C6"/>
  <outline>
    <contour>
      <point x="360" y="277" type="curve"/>
      <point x="284" y="277"/>
      <point x="231" y="277"/>
      <point x="155" y="277" type="curve"/>
      <point x="119" y="204"/>
      <point x="155" y="277"/>
      <point x="119" y="204" type="curve"/>
      <point x="217" y="204"/>
      <point x="290" y="204"/>
      <point x="388" y="204" type="curve"/>
      <point x="360" y="277"/>
      <point x="388" y="204"/>
    </contour>
    <contour>
      <point x="87" y="0" type="curve"/>
      <point x="426" y="722" type="line"/>
      <point x="347" y="722"/>
      <point x="426" y="722"/>
      <point x="347" y="722" type="curve"/>
      <point x="-9" y="0" type="line"/>
      <point x="87" y="0"/>
      <point x="-9" y="0"/>
    </contour>
    <contour>
      <point x="394" y="339" type="curve"/>
      <point x="473" y="339"/>
      <point x="553" y="339"/>
      <point x="633" y="339" type="curve"/>
      <point x="633" y="408"/>
      <point x="633" y="339"/>
      <point x="633" y="408" type="curve"/>
      <point x="553" y="408"/>
      <point x="473" y="408"/>
      <point x="394" y="408" type="curve"/>
      <point x="394" y="339"/>
      <point x="394" y="408"/>
    </contour>
    <contour>
      <point x="383" y="653" type="curve"/>
      <point x="482" y="653"/>
      <point x="579" y="653"/>
      <point x="678" y="653" type="curve"/>
      <point x="678" y="722"/>
      <point x="678" y="653"/>
      <point x="678" y="722" type="curve"/>
      <point x="579" y="722"/>
      <point x="482" y="722"/>
      <point x="383" y="722" type="curve"/>
      <point x="383" y="653"/>
      <point x="383" y="722"/>
    </contour>
    <contour>
      <point x="434" y="0" type="curve"/>
      <point x="434" y="722" type="line"/>
      <point x="347" y="722"/>
      <point x="434" y="722"/>
      <point x="347" y="722" type="curve"/>
      <point x="347" y="481"/>
      <point x="347" y="241"/>
      <point x="347" y="0" type="curve"/>
      <point x="434" y="0"/>
      <point x="347" y="0"/>
    </contour>
    <contour>
      <point x="383" y="0" type="curve"/>
      <point x="490" y="0"/>
      <point x="596" y="0"/>
      <point x="703" y="0" type="curve"/>
      <point x="703" y="69"/>
      <point x="703" y="0"/>
      <point x="703" y="69" type="curve"/>
      <point x="596" y="69"/>
      <point x="490" y="69"/>
      <point x="383" y="69" type="curve"/>
      <point x="383" y="0"/>
      <point x="383" y="69"/>
    </contour>
  </outline>
</glyph>
<glyph name="Ccedilla" format="1">
  <advance width="538"/>
  <unicode hex="00C7"/>
  <outline>
    <contour>
      <point x="505" y="654" type="curve"/>
      <point x="453" y="696"/>
      <point x="392" y="727"/>
      <point x="319" y="727" type="curve"/>
      <point x="125" y="727"/>
      <point x="53" y="565"/>
      <point x="53" y="345" type="curve"/>
      <point x="53" y="143"/>
      <point x="123" y="-5"/>
      <point x="305" y="-5" type="curve"/>
      <point x="399" y="-5"/>
      <point x="460" y="31"/>
      <point x="518" y="98" type="curve"/>
      <point x="466" y="149"/>
      <point x="517" y="98"/>
      <point x="465" y="149" type="curve"/>
      <point x="420" y="100"/>
      <point x="378" y="68"/>
      <point x="309" y="68" type="curve"/>
      <point x="174" y="68"/>
      <point x="140" y="192"/>
      <point x="140" y="348" type="curve"/>
      <point x="140" y="518"/>
      <point x="174" y="655"/>
      <point x="316" y="655" type="curve"/>
      <point x="371" y="655"/>
      <point x="419" y="631"/>
      <point x="457" y="600" type="curve"/>
      <point x="505" y="654"/>
      <point x="457" y="600"/>
    </contour>
    <contour>
      <point x="265" y="48" type="curve"/>
      <point x="254" y="24"/>
      <point x="228" y="-39"/>
      <point x="218" y="-63" type="curve"/>
      <point x="278" y="-118"/>
      <point x="218" y="-63"/>
      <point x="278" y="-118" type="curve"/>
      <point x="290" y="-91"/>
      <point x="321" y="-26"/>
      <point x="332" y="0" type="curve"/>
      <point x="265" y="48"/>
      <point x="332" y="0"/>
    </contour>
    <contour>
      <point x="278" y="-118" type="curve"/>
      <point x="285" y="-112"/>
      <point x="291" y="-108"/>
      <point x="300" y="-108" type="curve"/>
      <point x="316" y="-108"/>
      <point x="322" y="-122"/>
      <point x="322" y="-141" type="curve"/>
      <point x="322" y="-163"/>
      <point x="309" y="-176"/>
      <point x="287" y="-176" type="curve"/>
      <point x="269" y="-176"/>
      <point x="254" y="-172"/>
      <point x="239" y="-160" type="curve"/>
      <point x="206" y="-211"/>
      <point x="239" y="-160"/>
      <point x="206" y="-211" type="curve"/>
      <point x="230" y="-229"/>
      <point x="253" y="-236"/>
      <point x="283" y="-236" type="curve"/>
      <point x="341" y="-236"/>
      <point x="379" y="-200"/>
      <point x="379" y="-140" type="curve"/>
      <point x="379" y="-82"/>
      <point x="347" y="-42"/>
      <point x="292" y="-42" type="curve"/>
      <point x="264" y="-42"/>
      <point x="243" y="-48"/>
      <point x="218" y="-63" type="curve"/>
      <point x="278" y="-118"/>
      <point x="218" y="-63"/>
    </contour>
  </outline>
</glyph>
<glyph name="Egrave" format="1">
  <advance width="482"/>
  <unicode hex="00C8"/>
  <outline>
    <contour>
      <point x="150" y="339" type="curve"/>
      <point x="229" y="339"/>
      <point x="309" y="339"/>
      <point x="388" y="339" type="curve"/>
      <point x="388" y="408"/>
      <point x="388" y="339"/>
      <point x="388" y="408" type="curve"/>
      <point x="309" y="408"/>
      <point x="229" y="408"/>
      <point x="150" y="408" type="curve"/>
      <point x="150" y="339"/>
      <point x="150" y="408"/>
    </contour>
    <contour>
      <point x="139" y="653" type="curve"/>
      <point x="238" y="653"/>
      <point x="335" y="653"/>
      <point x="434" y="653" type="curve"/>
      <point x="434" y="722"/>
      <point x="434" y="653"/>
      <point x="434" y="722" type="curve"/>
      <point x="335" y="722"/>
      <point x="238" y="722"/>
      <point x="139" y="722" type="curve"/>
      <point x="139" y="653"/>
      <point x="139" y="722"/>
    </contour>
    <contour>
      <point x="190" y="0" type="curve"/>
      <point x="190" y="722" type="line"/>
      <point x="103" y="722"/>
      <point x="190" y="722"/>
      <point x="103" y="722" type="curve"/>
      <point x="103" y="481"/>
      <point x="103" y="241"/>
      <point x="103" y="0" type="curve"/>
      <point x="190" y="0"/>
      <point x="103" y="0"/>
    </contour>
    <contour>
      <point x="139" y="0" type="curve"/>
      <point x="246" y="0"/>
      <point x="352" y="0"/>
      <point x="459" y="0" type="curve"/>
      <point x="459" y="69"/>
      <point x="459" y="0"/>
      <point x="459" y="69" type="curve"/>
      <point x="352" y="69"/>
      <point x="246" y="69"/>
      <point x="139" y="69" type="curve"/>
      <point x="139" y="0"/>
      <point x="139" y="69"/>
    </contour>
    <contour>
      <point x="291" y="802" type="line"/>
      <point x="216" y="968" type="line"/>
      <point x="108" y="968" type="line"/>
      <point x="208" y="802" type="line"/>
    </contour>
  </outline>
</glyph>
<glyph name="Ecircumflex" format="1">
  <advance width="459"/>
  <unicode hex="00CA"/>
  <outline>
    <contour>
      <point x="133" y="339" type="curve"/>
      <point x="213" y="339"/>
      <point x="292" y="339"/>
      <point x="372" y="339" type="curve"/>
      <point x="372" y="408"/>
      <point x="372" y="339"/>
      <point x="372" y="408" type="curve"/>
      <point x="292" y="408"/>
      <point x="213" y="408"/>
      <point x="133" y="408" type="curve"/>
      <point x="133" y="339"/>
      <point x="133" y="408"/>
    </contour>
    <contour>
      <point x="122" y="653" type="curve"/>
      <point x="221" y="653"/>
      <point x="319" y="653"/>
      <point x="418" y="653" type="curve"/>
      <point x="418" y="722"/>
      <point x="418" y="653"/>
      <point x="418" y="722" type="curve"/>
      <point x="319" y="722"/>
      <point x="221" y="722"/>
      <point x="122" y="722" type="curve"/>
      <point x="122" y="653"/>
      <point x="122" y="722"/>
    </contour>
    <contour>
      <point x="174" y="0" type="curve"/>
      <point x="174" y="722" type="line"/>
      <point x="87" y="722"/>
      <point x="174" y="722"/>
      <point x="87" y="722" type="curve"/>
      <point x="87" y="481"/>
      <point x="87" y="241"/>
      <point x="87" y="0" type="curve"/>
      <point x="174" y="0"/>
      <point x="87" y="0"/>
    </contour>
    <contour>
      <point x="122" y="0" type="curve"/>
      <point x="229" y="0"/>
      <point x="335" y="0"/>
      <point x="442" y="0" type="curve"/>
      <point x="442" y="69"/>
      <point x="442" y="0"/>
      <point x="442" y="69" type="curve"/>
      <point x="335" y="69"/>
      <point x="229" y="69"/>
      <point x="122" y="69" type="curve"/>
      <point x="122" y="0"/>
      <point x="122" y="69"/>
    </contour>
    <contour>
      <point x="168" y="801" type="line"/>
      <point x="269" y="967" type="line"/>
      <point x="161" y="967" type="line"/>
      <point x="85" y="801" type="line"/>
    </contour>
    <contour>
      <point x="378" y="801" type="line"/>
      <point x="302" y="967" type="line"/>
      <point x="195" y="967" type="line"/>
      <point x="295" y="801" type="line"/>
    </contour>
  </outline>
</glyph>
<glyph name="Edieresis" format="1">
  <advance width="472"/>
  <unicode hex="00CB"/>
  <outline>
    <contour>
      <point x="140" y="339" type="curve"/>
      <point x="219" y="339"/>
      <point x="299" y="339"/>
      <point x="378" y="339" type="curve"/>
      <point x="378" y="408"/>
      <point x="378" y="339"/>
      <point x="378" y="408" type="curve"/>
      <point x="299" y="408"/>
      <point x="219" y="408"/>
      <point x="140" y="408" type="curve"/>
      <point x="140" y="339"/>
      <point x="140" y="408"/>
    </contour>
    <contour>
      <point x="129" y="653" type="curve"/>
      <point x="227" y="653"/>
      <point x="325" y="653"/>
      <point x="424" y="653" type="curve"/>
      <point x="424" y="722"/>
      <point x="424" y="653"/>
      <point x="424" y="722" type="curve"/>
      <point x="325" y="722"/>
      <point x="227" y="722"/>
      <point x="129" y="722" type="curve"/>
      <point x="129" y="653"/>
      <point x="129" y="722"/>
    </contour>
    <contour>
      <point x="180" y="0" type="curve"/>
      <point x="180" y="722" type="line"/>
      <point x="93" y="722"/>
      <point x="180" y="722"/>
      <point x="93" y="722" type="curve"/>
      <point x="93" y="481"/>
      <point x="93" y="241"/>
      <point x="93" y="0" type="curve"/>
      <point x="180" y="0"/>
      <point x="93" y="0"/>
    </contour>
    <contour>
      <point x="129" y="0" type="curve"/>
      <point x="235" y="0"/>
      <point x="342" y="0"/>
      <point x="448" y="0" type="curve"/>
      <point x="448" y="69"/>
      <point x="448" y="0"/>
      <point x="448" y="69" type="curve"/>
      <point x="342" y="69"/>
      <point x="235" y="69"/>
      <point x="129" y="69" type="curve"/>
      <point x="129" y="0"/>
      <point x="129" y="69"/>
    </contour>
    <contour>
      <point x="213" y="842" type="curve"/>
      <point x="213" y="873"/>
      <point x="193" y="888"/>
      <point x="165" y="888" type="curve"/>
      <point x="136" y="888"/>
      <point x="118" y="871"/>
      <point x="118" y="842" type="curve"/>
      <point x="213" y="842"/>
      <point x="118" y="842"/>
      <point x="213" y="842" type="curve"/>
      <point x="213" y="811"/>
      <point x="193" y="796"/>
      <point x="165" y="796" type="curve"/>
      <point x="136" y="796"/>
      <point x="118" y="812"/>
      <point x="118" y="842" type="curve"/>
      <point x="213" y="842"/>
      <point x="118" y="842"/>
    </contour>
    <contour>
      <point x="359" y="842" type="curve"/>
      <point x="359" y="873"/>
      <point x="339" y="888"/>
      <point x="311" y="888" type="curve"/>
      <point x="282" y="888"/>
      <point x="264" y="871"/>
      <point x="264" y="842" type="curve"/>
      <point x="359" y="842"/>
      <point x="264" y="842"/>
      <point x="359" y="842" type="curve"/>
      <point x="359" y="811"/>
      <point x="339" y="796"/>
      <point x="311" y="796" type="curve"/>
      <point x="281" y="796"/>
      <point x="264" y="812"/>
      <point x="264" y="842" type="curve"/>
      <point x="359" y="842"/>
      <point x="264" y="842"/>
    </contour>
  </outline>
</glyph>
<glyph name="Igrave" format="1">
  <advance width="282"/>
  <unicode hex="00CC"/>
  <outline>
    <contour>
      <point x="188" y="0" type="curve"/>
      <point x="188" y="241"/>
      <point x="188" y="481"/>
      <point x="188" y="722" type="curve"/>
      <point x="101" y="722"/>
      <point x="188" y="722"/>
      <point x="101" y="722" type="curve"/>
      <point x="101" y="481"/>
      <point x="101" y="241"/>
      <point x="101" y="0" type="curve"/>
      <point x="188" y="0"/>
      <point x="101" y="0"/>
    </contour>
    <contour>
      <point x="189" y="802" type="line"/>
      <point x="113" y="968" type="line"/>
      <point x="6" y="968" type="line"/>
      <point x="106" y="802" type="line"/>
    </contour>
  </outline>
</glyph>
<glyph name="Iacute" format="1">
  <advance width="277"/>
  <unicode hex="00CD"/>
  <outline>
    <contour>
      <point x="180" y="0" type="curve"/>
      <point x="180" y="241"/>
      <point x="180" y="481"/>
      <point x="180" y="722" type="curve"/>
      <point x="93" y="722"/>
      <point x="180" y="722"/>
      <point x="93" y="722" type="curve"/>
      <point x="93" y="481"/>
      <point x="93" y="241"/>
      <point x="93" y="0" type="curve"/>
      <point x="180" y="0"/>
      <point x="93" y="0"/>
    </contour>
    <contour>
      <point x="177" y="801" type="line"/>
      <point x="277" y="967" type="line"/>
      <point x="170" y="967" type="line"/>
      <point x="94" y="801" type="line"/>
    </contour>
  </outline>
</glyph>
<glyph name="Icircumflex" format="1">
  <advance width="293"/>
  <unicode hex="00CE"/>
  <outline>
    <contour>
      <point x="192" y="0" type="curve"/>
      <point x="192" y="241"/>
      <point x="192" y="481"/>
      <point x="192" y="722" type="curve"/>
      <point x="105" y="722"/>
      <point x="192" y="722"/>
      <point x="105" y="722" type="curve"/>
      <point x="105" y="481"/>
      <point x="105" y="241"/>
      <point x="105" y="0" type="curve"/>
      <point x="192" y="0"/>
      <point x="105" y="0"/>
    </contour>
    <contour>
      <point x="87" y="801" type="line"/>
      <point x="187" y="967" type="line"/>
      <point x="79" y="967" type="line"/>
      <point x="4" y="801" type="line"/>
    </contour>
    <contour>
      <point x="297" y="801" type="line"/>
      <point x="221" y="967" type="line"/>
      <point x="113" y="967" type="line"/>
      <point x="213" y="801" type="line"/>
    </contour>
  </outline>
</glyph>
<glyph name="Idieresis" format="1">
  <advance width="244"/>
  <unicode hex="00CF"/>
  <outline>
    <contour>
      <point x="168" y="0" type="curve"/>
      <point x="168" y="241"/>
      <point x="168" y="481"/>
      <point x="168" y="722" type="curve"/>
      <point x="80" y="722"/>
      <point x="168" y="722"/>
      <point x="80" y="722" type="curve"/>
      <point x="80" y="481"/>
      <point x="80" y="241"/>
      <point x="80" y="0" type="curve"/>
      <point x="168" y="0"/>
      <point x="80" y="0"/>
    </contour>
    <contour>
      <point x="101" y="842" type="curve"/>
      <point x="101" y="873"/>
      <point x="81" y="888"/>
      <point x="53" y="888" type="curve"/>
      <point x="24" y="888"/>
      <point x="6" y="871"/>
      <point x="6" y="842" type="curve"/>
      <point x="101" y="842"/>
      <point x="6" y="842"/>
      <point x="101" y="842" type="curve"/>
      <point x="101" y="811"/>
      <point x="81" y="796"/>
      <point x="53" y="796" type="curve"/>
      <point x="24" y="796"/>
      <point x="6" y="812"/>
      <point x="6" y="842" type="curve"/>
      <point x="101" y="842"/>
      <point x="6" y="842"/>
    </contour>
    <contour>
      <point x="247" y="842" type="curve"/>
      <point x="247" y="873"/>
      <point x="226" y="888"/>
      <point x="198" y="888" type="curve"/>
      <point x="170" y="888"/>
      <point x="152" y="871"/>
      <point x="152" y="842" type="curve"/>
      <point x="247" y="842"/>
      <point x="152" y="842"/>
      <point x="247" y="842" type="curve"/>
      <point x="247" y="811"/>
      <point x="227" y="796"/>
      <point x="198" y="796" type="curve"/>
      <point x="169" y="796"/>
      <point x="152" y="812"/>
      <point x="152" y="842" type="curve"/>
      <point x="247" y="842"/>
      <point x="152" y="842"/>
    </contour>
  </outline>
</glyph>
<glyph name="Ntilde" format="1">
  <advance width="668"/>
  <unicode hex="00D1"/>
  <outline>
    <contour>
      <point x="575" y="0" type="curve"/>
      <point x="445" y="241"/>
      <point x="315" y="481"/>
      <point x="186" y="722" type="curve"/>
      <point x="93" y="722"/>
      <point x="186" y="722"/>
      <point x="94" y="722" type="curve"/>
      <point x="223" y="481"/>
      <point x="353" y="241"/>
      <point x="483" y="0" type="curve"/>
      <point x="575" y="0"/>
      <point x="482" y="0"/>
    </contour>
    <contour>
      <point x="487" y="722" type="curve"/>
      <point x="487" y="481"/>
      <point x="487" y="241"/>
      <point x="487" y="0" type="curve"/>
      <point x="574" y="0"/>
      <point x="487" y="0"/>
      <point x="574" y="0" type="curve"/>
      <point x="574" y="241"/>
      <point x="574" y="481"/>
      <point x="574" y="722" type="curve"/>
      <point x="487" y="722"/>
      <point x="574" y="722"/>
    </contour>
    <contour>
      <point x="182" y="0" type="curve"/>
      <point x="182" y="241"/>
      <point x="182" y="481"/>
      <point x="182" y="722" type="curve"/>
      <point x="94" y="722"/>
      <point x="182" y="722"/>
      <point x="94" y="722" type="curve"/>
      <point x="94" y="481"/>
      <point x="94" y="241"/>
      <point x="94" y="0" type="curve"/>
      <point x="182" y="0"/>
      <point x="94" y="0"/>
    </contour>
    <contour>
      <point x="443" y="961" type="curve"/>
      <point x="430" y="919"/>
      <point x="421" y="891"/>
      <point x="397" y="891" type="curve"/>
      <point x="370" y="891"/>
      <point x="358" y="905"/>
      <point x="341" y="925" type="curve"/>
      <point x="318" y="949"/>
      <point x="304" y="965"/>
      <point x="272" y="965" type="curve"/>
      <point x="209" y="965"/>
      <point x="186" y="903"/>
      <point x="170" y="839" type="curve"/>
      <point x="236" y="804"/>
      <point x="170" y="840"/>
      <point x="236" y="804" type="curve"/>
      <point x="250" y="850"/>
      <point x="260" y="876"/>
      <point x="290" y="876" type="curve"/>
      <point x="313" y="876"/>
      <point x="323" y="862"/>
      <point x="337" y="845" type="curve"/>
      <point x="362" y="817"/>
      <point x="379" y="800"/>
      <point x="415" y="800" type="curve"/>
      <point x="479" y="800"/>
      <point x="494" y="862"/>
      <point x="513" y="928" type="curve"/>
      <point x="443" y="961"/>
      <point x="513" y="927"/>
    </contour>
  </outline>
</glyph>
<glyph name="Ocircumflex" format="1">
  <advance width="613"/>
  <unicode hex="00D4"/>
  <outline>
    <contour>
      <point x="141" y="360" type="curve" name="FullCurve"/>
      <point x="141" y="517"/>
      <point x="166" y="655"/>
      <point x="304" y="655" type="curve" name="FullCurve"/>
      <point x="439" y="655"/>
      <point x="473" y="520"/>
      <point x="473" y="363" type="curve" name="FullCurve"/>
      <point x="473" y="206"/>
      <point x="445" y="67"/>
      <point x="308" y="67" type="curve" name="FullCurve"/>
      <point x="171" y="67"/>
      <point x="141" y="202"/>
      <point x="141" y="360" type="curve" name="FullCurve"/>
      <point x="53" y="360"/>
      <point x="141" y="360"/>
      <point x="53" y="360" type="curve" name="FullCurve"/>
      <point x="53" y="156"/>
      <point x="122" y="-5"/>
      <point x="305" y="-5" type="curve" name="FullCurve"/>
      <point x="489" y="-5"/>
      <point x="560" y="158"/>
      <point x="560" y="363" type="curve" name="FullCurve"/>
      <point x="560" y="565"/>
      <point x="491" y="727"/>
      <point x="308" y="727" type="curve" name="FullCurve"/>
      <point x="124" y="727"/>
      <point x="53" y="564"/>
      <point x="53" y="360" type="curve" name="FullCurve"/>
      <point x="141" y="360"/>
      <point x="53" y="360"/>
    </contour>
    <contour>
      <point x="243" y="801" type="line"/>
      <point x="343" y="967" type="line"/>
      <point x="236" y="967" type="line"/>
      <point x="160" y="801" type="line"/>
    </contour>
    <contour>
      <point x="453" y="801" type="line"/>
      <point x="377" y="967" type="line"/>
      <point x="270" y="967" type="line"/>
      <point x="370" y="801" type="line"/>
    </contour>
  </outline>
</glyph>
<glyph name="Otilde" format="1">
  <advance width="613"/>
  <unicode hex="00D5"/>
  <outline>
    <contour>
      <point x="141" y="360" type="curve" name="FullCurve"/>
      <point x="141" y="517"/>
      <point x="166" y="655"/>
      <point x="304" y="655" type="curve" name="FullCurve"/>
      <point x="439" y="655"/>
      <point x="473" y="520"/>
      <point x="473" y="363" type="curve" name="FullCurve"/>
      <point x="473" y="206"/>
      <point x="445" y="67"/>
      <point x="308" y="67" type="curve" name="FullCurve"/>
      <point x="171" y="67"/>
      <point x="141" y="202"/>
      <point x="141" y="360" type="curve" name="FullCurve"/>
      <point x="53" y="360"/>
      <point x="141" y="360"/>
      <point x="53" y="360" type="curve" name="FullCurve"/>
      <point x="53" y="156"/>
      <point x="122" y="-5"/>
      <point x="305" y="-5" type="curve" name="FullCurve"/>
      <point x="489" y="-5"/>
      <point x="560" y="158"/>
      <point x="560" y="363" type="curve" name="FullCurve"/>
      <point x="560" y="565"/>
      <point x="491" y="727"/>
      <point x="308" y="727" type="curve" name="FullCurve"/>
      <point x="124" y="727"/>
      <point x="53" y="564"/>
      <point x="53" y="360" type="curve" name="FullCurve"/>
      <point x="141" y="360"/>
      <point x="53" y="360"/>
    </contour>
    <contour>
      <point x="412" y="961" type="curve"/>
      <point x="399" y="919"/>
      <point x="390" y="891"/>
      <point x="366" y="891" type="curve"/>
      <point x="339" y="891"/>
      <point x="326" y="905"/>
      <point x="309" y="925" type="curve"/>
      <point x="287" y="949"/>
      <point x="273" y="965"/>
      <point x="241" y="965" type="curve"/>
      <point x="177" y="965"/>
      <point x="155" y="903"/>
      <point x="139" y="839" type="curve"/>
      <point x="204" y="804"/>
      <point x="139" y="840"/>
      <point x="204" y="804" type="curve"/>
      <point x="219" y="850"/>
      <point x="229" y="876"/>
      <point x="258" y="876" type="curve"/>
      <point x="282" y="876"/>
      <point x="292" y="862"/>
      <point x="306" y="845" type="curve"/>
      <point x="331" y="817"/>
      <point x="348" y="800"/>
      <point x="384" y="800" type="curve"/>
      <point x="447" y="800"/>
      <point x="462" y="862"/>
      <point x="482" y="928" type="curve"/>
      <point x="412" y="961"/>
      <point x="482" y="927"/>
    </contour>
  </outline>
</glyph>
<glyph name="Odieresis" format="1">
  <advance width="613"/>
  <unicode hex="00D6"/>
  <outline>
    <contour>
      <point x="141" y="360" type="curve" name="FullCurve"/>
      <point x="141" y="517"/>
      <point x="166" y="655"/>
      <point x="304" y="655" type="curve" name="FullCurve"/>
      <point x="439" y="655"/>
      <point x="473" y="520"/>
      <point x="473" y="363" type="curve" name="FullCurve"/>
      <point x="473" y="206"/>
      <point x="445" y="67"/>
      <point x="308" y="67" type="curve" name="FullCurve"/>
      <point x="171" y="67"/>
      <point x="141" y="202"/>
      <point x="141" y="360" type="curve" name="FullCurve"/>
      <point x="53" y="360"/>
      <point x="141" y="360"/>
      <point x="53" y="360" type="curve" name="FullCurve"/>
      <point x="53" y="156"/>
      <point x="122" y="-5"/>
      <point x="305" y="-5" type="curve" name="FullCurve"/>
      <point x="489" y="-5"/>
      <point x="560" y="158"/>
      <point x="560" y="363" type="curve" name="FullCurve"/>
      <point x="560" y="565"/>
      <point x="491" y="727"/>
      <point x="308" y="727" type="curve" name="FullCurve"/>
      <point x="124" y="727"/>
      <point x="53" y="564"/>
      <point x="53" y="360" type="curve" name="FullCurve"/>
      <point x="141" y="360"/>
      <point x="53" y="360"/>
    </contour>
    <contour>
      <point x="282" y="842" type="curve"/>
      <point x="282" y="873"/>
      <point x="261" y="888"/>
      <point x="233" y="888" type="curve"/>
      <point x="205" y="888"/>
      <point x="187" y="871"/>
      <point x="187" y="842" type="curve"/>
      <point x="282" y="842"/>
      <point x="187" y="842"/>
      <point x="282" y="842" type="curve"/>
      <point x="282" y="811"/>
      <point x="262" y="796"/>
      <point x="233" y="796" type="curve"/>
      <point x="204" y="796"/>
      <point x="187" y="812"/>
      <point x="187" y="842" type="curve"/>
      <point x="282" y="842"/>
      <point x="187" y="842"/>
    </contour>
    <contour>
      <point x="427" y="842" type="curve"/>
      <point x="427" y="873"/>
      <point x="407" y="888"/>
      <point x="379" y="888" type="curve"/>
      <point x="351" y="888"/>
      <point x="332" y="871"/>
      <point x="332" y="842" type="curve"/>
      <point x="427" y="842"/>
      <point x="332" y="842"/>
      <point x="427" y="842" type="curve"/>
      <point x="427" y="811"/>
      <point x="408" y="796"/>
      <point x="379" y="796" type="curve"/>
      <point x="350" y="796"/>
      <point x="332" y="812"/>
      <point x="332" y="842" type="curve"/>
      <point x="427" y="842"/>
      <point x="332" y="842"/>
    </contour>
  </outline>
</glyph>
<glyph name="multiply" format="1">
  <advance width="548"/>
  <unicode hex="00D7"/>
  <outline>
    <contour>
      <point x="104" y="83" type="line"/>
      <point x="496" y="486" type="line"/>
      <point x="445" y="537" type="line"/>
      <point x="53" y="134" type="line"/>
    </contour>
    <contour>
      <point x="496" y="133" type="line"/>
      <point x="104" y="535" type="line"/>
      <point x="53" y="484" type="line"/>
      <point x="445" y="82" type="line"/>
    </contour>
  </outline>
</glyph>
<glyph name="Uacute" format="1">
  <advance width="617"/>
  <unicode hex="00DA"/>
  <outline>
    <contour>
      <point x="86" y="722" type="curve"/>
      <point x="86" y="580"/>
      <point x="86" y="414"/>
      <point x="86" y="272" type="curve"/>
      <point x="86" y="100"/>
      <point x="146" y="-5"/>
      <point x="307" y="-5" type="curve"/>
      <point x="469" y="-5"/>
      <point x="531" y="101"/>
      <point x="531" y="275" type="curve"/>
      <point x="531" y="415"/>
      <point x="531" y="581"/>
      <point x="531" y="722" type="curve"/>
      <point x="452" y="722"/>
      <point x="531" y="722"/>
      <point x="451" y="722" type="curve"/>
      <point x="451" y="577"/>
      <point x="451" y="410"/>
      <point x="451" y="265" type="curve"/>
      <point x="451" y="150"/>
      <point x="415" y="71"/>
      <point x="313" y="71" type="curve"/>
      <point x="197" y="71"/>
      <point x="166" y="157"/>
      <point x="166" y="286" type="curve"/>
      <point x="166" y="423"/>
      <point x="166" y="585"/>
      <point x="166" y="722" type="curve"/>
      <point x="87" y="722"/>
      <point x="166" y="722"/>
    </contour>
    <contour>
      <point x="351" y="801" type="line"/>
      <point x="451" y="967" type="line"/>
      <point x="343" y="967" type="line"/>
      <point x="268" y="801" type="line"/>
    </contour>
  </outline>
</glyph>
<glyph name="Udieresis" format="1">
  <advance width="617"/>
  <unicode hex="00DC"/>
  <outline>
    <contour>
      <point x="86" y="722" type="curve"/>
      <point x="86" y="580"/>
      <point x="86" y="414"/>
      <point x="86" y="272" type="curve"/>
      <point x="86" y="100"/>
      <point x="146" y="-5"/>
      <point x="307" y="-5" type="curve"/>
      <point x="469" y="-5"/>
      <point x="531" y="101"/>
      <point x="531" y="275" type="curve"/>
      <point x="531" y="415"/>
      <point x="531" y="581"/>
      <point x="531" y="722" type="curve"/>
      <point x="452" y="722"/>
      <point x="531" y="722"/>
      <point x="451" y="722" type="curve"/>
      <point x="451" y="577"/>
      <point x="451" y="410"/>
      <point x="451" y="265" type="curve"/>
      <point x="451" y="150"/>
      <point x="415" y="71"/>
      <point x="313" y="71" type="curve"/>
      <point x="197" y="71"/>
      <point x="166" y="157"/>
      <point x="166" y="286" type="curve"/>
      <point x="166" y="423"/>
      <point x="166" y="585"/>
      <point x="166" y="722" type="curve"/>
      <point x="87" y="722"/>
      <point x="166" y="722"/>
    </contour>
    <contour>
      <point x="287" y="842" type="curve"/>
      <point x="287" y="873"/>
      <point x="266" y="888"/>
      <point x="238" y="888" type="curve"/>
      <point x="210" y="888"/>
      <point x="192" y="871"/>
      <point x="192" y="842" type="curve"/>
      <point x="287" y="842"/>
      <point x="192" y="842"/>
      <point x="287" y="842" type="curve"/>
      <point x="287" y="811"/>
      <point x="267" y="796"/>
      <point x="238" y="796" type="curve"/>
      <point x="209" y="796"/>
      <point x="192" y="812"/>
      <point x="192" y="842" type="curve"/>
      <point x="287" y="842"/>
      <point x="192" y="842"/>
    </contour>
    <contour>
      <point x="432" y="842" type="curve"/>
      <point x="432" y="873"/>
      <point x="412" y="888"/>
      <point x="384" y="888" type="curve"/>
      <point x="355" y="888"/>
      <point x="337" y="871"/>
      <point x="337" y="842" type="curve"/>
      <point x="432" y="842"/>
      <point x="337" y="842"/>
      <point x="432" y="842" type="curve"/>
      <point x="432" y="811"/>
      <point x="413" y="796"/>
      <point x="384" y="796" type="curve"/>
      <point x="355" y="796"/>
      <point x="337" y="812"/>
      <point x="337" y="842" type="curve"/>
      <point x="432" y="842"/>
      <point x="337" y="842"/>
    </contour>
  </outline>
</glyph>
<glyph name="Thorn" format="1">
  <advance width="480"/>
  <unicode hex="00DE"/>
  <outline>
    <contour>
      <point x="126" y="228" type="curve"/>
      <point x="167" y="201"/>
      <point x="211" y="182"/>
      <point x="264" y="182" type="curve"/>
      <point x="380" y="184"/>
      <point x="445" y="268"/>
      <point x="445" y="398" type="curve"/>
      <point x="445" y="522"/>
      <point x="370" y="613"/>
      <point x="238" y="613" type="curve"/>
      <point x="206" y="613"/>
      <point x="173" y="613"/>
      <point x="141" y="613" type="curve"/>
      <point x="141" y="544"/>
      <point x="141" y="613"/>
      <point x="141" y="544" type="curve"/>
      <point x="169" y="544"/>
      <point x="198" y="544"/>
      <point x="227" y="544" type="curve"/>
      <point x="315" y="544"/>
      <point x="358" y="478"/>
      <point x="358" y="395" type="curve"/>
      <point x="358" y="314"/>
      <point x="329" y="249"/>
      <point x="255" y="249" type="curve"/>
      <point x="214" y="249"/>
      <point x="187" y="263"/>
      <point x="153" y="286" type="curve"/>
      <point x="126" y="230"/>
      <point x="153" y="286"/>
    </contour>
    <contour>
      <point x="181" y="0" type="curve"/>
      <point x="181" y="241"/>
      <point x="181" y="481"/>
      <point x="181" y="722" type="curve"/>
      <point x="94" y="722"/>
      <point x="181" y="722"/>
      <point x="94" y="722" type="curve"/>
      <point x="94" y="481"/>
      <point x="94" y="241"/>
      <point x="94" y="0" type="curve"/>
      <point x="181" y="0"/>
      <point x="94" y="0"/>
    </contour>
  </outline>
</glyph>
<glyph name="germandbls" format="1">
  <advance width="480"/>
  <unicode hex="00DF"/>
  <outline>
    <contour>
      <point x="167" y="0" type="curve"/>
      <point x="167" y="201"/>
      <point x="167" y="401"/>
      <point x="167" y="602" type="curve"/>
      <point x="79" y="602"/>
      <point x="167" y="602"/>
      <point x="79" y="602" type="curve"/>
      <point x="79" y="401"/>
      <point x="79" y="201"/>
      <point x="79" y="0" type="curve"/>
      <point x="167" y="0"/>
      <point x="79" y="0"/>
    </contour>
    <contour>
      <point x="167" y="602" type="curve"/>
      <point x="167" y="671"/>
      <point x="186" y="730"/>
      <point x="247" y="730" type="curve"/>
      <point x="307" y="730"/>
      <point x="336" y="678"/>
      <point x="336" y="608" type="curve"/>
      <point x="336" y="537"/>
      <point x="300" y="484"/>
      <point x="236" y="484" type="curve"/>
      <point x="236" y="426"/>
      <point x="236" y="484"/>
      <point x="236" y="426" type="curve"/>
      <point x="348" y="426"/>
      <point x="419" y="498"/>
      <point x="419" y="612" type="curve"/>
      <point x="419" y="724"/>
      <point x="359" y="800"/>
      <point x="251" y="800" type="curve"/>
      <point x="139" y="800"/>
      <point x="79" y="718"/>
      <point x="79" y="602" type="curve"/>
      <point x="167" y="602"/>
      <point x="79" y="602"/>
    </contour>
    <contour>
      <point x="317" y="81" type="curve"/>
      <point x="402" y="107"/>
      <point x="443" y="176"/>
      <point x="443" y="280" type="curve"/>
      <point x="443" y="402"/>
      <point x="368" y="484"/>
      <point x="236" y="484" type="curve"/>
      <point x="236" y="426"/>
      <point x="236" y="484"/>
      <point x="236" y="426" type="curve"/>
      <point x="309" y="426"/>
      <point x="360" y="365"/>
      <point x="360" y="281" type="curve"/>
      <point x="360" y="216"/>
      <point x="338" y="168"/>
      <point x="289" y="149" type="curve"/>
      <point x="317" y="81"/>
      <point x="289" y="149"/>
    </contour>
  </outline>
</glyph>
<glyph name="atilde" format="1">
  <advance width="461"/>
  <unicode hex="00E3"/>
  <outline>
    <contour>
      <point x="385" y="0" type="curve"/>
      <point x="385" y="126"/>
      <point x="385" y="253"/>
      <point x="385" y="379" type="curve"/>
      <point x="385" y="487"/>
      <point x="326" y="538"/>
      <point x="225" y="538" type="curve"/>
      <point x="151" y="538"/>
      <point x="100" y="503"/>
      <point x="64" y="462" type="curve"/>
      <point x="99" y="405"/>
      <point x="64" y="462"/>
      <point x="99" y="405" type="curve"/>
      <point x="123" y="432"/>
      <point x="160" y="467"/>
      <point x="213" y="467" type="curve"/>
      <point x="272" y="467"/>
      <point x="297" y="430"/>
      <point x="297" y="367" type="curve"/>
      <point x="297" y="244"/>
      <point x="297" y="122"/>
      <point x="297" y="0" type="curve"/>
      <point x="385" y="0"/>
      <point x="297" y="0"/>
    </contour>
    <contour>
      <point x="338" y="336" type="curve"/>
      <point x="282" y="326"/>
      <point x="251" y="323"/>
      <point x="194" y="313" type="curve"/>
      <point x="101" y="297"/>
      <point x="42" y="249"/>
      <point x="42" y="154" type="curve"/>
      <point x="42" y="57"/>
      <point x="85" y="-5"/>
      <point x="179" y="-5" type="curve"/>
      <point x="278" y="-5"/>
      <point x="317" y="77"/>
      <point x="364" y="152" type="curve"/>
      <point x="319" y="191"/>
      <point x="364" y="152"/>
      <point x="319" y="191" type="curve"/>
      <point x="294" y="126"/>
      <point x="265" y="64"/>
      <point x="200" y="64" type="curve"/>
      <point x="144" y="64"/>
      <point x="127" y="101"/>
      <point x="127" y="158" type="curve"/>
      <point x="127" y="208"/>
      <point x="155" y="243"/>
      <point x="196" y="251" type="curve"/>
      <point x="256" y="262"/>
      <point x="282" y="267"/>
      <point x="342" y="277" type="curve"/>
      <point x="338" y="336"/>
      <point x="342" y="277"/>
    </contour>
    <contour>
      <point x="332" y="799" type="curve"/>
      <point x="319" y="757"/>
      <point x="310" y="729"/>
      <point x="286" y="729" type="curve"/>
      <point x="259" y="729"/>
      <point x="247" y="742"/>
      <point x="230" y="762" type="curve"/>
      <point x="207" y="787"/>
      <point x="193" y="803"/>
      <point x="161" y="803" type="curve"/>
      <point x="98" y="803"/>
      <point x="75" y="740"/>
      <point x="59" y="676" type="curve"/>
      <point x="125" y="641"/>
      <point x="59" y="677"/>
      <point x="125" y="641" type="curve"/>
      <point x="139" y="687"/>
      <point x="149" y="714"/>
      <point x="179" y="714" type="curve"/>
      <point x="202" y="714"/>
      <point x="212" y="700"/>
      <point x="226" y="682" type="curve"/>
      <point x="251" y="655"/>
      <point x="268" y="637"/>
      <point x="304" y="637" type="curve"/>
      <point x="368" y="637"/>
      <point x="383" y="700"/>
      <point x="402" y="765" type="curve"/>
      <point x="332" y="799"/>
      <point x="402" y="765"/>
    </contour>
  </outline>
</glyph>
